<?xml version="1.0" encoding="utf-8"?>
<!-- Generator: Adobe Illustrator 19.0.0, SVG Export Plug-In . SVG Version: 6.00 Build 0)  -->
<svg version="1.1" id="Layer_1" xmlns="http://www.w3.org/2000/svg" xmlns:xlink="http://www.w3.org/1999/xlink" x="0px" y="0px"
	 viewBox="0 0 1000 1000" style="enable-background:new 0 0 1000 1000;" xml:space="preserve">
<style type="text/css">
	.st0{fill:#9F626B;}
	.st1{fill:#302E41;}
	.st2{fill:#403E56;}
	.st3{fill:url(#a1f8771a-4bf9-4603-9747-6ae739e4ad47_1_);}
	.st4{fill:#CDCCCC;}
	.st5{fill:#E6E6E5;}
	.st6{fill:url(#eabc0b76-6faa-4fa0-934c-daff28b491dd_1_);}
	.st7{fill:url(#a7ca0488-8ee6-49e2-b245-2872b84c042e_1_);}
	.st8{fill:#2D2A3E;}
	.st9{fill:url(#b32730d1-ac43-40b1-a176-73e18bf362e5-112_1_);}
	.st10{fill:#A0626B;}
</style>
<polygon class="st0" points="845,830.6 832.7,830.6 826.9,783.3 845,783.3 "/>
<path class="st1" d="M848.1,842.4l-39.5,0v-0.5c0-8.5,6.9-15.4,15.4-15.4h0l24.1,0L848.1,842.4z"/>
<polygon class="st0" points="798,830.6 785.7,830.6 779.9,783.3 798,783.3 "/>
<path class="st1" d="M801.1,842.4l-39.5,0v-0.5c0-8.5,6.9-15.4,15.4-15.4h0l24.1,0L801.1,842.4z"/>
<path id="ae5c11dc-7e77-468a-a39f-cc8da6ee1565-103" class="st2" d="M268.3,840.6V460.8c0-4.9,3.9-8.8,8.8-8.8l0,0h39.4
	c4.9,0,8.8,3.9,8.8,8.8l0,0l0,0v380.8L268.3,840.6z"/>
<path id="bc696f83-47b6-45c9-967f-bb64f1f3bee5-104" class="st2" d="M398.3,841.8v-302c0-4.9,3.9-8.8,8.8-8.8l0,0h39.4
	c4.9,0,8.8,3.9,8.8,8.8l0,0l0,0v301.3L398.3,841.8z"/>
<path class="st2" d="M167.3,483c-1.7,0-3-1.3-3-3c0-0.7,0.3-1.5,0.8-2l131.6-146.8l129.5,72.7l130.3-224.5l132.7,109.2
	c1.3,1.1,1.5,2.9,0.4,4.2c-1.1,1.3-2.9,1.5-4.2,0.4c0,0,0,0,0,0L558.2,188.6L428.4,412.1L298,338.8L169.6,482
	C169,482.6,168.2,483,167.3,483z"/>
<linearGradient id="a1f8771a-4bf9-4603-9747-6ae739e4ad47_1_" gradientUnits="userSpaceOnUse" x1="138.832" y1="480" x2="194.832" y2="480">
	<stop  offset="0" style="stop-color:#4F69B1"/>
	<stop  offset="1" style="stop-color:#AF6AAC"/>
</linearGradient>
<circle id="a1f8771a-4bf9-4603-9747-6ae739e4ad47" class="st3" cx="166.8" cy="480" r="28"/>
<circle id="ffdbdf53-78c2-412f-9ede-372406e5d245" class="st4" cx="296.8" cy="335" r="28"/>
<circle id="b7cff929-f00d-4f86-944c-e500b6ceb6ad" class="st5" cx="426.8" cy="408" r="28"/>
<linearGradient id="eabc0b76-6faa-4fa0-934c-daff28b491dd_1_" gradientUnits="userSpaceOnUse" x1="528.832" y1="184" x2="584.832" y2="184">
	<stop  offset="0" style="stop-color:#4F69B1"/>
	<stop  offset="1" style="stop-color:#AF6AAC"/>
</linearGradient>
<circle id="eabc0b76-6faa-4fa0-934c-daff28b491dd" class="st6" cx="556.8" cy="184" r="28"/>
<linearGradient id="a7ca0488-8ee6-49e2-b245-2872b84c042e_1_" gradientUnits="userSpaceOnUse" x1="778.832" y1="392.535" x2="834.832" y2="392.535">
	<stop  offset="0" style="stop-color:#4F69B1"/>
	<stop  offset="1" style="stop-color:#AF6AAC"/>
</linearGradient>
<circle id="a7ca0488-8ee6-49e2-b245-2872b84c042e" class="st7" cx="806.8" cy="392.5" r="28"/>
<path id="b579ef19-595a-43de-9b6d-0ead8268ca48-105" class="st2" d="M796.9,610.7c10.5,1.3,37.3-8.3,38.7,6.2
	c13.8,40.6,13.4,196.3,13.4,196.3l-21,1c0,0-16.8-123.7-24.7-150.1c-4,32.2-3.3,155.1-3.3,155.1l-19,1c0,0-17-104.7-17.1-135.5
	c-2.1-22.5,3-55.9,0.8-77.6C775.1,610.4,786.1,611.6,796.9,610.7L796.9,610.7z"/>
<path id="b3465432-03e0-48eb-8016-b04aa244e72c-106" class="st2" d="M658.3,840.5V402.7c0-5.6,3.9-10.2,8.8-10.2h39.4
	c4.9,0,8.8,4.6,8.8,10.2v438.9L658.3,840.5z"/>
<path id="ac7870c5-efcc-4c4b-b17f-07e0bff4d096-107" class="st0" d="M761.3,492.9c-4.2-8.6-9.3-16.7-15.3-24.2
	c-1.2-1.5-2.4-3-3.4-4.6c-2.2-3.7-2.8-8.1-4.2-12.2c-3.8-11.4-13.3-20.6-15.6-32.5c-0.8-4.3-7.9,8.2-6.1,13.5
	c3.3,9.6,3.8,19.9,8,29.2s9.2,18.3,12.9,27.8c2.1,5.4,3.7,11,6.8,16c3.1,5,7.8,9.2,13.6,9.9c0-3.6,0.5-7.2,1.6-10.7
	C760.9,501.2,763.1,496.6,761.3,492.9z"/>
<path id="be4b35b3-6955-40b7-9549-45fdba6a2930-108" class="st0" d="M824.2,499.3c-0.3-7.1,0.8-14.1,3.3-20.8c0.9-2.5,2-5.1,1.9-7.9
	c-0.1-2.5-1.3-4.8-2.4-7.1c-3.8-7.9-6.4-16.2-9-24.5l-5-15.6c-1.6-1.2,7.9-1.6,9.9,1.2c6.6,9.2,11.7,19.8,16.9,29.9
	c1.3,2.4,2.5,4.9,3.4,7.5c1.3,4.2,1.9,8.6,1.8,12.9c0,8.2-1.1,16.4-2.2,24.5c-0.7,5.1-1.6,10.6-5.5,14
	C833.3,508.3,829.3,503.3,824.2,499.3z"/>
<circle id="a7d383a2-21d6-4551-be8a-8c82a5e576cb" class="st0" cx="797.8" cy="470.5" r="20.8"/>
<path id="fb091cb1-8ad4-4d57-b74d-c940c723d6bf-109" class="st8" d="M780.9,449.8c-0.5-1.3-0.2-2.7,0.8-3.7c0.5-0.4,1.2-0.6,1.8-1
	c0.8-0.7,1.4-1.5,1.9-2.4c2.9-4.1,8.4-5.5,12.9-3.3c3.4,1.8,5.5,5.4,8.5,7.8c1.5,1.3,3.3,2.2,4.9,3.4c3.1,2.7,5.3,6.3,6.4,10.3
	c1,4,1.6,8,1.8,12.1c0.2,1.2,0.1,2.5-0.1,3.7c-0.3,1-0.8,2-1.4,2.8c-3.1,4.7-7.3,9.1-12.4,11.5s-11.5,2.8-16.6,0.3
	c-0.5-0.2-1-0.6-1.3-1c-0.3-0.7-0.4-1.5-0.2-2.2c0.3-2.9-0.3-5.8-1.7-8.4c-1-1.9-2.4-3.5-3.1-5.5c-0.7-2.2-1-4.5-0.9-6.8
	C782,461.5,782.4,455.5,780.9,449.8z"/>
<path id="ef6ae9ea-be37-4bc6-b1be-067860dc7e9d-110" class="st2" d="M138.3,841V629.7c0-2.7,3.9-4.9,8.8-4.9h39.4
	c4.9,0,8.8,2.2,8.8,4.9v211.9L138.3,841z"/>
<path id="b4c810f7-8361-4f56-9780-d97c96bbbba4-111" class="st5" d="M909.2,843.8H90c-0.6,0-1-0.4-1-1s0.4-1,1-1h819.2
	c0.6,0,1,0.4,1,1S909.7,843.8,909.2,843.8L909.2,843.8z"/>
<linearGradient id="b32730d1-ac43-40b1-a176-73e18bf362e5-112_1_" gradientUnits="userSpaceOnUse" x1="528.3311" y1="586.8005" x2="585.3311" y2="586.8005">
	<stop  offset="0" style="stop-color:#4F69B1"/>
	<stop  offset="1" style="stop-color:#AF6AAC"/>
</linearGradient>
<path id="b32730d1-ac43-40b1-a176-73e18bf362e5-112" class="st9" d="M528.3,840.3V343.5c0-6.4,3.9-11.5,8.8-11.5h39.4
	c4.9,0,8.8,5.2,8.8,11.5v498.1L528.3,840.3z"/>
<circle class="st10" cx="716.2" cy="421.4" r="9"/>
<circle class="st10" cx="816.2" cy="417.4" r="9"/>
<path class="st5" d="M838.1,528.8c0.9-0.8,8-42.7,8-43.6c-0.1-5.2-15.8-11-19-9c-3,1.9-8.1,24.1-11.5,28.2l-3.5-6.2h-28l-1.7,3.2
	c-3.7-2.2-7-4.3-8.2-4.9c-0.4-0.3-0.8-0.5-1.3-0.6c-2.9-0.7-5.6-1.9-8-3.8c-2.3-1.8-13-20.3-15.8-19.8c-3.2,0.5-14.1,10-14,19
	c1.4,0,19.2,35.6,19.5,37c1.4,5.6,5.9,87.6,7.4,91.4c6.7-0.7,1.4-1.8,7.9,0c7,2,14.4-0.2,21.6-0.9c3-0.3,6-0.4,9.1-0.4
	c11,0,26.7,0.7,37.3,3.4c0.1-7-6.1-22.1-8.3-28.7c-0.3-2-0.3-4,0-5.9C829.8,584.6,835.7,531.4,838.1,528.8z"/>
</svg>
