<?xml version="1.0" encoding="utf-8"?>
<!-- Generator: Adobe Illustrator 19.0.0, SVG Export Plug-In . SVG Version: 6.00 Build 0)  -->
<svg version="1.1" id="Layer_1" xmlns="http://www.w3.org/2000/svg" xmlns:xlink="http://www.w3.org/1999/xlink" x="0px" y="0px"
	 viewBox="0 0 2000 1000" style="enable-background:new 0 0 2000 1000;" xml:space="preserve">
<style type="text/css">
	.st0{fill:#F7F8F8;}
	.st1{fill:url(#XMLID_17_);}
	.st2{fill:url(#XMLID_18_);}
</style>
<path id="XMLID_4_" class="st0" d="M172.4,356.4c0-62.1,50.3-112.4,112.4-112.4H572c62.1,0,112.4,50.3,112.4,112.4v287.2
	c0,62.1-50.3,112.4-112.4,112.4H284.8c-62.1,0-112.4-50.3-112.4-112.4V356.4z"/>
<linearGradient id="XMLID_17_" gradientUnits="userSpaceOnUse" x1="415.8922" y1="573.8271" x2="461.8611" y2="402.924" gradientTransform="matrix(1 0 0 -1 0 1002)">
	<stop  offset="0" style="stop-color:#F69177"/>
	<stop  offset="0.4034" style="stop-color:#ED386D"/>
	<stop  offset="0.9688" style="stop-color:#B64C9C"/>
</linearGradient>
<path id="XMLID_7_" class="st1" d="M347.2,518.7V455c0-54.5,44.8-98.6,99.3-98.6c55.2,0,100.6,44.7,100.6,99.9s-44.7,99.9-99.9,99.9
	h-62.4v87.4c0,6.9-5.6,12.5-12.5,12.5h-12.5c-6.9,0-12.5-5.6-12.5-12.5v-87.4H341c-10.3,0-18.7-8.4-18.7-18.7
	c0-10.3,8.4-18.7,18.7-18.7H347.2z M447.1,393.9c-34.5,0-62.4,28-62.4,62.4v62.4h62.4c34.5,0,62.4-28,62.4-62.4
	S481.6,393.9,447.1,393.9z"/>
<linearGradient id="XMLID_18_" gradientUnits="userSpaceOnUse" x1="365.9351" y1="445.8049" x2="365.9351" y2="420.8293" gradientTransform="matrix(1 0 0 -1 0 1002)">
	<stop  offset="0" style="stop-color:#010101;stop-opacity:0.26"/>
	<stop  offset="1" style="stop-color:#010101;stop-opacity:0"/>
</linearGradient>
<path id="XMLID_1_" class="st2" d="M347.2,556.2h37.5v25h-37.5V556.2z"/>
<path id="XMLID_16_" d="M755,623.1c-4.1,0-7.8-1.6-11.2-4.7c-3.4-2.8-5.1-6.2-5.1-10.3v-151c0-8.4,2.6-14.8,7.9-19.2
	c5.3-4.4,11.2-6.5,17.8-6.5h49.6c10.6,0,20.4,2.2,29.5,6.5c9.3,4.1,16.8,10.1,22.4,18.2c5.6,8.1,8.4,18.1,8.4,29.9
	c0,18.4-5.9,33-17.8,43.9c-11.5,10.9-25.6,16.4-42.1,16.4h-31.3c-7.8,0-11.7,4.7-11.7,14v47.7c0,4.1-1.7,7.5-5.1,10.3
	C763.1,621.6,759.4,623.1,755,623.1z M780.7,518.4h28.5c7.8,0,15.3-2.3,22.4-7c7.5-4.7,11.2-12.8,11.2-24.3c0-9-3.4-15.7-10.3-20.1
	c-6.5-4.7-13.7-7-21.5-7h-29c-7.8,0-11.7,3.7-11.7,11.2v34.6C770.5,514.2,773.9,518.4,780.7,518.4z M927,623.1
	c-4.1,0-7.6-1.4-10.8-4.2c-3.1-2.8-4.7-6.5-4.7-11.2c0-1.6,0.3-3.6,0.9-6.1L971,443.2c2.2-5.3,5.5-9.3,9.8-12.2
	c4.4-2.8,9-4.2,14-4.2c5,0,9.7,1.4,14,4.2c4.7,2.8,8.1,6.9,10.3,12.2l62.2,158.5c0.6,2.5,0.9,4.5,0.9,6.1c0,4.7-1.6,8.4-4.7,11.2
	c-3.1,2.8-6.7,4.2-10.8,4.2c-2.8,0-5.8-0.8-8.9-2.3c-2.8-1.2-5-3.4-6.5-6.5l-15.4-41.1c-0.3-1.9-1.6-2.8-3.7-2.8h-71.5
	c-2.2,0-3.6,0.9-4.2,2.8l-14,41.1c-1.6,3.1-3.9,5.3-7,6.5C932.6,622.4,929.8,623.1,927,623.1z M974.7,542.3h42.1
	c1.9,0,3.3-0.6,4.2-1.9c1.2-1.6,1.6-3.4,0.9-5.6l-22.4-64c-0.9-3.1-2.3-4.7-4.2-4.7c-2.2,0-3.7,1.6-4.7,4.7l-21,64.5
	c-0.6,1.9-0.5,3.6,0.5,5.1C971.3,541.6,972.9,542.3,974.7,542.3z M1157.2,623.1c-4.1,0-7.8-1.6-11.2-4.7c-3.4-2.8-5.1-6.2-5.1-10.3
	v-151c0-8.4,2.6-14.8,7.9-19.2c5.3-4.4,11.2-6.5,17.8-6.5h49.6c10.6,0,20.4,2.2,29.5,6.5c9.3,4.1,16.8,10.1,22.4,18.2
	s8.4,18.1,8.4,29.9c0,18.4-5.9,33-17.8,43.9c-11.5,10.9-25.6,16.4-42.1,16.4h-31.3c-7.8,0-11.7,4.7-11.7,14v47.7
	c0,4.1-1.7,7.5-5.1,10.3C1165.3,621.6,1161.5,623.1,1157.2,623.1z M1182.9,518.4h28.5c7.8,0,15.3-2.3,22.4-7
	c7.5-4.7,11.2-12.8,11.2-24.3c0-9-3.4-15.7-10.3-20.1c-6.5-4.7-13.7-7-21.5-7h-29c-7.8,0-11.7,3.7-11.7,11.2v34.6
	C1172.6,514.2,1176,518.4,1182.9,518.4z M1363,618.5c-7.8,0-14-2.3-18.7-7c-4.7-4.7-7-10.9-7-18.7v-137c0-7.2,2.3-12.9,7-17.3
	c5-4.7,10.8-7,17.3-7h70.6c5.3,0,9,1.4,11.2,4.2c2.5,2.5,3.7,5.8,3.7,9.8c0,3.7-1.4,7-4.2,9.8c-2.5,2.8-6.1,4.2-10.8,4.2h-50
	c-8.1,0-12.2,4.1-12.2,12.2v25.7c0,8.1,3.7,12.2,11.2,12.2h46.3c5.3,0,9,1.4,11.2,4.2c2.5,2.8,3.7,6.1,3.7,9.8
	c0,3.4-1.4,6.7-4.2,9.8c-2.5,2.8-6.1,4.2-10.8,4.2h-46.3c-7.5,0-11.2,3.9-11.2,11.7v28.5c0,8.1,3.9,12.2,11.7,12.2h55.2
	c5.3,0,9,1.6,11.2,4.7c2.5,2.8,3.7,6.1,3.7,9.8c0,3.7-1.4,7-4.2,9.8c-2.5,2.8-6.1,4.2-10.8,4.2H1363z M1531,623.1
	c-4.1,0-7.8-1.6-11.2-4.7c-3.1-2.8-4.7-6.2-4.7-10.3v-151c0-8.4,2.8-14.8,8.4-19.2c5.9-4.4,12.2-6.5,18.7-6.5h45.8
	c10.6,0,20.4,2.3,29.5,7c9.3,4.4,16.8,10.8,22.4,19.2c5.6,8.1,8.4,17.9,8.4,29.5c0,10.9-3.3,21.3-9.8,31.3
	c-6.2,9.7-14.3,16.2-24.3,19.6c4.4,1.9,8.4,5,12.2,9.3c4.1,4.1,7.6,9.5,10.8,16.4l16.8,37.9c0.9,1.9,1.4,3.9,1.4,6.1
	c0,5.6-1.9,9.7-5.6,12.2c-3.4,2.5-7,3.7-10.8,3.7c-6.2,0-10.6-3-13.1-8.9l-19.2-44.9c-4.1-9-9.2-15.3-15.4-18.7
	c-6.2-3.4-13.1-5.1-20.6-5.1H1559c-8.1,0-12.2,4.7-12.2,14v48.1c0,4.1-1.6,7.5-4.7,10.3C1539.1,621.6,1535.3,623.1,1531,623.1z
	 M1557.2,517.9h26.2c7.8,0,15.3-2.5,22.4-7.5c7.5-5.3,11.2-12.8,11.2-22.4c0-9.3-3.4-16.4-10.3-21c-6.5-4.7-13.7-7-21.5-7h-26.6
	c-7.8,0-11.7,3.9-11.7,11.7v35.5C1546.9,514.4,1550.3,517.9,1557.2,517.9z"/>
</svg>
