<?xml version="1.0" encoding="utf-8"?>
<!-- Generator: Adobe Illustrator 19.0.0, SVG Export Plug-In . SVG Version: 6.00 Build 0)  -->
<svg version="1.1" id="Layer_1" xmlns="http://www.w3.org/2000/svg" xmlns:xlink="http://www.w3.org/1999/xlink" x="0px" y="0px"
	 viewBox="0 0 2000 1000" style="enable-background:new 0 0 2000 1000;" xml:space="preserve">
<style type="text/css">
	.st0{fill:#010101;}
</style>
<g id="XMLID_7_">
	<path id="XMLID_6_" class="st0" d="M602.2,500v147.2l18.7-0.8l18.4-0.8l0.8-129.9l0.5-129.6h49.7c39.8,0,51.6,0.8,58.8,4.4
		c31.9,15.1,23.9,65.1-13.2,83.8c-5.8,3-19.5,8-30.2,10.7l-19.8,4.9V503c0,12.9,1.6,15.7,46.4,78.5l46.7,65.4h24.2
		c13.2,0,24.2-0.8,24.2-1.6c0-0.8-22.2-32.1-49.4-69.2l-49.2-67.6l17.3-7.1c42.6-18.1,62.9-42.8,63.2-76.9
		c0.3-32.1-11.3-51.6-37.3-63.4c-14-6.3-17.3-6.6-92-7.4l-77.7-0.8V500z"/>
	<path id="XMLID_5_" class="st0" d="M1102,370.9v17.8h19.2h19.2v-17.8v-17.8h-19.2H1102V370.9z"/>
	<path id="XMLID_11_" class="st0" d="M902.6,433.8c-32.4,6.3-31.3,5.5-31.3,22.8c0,14.3,0.3,15.1,6.3,13.7c24.7-6,43.7-8,67-6.9
		c40.6,1.4,53,11.5,53,42V517l-38.4-1.4c-45.3-1.6-66.7,2.7-83.8,16.8c-29.7,24.4-27.5,80.7,4.1,101.3c29.1,18.7,80.5,15.4,120.8-8
		c0.8-0.5,4.1,4.1,7.7,10.2c5.5,9.9,7.1,11,17.3,11h11l-0.8-84.6c-0.8-76.6-1.4-85.4-6-95c-6.6-12.9-22.8-25-41.2-30.5
		C968.5,430.8,926.3,429.4,902.6,433.8z M995.5,549.7c1.1,0.8,2.2,11.3,2.2,23.1c0,21.4,0,21.7-8.8,26.9
		c-15.7,9.6-39.5,14.8-60.4,13.7c-17.6-0.8-20-1.9-27.2-9.9c-10.4-11.5-11.3-32.1-1.6-43.1c10.7-12.4,24.2-15.4,60.7-13.7
		C978.4,547.5,994.1,548.9,995.5,549.7z"/>
	<path id="XMLID_2_" class="st0" d="M1102,538.4v108.7l18.7-0.8l18.4-0.8V538.4V431.3l-18.4-0.8l-18.7-0.8V538.4z"/>
	<path id="XMLID_1_" class="st0" d="M1204.2,537.6l0.8,107.9l18.7,0.8l18.4,0.8v-78.3v-78.3l10.4-8.2c30.5-25.3,79.1-25.3,93.1,0.3
		c4.4,8,4.9,17.8,5.8,86.5l0.8,77.7h19.2h19.2l-0.8-81.8c-0.8-76.1-1.1-82.4-6.6-93.9c-13.2-28.3-33.8-39.5-72.5-39.5
		c-22.5,0-28.3,0.8-42,7.4c-8.8,3.8-19.5,9.6-23.9,12.9l-7.7,5.5l-3.3-13.7l-3.3-13.7h-13.5h-13.5L1204.2,537.6z"/>
</g>
</svg>
