<?xml version="1.0" encoding="utf-8"?>
<!-- Generator: Adobe Illustrator 19.0.0, SVG Export Plug-In . SVG Version: 6.00 Build 0)  -->
<svg version="1.1" id="Layer_1" xmlns="http://www.w3.org/2000/svg" xmlns:xlink="http://www.w3.org/1999/xlink" x="0px" y="0px"
	 viewBox="0 0 2000 1000" style="enable-background:new 0 0 2000 1000;" xml:space="preserve">
<style type="text/css">
	.st0{fill:#010101;}
	.st1{fill:#F15954;}
	.st2{fill:#4CB96D;}
	.st3{fill:#F5A721;}
</style>
<path id="XMLID_12_" class="st0" d="M1207.6,268.5c-19.6,5.9-33,26.4-30.9,47.5c1.8,17.2,9.2,27.9,25,35.7c15.5,7.7,27,7.4,42.8-0.9
	c36.3-19,29.7-71-10.4-82C1220.4,265.2,1219.5,265.2,1207.6,268.5z"/>
<path id="XMLID_11_" class="st0" d="M893.8,457.2v188.7h38.6H971V457.2V268.5h-38.6h-38.6V457.2z"/>
<path id="XMLID_10_" class="st0" d="M1039.4,457.2v188.7h38.6h38.6V457.2V268.5H1078h-38.6V457.2z"/>
<path id="XMLID_9_" class="st0" d="M459.9,311c-6.2,3.3-8.6,8.6-15.2,37.1c-4.5,18.4-8.6,34.5-9.5,35.1c-0.9,0.9-10.4,3.3-21.1,5.1
	l-19.6,3.3V410c0,22.9,4.2,27.9,22.3,27.9h12.8l1.2,78.2l0.9,78.2l8.9,17.5c6.8,13.7,12.5,19.6,23.5,26.7c14,8.6,16.3,8.9,46.1,8.9
	c26.4-0.3,33.9-1.2,47-7.1c23.5-10.4,24.1-12.2,11.6-32.4c-14.9-24.4-16-25.3-32.4-20.8c-12.2,3.3-14.3,3-19.9-2.1
	c-5.6-5.1-5.9-8.6-5.9-76.4v-70.7h31.2h31.2v-26.7v-26.7h-31.2h-30.9l-0.9-38l-0.9-37.7l-20.8-0.9
	C475.6,307.4,464.3,308.6,459.9,311z"/>
<path id="XMLID_8_" class="st0" d="M250.4,383.2c-25.3,6.2-52,25-61.5,43.7c-9.5,19-10.7,47.5-2.4,66.9c10.7,25,29.1,37.4,74.3,51.4
	c10.7,3.3,23.8,8.3,29.1,11.6c18.7,11.6,14.3,32.7-8.6,38.6c-15.2,4.2-25.9,2.1-50.5-9.5c-25.9-11.9-31.8-10.4-47.3,12.5
	c-6.8,9.8-11.3,19.3-10.4,20.8c3.3,5.3,35.7,20.2,55.3,25.3c14,3.9,26.7,4.8,47.8,3.9c25-1.2,31.5-2.7,48.1-11
	c22.3-11,40.7-30,45.8-47.3c5.6-18.7,4.5-46.7-2.4-60.3c-10.1-19.3-24.4-27.6-84.1-49c-19.9-7.1-28.8-14.9-28.8-24.7
	c0-20.5,27-26.4,62.1-13.7c12.2,4.5,24.7,7.1,28.2,6.2c3.9-0.9,11.6-8.9,17.5-17.8l11-16.3l-11.3-9.2
	c-18.7-15.5-39.5-21.7-74.9-22.6C270.3,382,253.6,382.3,250.4,383.2z"/>
<path id="XMLID_19_" class="st0" d="M687.2,386.5c-30,11-57.9,34.2-71,60c-15.2,28.8-18.4,79.3-7.7,113.5
	c11.3,36.8,38.9,66.9,73.4,80.2c20.8,8,62.4,10.7,88.6,5.9c21.4-3.9,49.3-17.2,65.1-30.6l11.3-9.8l-14-17.2
	c-16.9-20.2-21.7-21.1-51.1-7.7c-49.6,22.6-92.1,5.6-100.4-39.8l-2.1-11h75.2c54.7,0,77.6-1.2,82.9-3.9c9.2-4.5,11.3-16.3,8.3-44.6
	c-4.2-41-28.5-75.5-63.6-90.6C758.6,380.5,710.1,378.5,687.2,386.5z M756.2,440.9c11.6,7.1,17.5,16,20.2,30.3l2.1,11.3h-49.3
	c-27,0-49.3-0.6-49.3-1.2c0-0.3,1.5-5.3,3.6-11c5.1-15.2,14-26.7,24.4-31.2C721.7,433.1,744.9,434,756.2,440.9z"/>
<path id="XMLID_5_" class="st0" d="M1393,385.9c-48.4,15.5-80.2,55.9-85.9,109.4c-6.2,57.4,13.7,107,54.1,134.6
	c45.2,30.9,126,22.9,163.7-16.3c8.6-8.9,8.6-9.2,3.3-15.8c-25-30-29.7-31.5-53.2-16.6c-13.1,8.6-17.5,9.8-34.5,9.8
	c-13.1,0-21.7-1.5-26.2-4.8c-10.4-7.4-21.1-23.5-24.7-36.9c-5.1-17.5-4.2-57.9,1.5-75.2c11.9-35.1,45.5-46.1,82.9-27
	c11.6,5.9,20.2,8.3,24.7,7.4c3.9-1.2,12.5-9.2,19.3-18.4l12.5-16.3l-8-8.3c-4.5-4.8-16.9-13.1-27.9-18.4
	c-18.4-9.5-21.4-10.1-53.8-10.7C1417.1,381.7,1402.2,382.9,1393,385.9z"/>
<path id="XMLID_2_" class="st0" d="M1182,515.2v130.8h38.6h38.6V515.2V384.4h-38.6H1182V515.2z"/>
<circle id="XMLID_1_" class="st1" cx="1637.1" cy="600.2" r="42.7"/>
<circle id="XMLID_3_" class="st2" cx="1751.5" cy="600.2" r="42.7"/>
<circle id="XMLID_4_" class="st3" cx="1862.2" cy="600.2" r="42.7"/>
</svg>
