<?xml version="1.0" encoding="utf-8"?>
<!-- Generator: Adobe Illustrator 19.0.0, SVG Export Plug-In . SVG Version: 6.00 Build 0)  -->
<svg version="1.1" id="Layer_1" xmlns="http://www.w3.org/2000/svg" xmlns:xlink="http://www.w3.org/1999/xlink" x="0px" y="0px"
	 viewBox="0 0 1000 1000" style="enable-background:new 0 0 1000 1000;" xml:space="preserve">
<style type="text/css">
	.st0{fill:#4F69B1;}
	.st1{fill:#FAA748;}
	.st2{fill:none;stroke:#000000;stroke-miterlimit:10;}
	.st3{fill:#7E4FA0;}
	.st4{fill:#FFFFFF;stroke:#000000;stroke-miterlimit:10;}
	.st5{fill:#2CA0DA;}
	.st6{fill:#307EC2;}
	.st7{fill:#5B2C81;}
	.st8{fill:#39225E;}
	.st9{fill:#FAA649;}
	.st10{fill:#32181A;}
	.st11{fill:none;stroke:#2B1B1D;stroke-miterlimit:10;}
	.st12{fill:#F58965;}
	.st13{fill:#F3735D;}
	.st14{fill:#120809;}
	.st15{fill:#F6E9E5;}
	.st16{fill:none;}
	.st17{fill:#FAF4F2;}
	.st18{fill:#2E2C2C;}
	.st19{fill:#EDD0C3;}
	.st20{fill:#FDF4F3;}
	.st21{fill:#865EA2;}
	.st22{fill:#7F5B93;}
	.st23{fill:#F58967;}
	.st24{fill:#E16948;}
	.st25{fill:#E07E63;}
	.st26{fill:#F5886A;}
	.st27{fill:#F3735C;}
	.st28{fill:#F58A67;}
	.st29{fill:#E7796C;}
	.st30{fill:none;stroke:#5EC19B;stroke-miterlimit:10;}
	.st31{fill:#5EC19B;}
	.st32{fill:#E14C26;}
	.st33{fill:none;stroke:#E14C26;stroke-miterlimit:10;}
</style>
<circle id="XMLID_78_" class="st0" cx="717.1" cy="332.7" r="10.6"/>
<circle id="XMLID_116_" class="st1" cx="269.1" cy="753.9" r="7.6"/>
<circle id="XMLID_117_" class="st1" cx="56.5" cy="562.4" r="7.6"/>
<circle id="XMLID_118_" class="st1" cx="929.6" cy="665.9" r="7.6"/>
<circle id="XMLID_119_" class="st1" cx="991.3" cy="394.6" r="8.5"/>
<circle id="XMLID_120_" class="st1" cx="386.9" cy="208.3" r="4.6"/>
<circle id="XMLID_121_" class="st1" cx="409.2" cy="234" r="4.6"/>
<circle id="XMLID_122_" class="st1" cx="598.3" cy="241.6" r="7.5"/>
<circle id="XMLID_123_" class="st1" cx="578.9" cy="216.8" r="4.9"/>
<circle id="XMLID_124_" class="st1" cx="672" cy="292.9" r="3.9"/>
<circle id="XMLID_125_" class="st1" cx="749.7" cy="180.3" r="3.9"/>
<circle id="XMLID_83_" class="st0" cx="907.9" cy="228.6" r="10.6"/>
<line id="XMLID_93_" class="st2" x1="211.1" y1="748.4" x2="204.8" y2="701.3"/>
<line id="XMLID_96_" class="st2" x1="136.8" y1="588.9" x2="150.7" y2="396.7"/>
<line id="XMLID_108_" class="st2" x1="230.4" y1="341.5" x2="297.6" y2="306.8"/>
<g id="XMLID_12_">
	<circle id="XMLID_53_" class="st0" cx="11.6" cy="773" r="10.6"/>
	<circle id="XMLID_54_" class="st0" cx="155.3" cy="798.6" r="10.6"/>
	<circle id="XMLID_55_" class="st0" cx="213.2" cy="758.9" r="10.6"/>
	<circle id="XMLID_56_" class="st0" cx="147.2" cy="692.9" r="10.6"/>
	<circle id="XMLID_57_" class="st0" cx="202.5" cy="690.9" r="10.6"/>
	<circle id="XMLID_58_" class="st0" cx="41.8" cy="618" r="10.6"/>
	<g id="XMLID_60_">
		<path id="XMLID_287_" class="st3" d="M148.9,608c0,2.8-2.3,5-5,5h-14.1c-2.8,0-5-2.3-5-5v-14.1c0-2.8,2.3-5,5-5h14.1
			c2.8,0,5,2.3,5,5V608z"/>
	</g>
	<circle id="XMLID_62_" class="st0" cx="76.8" cy="432.9" r="11"/>
	<circle id="XMLID_67_" class="st0" cx="200.1" cy="457.7" r="11"/>
	<circle id="XMLID_68_" class="st0" cx="225.3" cy="399.9" r="11"/>
	<circle id="XMLID_69_" class="st0" cx="220.6" cy="346.5" r="11"/>
	<circle id="XMLID_70_" class="st0" cx="189.1" cy="300.3" r="11"/>
	<circle id="XMLID_71_" class="st0" cx="129.4" cy="263.5" r="11"/>
	<circle id="XMLID_72_" class="st0" cx="71.2" cy="322.3" r="11"/>
	<g id="XMLID_73_">
		<path id="XMLID_282_" class="st3" d="M164.6,391.7c0,2.8-2.3,5-5,5h-14.1c-2.8,0-5-2.3-5-5v-14.1c0-2.8,2.3-5,5-5h14.1
			c2.8,0,5,2.3,5,5V391.7z"/>
	</g>
	<g id="XMLID_74_">
		<path id="XMLID_285_" class="st3" d="M321.7,306.3c0,2.8-2.3,5-5,5h-14.1c-2.8,0-5-2.3-5-5v-14.1c0-2.8,2.3-5,5-5h14.1
			c2.8,0,5,2.3,5,5V306.3z"/>
	</g>
	<g id="XMLID_75_">
		<path id="XMLID_283_" class="st3" d="M762.8,265.9c-1.7,2.2-4.9,2.5-7,0.9l-8.3-6.5c-2.2-1.7-2.5-4.9-0.9-7l6.5-8.3
			c1.7-2.2,4.9-2.5,7-0.9l8.3,6.5c2.2,1.7,2.5,4.9,0.9,7L762.8,265.9z"/>
	</g>
	<circle id="XMLID_76_" class="st0" cx="819.3" cy="285.1" r="10.6"/>
	<circle id="XMLID_77_" class="st0" cx="800.8" cy="361.9" r="10.6"/>
	<circle id="XMLID_79_" class="st0" cx="773.5" cy="445.5" r="10.6"/>
	<circle id="XMLID_80_" class="st0" cx="880.7" cy="422.1" r="10.6"/>
	<circle id="XMLID_81_" class="st0" cx="923.2" cy="349.2" r="10.6"/>
	<circle id="XMLID_82_" class="st0" cx="821.1" cy="209.3" r="10.6"/>
	<circle id="XMLID_84_" class="st0" cx="866.1" cy="165.7" r="10.6"/>
	<line id="XMLID_85_" class="st2" x1="21" y1="767.9" x2="137.4" y2="696.8"/>
	<line id="XMLID_86_" class="st2" x1="22.3" y1="775.4" x2="144.7" y2="796.5"/>
	<line id="XMLID_87_" class="st2" x1="13" y1="762.5" x2="40" y2="628.5"/>
	<line id="XMLID_88_" class="st2" x1="163.5" y1="791.7" x2="203.9" y2="764.1"/>
	<line id="XMLID_89_" class="st2" x1="138.4" y1="686.9" x2="51.3" y2="622.7"/>
	<line id="XMLID_90_" class="st2" x1="52.2" y1="616" x2="124.8" y2="604.3"/>
	<line id="XMLID_91_" class="st2" x1="205.6" y1="751.3" x2="154.6" y2="700.6"/>
	<line id="XMLID_92_" class="st2" x1="157.9" y1="692.9" x2="191.9" y2="691.8"/>
	<line id="XMLID_94_" class="st2" x1="139.3" y1="613" x2="147.2" y2="682.3"/>
	<line id="XMLID_95_" class="st2" x1="148.9" y1="611.8" x2="196.4" y2="682.3"/>
	<line id="XMLID_97_" class="st2" x1="87.6" y1="434.8" x2="189.4" y2="455.4"/>
	<line id="XMLID_98_" class="st2" x1="85.9" y1="426.7" x2="140.4" y2="392.2"/>
	<line id="XMLID_99_" class="st2" x1="194.2" y1="448.5" x2="159.5" y2="396.7"/>
	<line id="XMLID_100_" class="st2" x1="204.9" y1="447.8" x2="221.4" y2="410.2"/>
	<line id="XMLID_101_" class="st2" x1="76.8" y1="421.9" x2="73.6" y2="333.1"/>
	<line id="XMLID_102_" class="st2" x1="78.8" y1="314.4" x2="121.6" y2="271.1"/>
	<line id="XMLID_103_" class="st2" x1="131.8" y1="274.2" x2="149.4" y2="372.6"/>
	<line id="XMLID_104_" class="st2" x1="139.2" y1="268.6" x2="179.9" y2="294.4"/>
	<line id="XMLID_105_" class="st2" x1="164.6" y1="378.9" x2="211" y2="351.9"/>
	<line id="XMLID_106_" class="st2" x1="225.3" y1="388.9" x2="222.3" y2="357.5"/>
	<line id="XMLID_107_" class="st2" x1="195" y1="309.6" x2="214.3" y2="337.5"/>
	<line id="XMLID_109_" class="st2" x1="321.7" y1="309.6" x2="533.7" y2="474.4"/>
	<line id="XMLID_110_" class="st2" x1="321.7" y1="306.8" x2="533.7" y2="422.6"/>
	<line id="XMLID_111_" class="st2" x1="321.7" y1="302.7" x2="533.7" y2="368"/>
	<line id="XMLID_112_" class="st2" x1="321.7" y1="299.3" x2="745.8" y2="258.9"/>
	<polygon id="XMLID_113_" class="st4" points="533.7,449.3 533.7,497.4 614.2,506.9 614.2,464.7 	"/>
	<polygon id="XMLID_114_" class="st4" points="533.7,442.6 614.2,458.8 614.2,416.8 533.7,393.7 	"/>
	<polygon id="XMLID_115_" class="st4" points="533.7,387.8 614.2,411 614.2,368.9 533.7,339.1 	"/>
	<line id="XMLID_174_" class="st2" x1="722.2" y1="342.1" x2="769.1" y2="435.9"/>
	<line id="XMLID_187_" class="st2" x1="784.1" y1="442.9" x2="870" y2="422.1"/>
	<line id="XMLID_188_" class="st2" x1="776.4" y1="434.9" x2="796.3" y2="371.6"/>
	<line id="XMLID_189_" class="st2" x1="727.4" y1="335.3" x2="790.1" y2="357.5"/>
	<line id="XMLID_190_" class="st2" x1="722.2" y1="323.4" x2="753.1" y2="264.6"/>
	<line id="XMLID_191_" class="st2" x1="811.2" y1="359.9" x2="914" y2="351.3"/>
	<line id="XMLID_192_" class="st2" x1="815.7" y1="295.1" x2="802" y2="351.4"/>
	<line id="XMLID_193_" class="st2" x1="886.3" y1="413.1" x2="918.5" y2="358.8"/>
	<line id="XMLID_194_" class="st2" x1="767.3" y1="260.1" x2="808.9" y2="281.9"/>
	<line id="XMLID_195_" class="st2" x1="766.7" y1="249.1" x2="813.5" y2="216.8"/>
	<line id="XMLID_196_" class="st2" x1="831.4" y1="211.9" x2="897.2" y2="226.1"/>
</g>
<line id="XMLID_197_" class="st2" x1="828.6" y1="201.8" x2="858.6" y2="173.2"/>
<g id="XMLID_2_">
	<path id="XMLID_3_" class="st5" d="M696.9,738.6c-54.3,38.3-120.2-7.4-120.2-7.4c-29.1-17-62.1-67-62.1-67
		c-16.3-25.5-34.8-40.1-34.8-40.1c-1.4-5-19.5,0-19.5,0l-5,2.1c-15.6,18.8-43.6,14.5-43.6,14.5c-19.5-1.1-25.5,8.2-25.5,8.2
		c-19.9,17-60.7,15.3-60.7,15.3s-9.2-7.8-12.1-44.7l143.3-27.7c0,0-42.9-14.9-56.4-6c0,0-20.6,6.8-35.8-2.8c0,0-6.7-2.5-20.2,3.2
		c0,0-10.3,0.4-11.3-3.7l1.1-39.9c0,0-1.1-3.9,7.4-3.2l132.3,8.5c0,0,33-2.1,62.4,27.3l89.7,83c0,0,12.8,11.7,26.2,8.5l28,20.9
		l12.4,5.3c0,0-13.8,18.8,16,37.2L696.9,738.6z"/>
	<path id="XMLID_1_" class="st6" d="M319.2,651.8c0,0,22.7-3.3,47.1-14.3c0,0,18.4-7.3,51.1-6.7c0,0,33-6.4,39.4-13.1
		c0,0,23.8-8.5,52.1,19.5l36.9,46.1c0,0,34.4,41.9,77,40.8c0,0,40.8,2.5,57.5-36.5l12.4,5.3c0,0-13.5,18.8,16,37.2
		c0,0-15.1,11.8-24.9,16.1c0,0-25.2,12.9-58.3,5.2c0,0-42.1-7.3-74.5-41.8l-10.1-11.1l-18.1-22.9c0,0-23.4-37.2-42.8-51.6
		c0,0-0.7-6.1-24.5,2.1c0,0-12.4,17.8-43.6,14.5c0,0-17.2-2-25.5,8.2c0,0-16.2,16.3-60.7,15.3C325.5,664.1,321.3,659.6,319.2,651.8z
		"/>
	<path id="XMLID_5_" class="st6" d="M333.6,561.1l-0.6,21.2c0,0,2.2,4.2,11.3,3.7c0,0,12.3-5.5,20.2-3.2c0,0,12.5,9.6,35.8,2.8
		c0,0,10.3-9.4,56.4,6l18.1-3.5c0,0,10.1-5.1,36.8,15.6l50.4,32.5l-41.9-42.6c0,0-31.4-33.9-77.1-29.3l-33.5,1.9
		c0,0-16.9-1.3-28.6-7.3c0,0-9.2-2.7-25.8,3.5L333.6,561.1z"/>
	<path id="XMLID_6_" class="st7" d="M647.1,623l-2.1,38.3l35.2,26.2l12.4,5.3c0,0-13.6,19.3,16,37.2l-6.8,5c0,0,11.3,10.5,32.6,10
		c0,0,12-9.6,18.9-35.9c0,0,4.3-12.8,27.1-28.7c0,0,39.4-19.2,28.2-75.5c0,0-8.2-18.6-31.1-1.9c0,0-65.7,42.8-76.1,58.8
		C701.4,661.8,653.5,629.4,647.1,623z"/>
	<path id="XMLID_7_" class="st8" d="M763.4,670.6c-13.6,25.8-32.2,35.9-32.2,35.9c-28.2,13-41.4-5.9-41.4-5.9s1-4.9,2.9-7.8
		c0,0,18.6,18.2,48.1-11.3l37.8-30.9L763.4,670.6z"/>
	<path id="XMLID_4_" class="st8" d="M701.8,735.1l6.8-5c0,0,20.7,6.2,25.8,15C734.4,745.1,714.5,746.4,701.8,735.1z"/>
	<path id="XMLID_8_" class="st9" d="M701.4,661.8l-8-5.5l22.9-13.7c0,0,8.6-3.7,11.5-16.5c0,0,3.7-11.4,36.1-18.4l12.1-3.9
		C776.1,604,708.3,648.8,701.4,661.8z"/>
	<path id="XMLID_21_" class="st10" d="M779.3,508.5c-17.6-1.5-28.6,14.1-28.6,14.1s6.5,16.6,20.4,20.6l11.9,25
		c0,0,5.1,19.8,14.6,27.9l8,6.2c0,0,24.4,2.1,32.5-7.8c0,0,29.8-20.9,31.3-52.4c0,0,4.1-24.9-7.8-18.6c0,0-8.9,14.5-19.5,23.7
		c0,0-11.6,4.7-8.2-11.6l7.7-11.2c0,0,5.7-14.4-11.4-11c0,0-7,7.4-18.2,9.8c0,0-6.6,0.4-18.7-10.9c0,0-9.8-3.7-13.1-3.7L779.3,508.5
		z"/>
	<path id="XMLID_27_" class="st11" d="M790.1,571.4c0,0,14.5,36.2,45.9,15.4c0,0,10.8-8.5,14.2-18.1"/>
	<path id="XMLID_30_" class="st2" d="M800.8,576.8c0,0,7.4,13.7,23.5,6.1"/>
	<path id="XMLID_33_" class="st2" d="M806.5,565.4c0,0,13,20.7,42.6-2.3c0,0,6.5-7.3,6.9-10"/>
	<path id="XMLID_35_" class="st2" d="M813.7,555.4c0,0,7.8,17.8,22.9,4.7"/>
	<path id="XMLID_36_" class="st2" d="M848,553.1c0,0,11.2-11.8,12.9-19.8"/>
	<path id="XMLID_37_" class="st2" d="M810.3,538.4c0,0,6,13.2,18,1.7"/>
	<path id="XMLID_43_" class="st2" d="M823.5,526.5c0,0-15.4,16-25.1-2.7"/>
	<path id="XMLID_47_" class="st2" d="M770,516.8c0,0,7.3,15.4,13.3,14.8"/>
	<path id="XMLID_48_" class="st2" d="M757.8,520.4c0,0,7.4,11.4,17,15.7"/>
	<g id="XMLID_50_">
		<path id="XMLID_9_" class="st12" d="M779.4,601.7l-7.1-21.7c0,0-22,7.6-22.7,0.7c0,0-2.5-3-3.4-16l-6.7-5.9l9.2-5.5
			c0,0-2.5-20.2,2-30.9c0,0,7.8,18.1,20.4,20.6c0,0,12.9,2.3,11.9,25c0,0,5.2,19.4,14.9,28.2C797.8,596.3,788.8,593.9,779.4,601.7z"
			/>
		<circle id="XMLID_10_" class="st13" cx="766.3" cy="560.7" r="6.9"/>
		<g id="XMLID_13_">
			<path id="XMLID_40_" class="st13" d="M747.5,570.5c0,0,0.1-0.2,0.2-0.5c0.1-0.3,0.3-0.8,0.5-1.2c0.2-0.5,0.5-1,0.9-1.5
				c0.3-0.5,0.7-1,1.1-1.5c0.4-0.5,0.8-1,1.2-1.4c0.4-0.4,0.8-0.8,1.1-1.2c0.2-0.2,0.3-0.3,0.5-0.5c0.1-0.2,0.3-0.3,0.4-0.4
				c0.2-0.2,0.4-0.4,0.4-0.4s0.1,0.2,0.2,0.5c0.1,0.2,0.1,0.4,0.1,0.6c0,0.2,0.1,0.5,0,0.8c0,0.3-0.1,0.6-0.2,0.9
				c-0.1,0.3-0.2,0.7-0.3,1c-0.3,0.7-0.7,1.3-1.2,1.9c-0.9,1.1-2.1,2-3.2,2.4c-0.5,0.2-1,0.4-1.3,0.4
				C747.7,570.5,747.5,570.5,747.5,570.5z"/>
		</g>
		<ellipse id="XMLID_11_" class="st14" cx="754.9" cy="548" rx="1.8" ry="7"/>
		<g id="XMLID_20_">
			<path id="XMLID_32_" class="st14" d="M752.1,535.5c0,0,0.7,0.1,1.7,0.5c0.5,0.2,1,0.5,1.6,0.8c0.6,0.3,1.1,0.8,1.7,1.2
				c0.5,0.5,1,1,1.4,1.6c0.4,0.6,0.6,1.1,0.8,1.6c0.1,0.3,0.1,0.5,0.2,0.7c0,0.2,0,0.4,0,0.6c0,0.3,0,0.5,0,0.5s-0.1-0.2-0.2-0.4
				c-0.1-0.1-0.1-0.3-0.2-0.5c-0.1-0.2-0.2-0.4-0.3-0.6c-0.1-0.2-0.3-0.4-0.4-0.7c-0.2-0.2-0.4-0.4-0.5-0.7
				c-0.4-0.5-0.8-0.9-1.3-1.4c-0.5-0.4-1-0.9-1.5-1.2c-0.5-0.4-1-0.7-1.4-1C752.6,535.9,752.1,535.5,752.1,535.5z"/>
		</g>
	</g>
	<g id="XMLID_52_">
		<circle id="XMLID_18_" class="st15" cx="789.6" cy="550.1" r="18.4"/>
		<circle id="XMLID_49_" class="st2" cx="789.2" cy="550.1" r="9.2"/>
		<path id="XMLID_51_" class="st15" d="M796.3,532.9c0,0,0.7-15.5-4.5-21.3l-11.8-3.2c0,0,6.4,13.7,5.4,23.7l8.8,2.8L796.3,532.9z"
			/>
	</g>
	<path id="XMLID_126_" class="st16" d="M622.1,611.8"/>
	<path id="XMLID_128_" class="st17" d="M622.1,611.8l-42.6,21.1c0,0-3.9,6.1-9.6-13.8l-34.2-83.6c0,0-1.8-3.3,1.6-3.9l63.2,0.8
		l27.4,76.5L622.1,611.8z"/>
	<path id="XMLID_127_" class="st18" d="M536,532.1c0,0-7.6,1.5-6,7.1l39,94.6c0,0,1.6,5.8,8,1.5l50.9-26.2l-48.4,23.9
		c0,0-3.4,8.6-16.4-30.5l-27.4-66.9C535.7,535.5,534.7,532.6,536,532.1z"/>
	<polygon id="XMLID_129_" class="st5" points="598,604.4 582,611.8 577.7,602 594.7,596 	"/>
	<polygon id="XMLID_130_" class="st5" points="573.5,590.9 576.7,599.5 594.1,594 591.3,585.6 	"/>
	<polygon id="XMLID_131_" class="st5" points="569,579.6 572.7,588.8 590.5,584.2 586.9,575.5 	"/>
	<polygon id="XMLID_132_" class="st5" points="557.1,548 567.8,576.4 586.1,572.4 576.7,546.9 	"/>
	
		<ellipse id="XMLID_133_" transform="matrix(0.8962 -0.4436 0.4436 0.8962 -196.8893 327.9352)" class="st19" cx="602.5" cy="584.8" rx="7.4" ry="13.1"/>
	
		<ellipse id="XMLID_134_" transform="matrix(0.8962 -0.4436 0.4436 0.8962 -196.0677 327.2149)" class="st20" cx="601.4" cy="582.7" rx="1.8" ry="3.2"/>
	
		<ellipse id="XMLID_135_" transform="matrix(0.8962 -0.4436 0.4436 0.8962 -185.8547 319.4753)" class="st21" cx="589.9" cy="557" rx="3.8" ry="7"/>
	
		<ellipse id="XMLID_136_" transform="matrix(0.8962 -0.4436 0.4436 0.8962 -187.1764 324.127)" class="st22" cx="599.2" cy="562.1" rx="2.7" ry="5.1"/>
	<path id="XMLID_137_" class="st23" d="M616.3,594.2c-6.3-2.4-14.9-10.6-14.9-10.6c-1-2.1,2.6-2,2.6-2c8.1,7.5,27.2,14.8,27.2,14.8
		c3.4,1.8,2.8,17.3,2.8,17.3c2.1,3.7,12.7,11.7,12.7,11.7l-0.3,13.7c0,0-18.5-11-23.9-21.4l0.4-11.4c0,0-7.9-5.2-7.9-3l0.3,9
		c0,0-1.4,2.7-2.6-1.5c0,0-3-9-0.6-12.8L616.3,594.2z"/>
	<path id="XMLID_139_" class="st24" d="M616.5,602.9c1,8,3.6,7.1,3.6,7.1c-0.6-1.2,0-5.4,0-5.4L616.5,602.9z"/>
	<g id="XMLID_140_">
		<path id="XMLID_148_" class="st25" d="M614.4,597.9c0,0,0.6,0,1.5,0.1c0.9,0.1,2.1,0.4,3.2,0.8c0.6,0.2,1.1,0.5,1.6,0.7
			c0.5,0.3,0.9,0.6,1.3,0.8c0.2,0.1,0.3,0.3,0.5,0.4c0.1,0.1,0.2,0.2,0.3,0.4c0.2,0.2,0.2,0.3,0.2,0.3s-0.1-0.1-0.4-0.2
			c-0.1-0.1-0.3-0.1-0.4-0.2c-0.2-0.1-0.3-0.2-0.5-0.2c-0.8-0.3-1.9-0.7-2.9-1.1c-1.1-0.4-2.2-0.8-3-1.2
			C614.9,598.2,614.4,597.9,614.4,597.9z"/>
	</g>
	<g id="XMLID_138_">
		<path id="XMLID_146_" class="st25" d="M624.2,604.6c-0.2-0.3-0.3-0.6-0.3-1c0-0.2,0-0.4,0-0.6c0-0.2,0.1-0.4,0.3-0.5
			c0.1-0.2,0.3-0.3,0.5-0.3c0.2-0.1,0.4-0.1,0.6-0.1c0.4,0,0.7,0.1,1.1,0.2l-0.5,0.5c-0.1-0.3-0.2-0.6-0.2-1c0-0.3-0.1-0.7,0-1
			c0-0.4,0.1-0.7,0.3-1.1c0.1-0.2,0.3-0.4,0.5-0.5c0.1,0,0.2-0.1,0.3-0.1l0.3-0.1l-0.4,0.6c0-0.1,0-0.2,0-0.4c0-0.1,0-0.3,0.2-0.5
			c0.1-0.1,0.2-0.2,0.3-0.2c0.1-0.1,0.2-0.1,0.3-0.1c0.2,0,0.3,0,0.4,0.1c0.2,0.1,0.4,0.2,0.5,0.3c0.2,0.1,0.3,0.2,0.4,0.3l-0.7,0.3
			c0-0.7,0.1-1.4,0.1-2.1l0-0.1l0,0c0.1-0.2,0.1-0.2,0.2-0.3c0.1-0.1,0.2-0.2,0.3-0.2c0.2-0.1,0.5-0.2,0.7-0.2
			c0.5,0,0.9,0.3,1.2,0.5c-0.4-0.1-0.8-0.2-1.2-0.2c-0.2,0-0.3,0.1-0.5,0.2c-0.1,0.1-0.1,0.1-0.2,0.2c0,0.1-0.1,0.2-0.1,0.2l0-0.1
			c0.1,0.7,0.1,1.4,0.1,2.1l0,0.9l-0.8-0.5c-0.1-0.1-0.2-0.2-0.4-0.2c-0.1-0.1-0.2-0.1-0.3-0.2c0,0-0.1,0,0,0c0,0,0,0,0.1,0
			c0,0,0.1-0.1,0.1-0.1c0-0.1,0,0,0,0c0,0,0,0.1,0,0.1l0.1,0.4l-0.5,0.2c0,0-0.1,0-0.1,0c0,0-0.1,0-0.1,0c-0.1,0-0.1,0.1-0.2,0.2
			c-0.1,0.2-0.2,0.4-0.2,0.7c-0.1,0.5,0,1.1,0.1,1.7l0.1,0.7l-0.7-0.3c-0.3-0.1-0.6-0.2-0.9-0.3c-0.1,0-0.3,0-0.4,0
			c-0.1,0-0.2,0.1-0.3,0.1c-0.2,0.1-0.3,0.4-0.4,0.7C624.1,603.9,624.1,604.3,624.2,604.6z"/>
	</g>
	<g id="XMLID_142_">
		<path id="XMLID_144_" class="st25" d="M617.1,595c0,0,0.4-0.1,1-0.1c0.6,0,1.4,0,2.1,0.2c0.8,0.2,1.5,0.5,2,0.8
			c0.3,0.2,0.5,0.4,0.6,0.5c0.1,0.2,0.1,0.3,0.1,0.3s-0.1,0-0.2-0.1c-0.2,0-0.4-0.1-0.7-0.1c-0.6-0.1-1.3-0.2-2-0.4
			c-0.7-0.2-1.5-0.4-2-0.6C617.5,595.3,617.1,595,617.1,595z"/>
	</g>
	<g id="XMLID_143_">
		<path id="XMLID_65_" class="st25" d="M620.1,594.1c0,0,0.2-0.2,0.7-0.4c0.4-0.2,1.1-0.3,1.7-0.2c0.3,0,0.6,0.1,0.9,0.3
			c0.3,0.2,0.5,0.3,0.7,0.5c0.3,0.4,0.3,0.8,0.3,0.8c0,0-0.1,0-0.2-0.1c-0.1-0.1-0.3-0.1-0.5-0.2c-0.2-0.1-0.4-0.1-0.6-0.2
			c-0.2,0-0.5-0.1-0.7-0.1c-0.3,0-0.5-0.1-0.8-0.1c-0.3,0-0.5-0.1-0.7-0.1C620.4,594.2,620.1,594.1,620.1,594.1z"/>
	</g>
	<g id="XMLID_141_">
		<path id="XMLID_63_" class="st25" d="M616.5,596.7c0,0,0.4-0.1,1-0.1c0.6,0,1.4,0,2.1,0.2c0.8,0.2,1.5,0.5,2,0.8
			c0.3,0.2,0.5,0.4,0.6,0.5c0.1,0.2,0.1,0.3,0.1,0.3s-0.1,0-0.2-0.1c-0.2,0-0.4-0.1-0.7-0.1c-0.6-0.1-1.3-0.2-2-0.4
			c-0.7-0.2-1.5-0.4-2-0.6C616.9,596.9,616.5,596.7,616.5,596.7z"/>
	</g>
	<polygon id="XMLID_198_" class="st26" points="333.6,562.4 323.1,561.4 317.6,540.9 334,542.5 	"/>
	<polygon id="XMLID_199_" class="st27" points="329,542 329,562 333.6,562.4 334,542.5 	"/>
	<path id="XMLID_201_" d="M317,537.8l6.7,25.8l-23-3.2l5.2-5.7l-1.1-1.5h-6.3l-13-27.4c0,0,0.4-3.6,4.7,0
		C290.2,525.9,296.4,538.7,317,537.8z"/>
	<path id="XMLID_200_" class="st28" d="M317.4,645.6l-13.2,0.9l-11.6-18.2l21.6-2C314.1,626.3,316.3,644.2,317.4,645.6z"/>
	<polygon id="XMLID_202_" class="st29" points="308.7,626.8 311.1,646 317.4,645.6 314.1,626.3 	"/>
	<path id="XMLID_204_" d="M305,648.2l-13.1-21.4h-19.7l-9.7-6.9c0,0-7.6-2.9-4.7,3.3l17,19.6l11.4-0.4l0.6,1.2L280,649l0.6,1.4
		L305,648.2z"/>
</g>
<line id="XMLID_19_" class="st30" x1="541.7" y1="379.7" x2="553.6" y2="375"/>
<line id="XMLID_22_" class="st30" x1="553.6" y1="375" x2="564.7" y2="380.6"/>
<line id="XMLID_23_" class="st30" x1="564.7" y1="380.6" x2="575.3" y2="376.1"/>
<line id="XMLID_24_" class="st30" x1="575.3" y1="376.1" x2="583.1" y2="377.4"/>
<line id="XMLID_25_" class="st30" x1="583.1" y1="377.4" x2="586.7" y2="385"/>
<line id="XMLID_26_" class="st30" x1="586.7" y1="385" x2="595.2" y2="373.3"/>
<line id="XMLID_34_" class="st30" x1="595.2" y1="373.3" x2="602.1" y2="378.4"/>
<line id="XMLID_38_" class="st30" x1="602.1" y1="378.4" x2="609.7" y2="374.3"/>
<path id="XMLID_183_" class="st31" d="M598.3,403.1l-8.3-2.3c-0.7-0.2-1.1-0.9-0.9-1.7l0-0.1c0.2-0.7,0.9-1.1,1.7-0.9l8.3,2.3
	c0.7,0.2,1.1,0.9,0.9,1.7l0,0.1C599.7,402.9,599,403.3,598.3,403.1z"/>
<path id="XMLID_252_" class="st32" d="M610,406.3l-8.3-2.3c-0.7-0.2-1.1-0.9-0.9-1.7l0-0.1c0.2-0.7,0.9-1.1,1.7-0.9l8.3,2.3
	c0.7,0.2,1.1,0.9,0.9,1.7l0,0.1C611.4,406.1,610.7,406.5,610,406.3z"/>
<path id="XMLID_265_" class="st31" d="M597.7,453.3l-8.5-1.5c-0.7-0.1-1.2-0.8-1.1-1.6l0-0.1c0.1-0.7,0.8-1.2,1.6-1.1l8.5,1.5
	c0.7,0.1,1.2,0.8,1.1,1.6l0,0.1C599.1,452.9,598.4,453.4,597.7,453.3z"/>
<path id="XMLID_264_" class="st32" d="M609.6,455.5l-8.5-1.5c-0.7-0.1-1.2-0.8-1.1-1.6l0-0.1c0.1-0.7,0.8-1.2,1.6-1.1l8.5,1.5
	c0.7,0.1,1.2,0.8,1.1,1.6l0,0.1C611,455.1,610.3,455.6,609.6,455.5z"/>
<path id="XMLID_275_" class="st31" d="M598.4,502.5l-8.6-1c-0.7-0.1-1.3-0.8-1.2-1.5l0-0.1c0.1-0.7,0.8-1.3,1.5-1.2l8.6,1
	c0.7,0.1,1.3,0.8,1.2,1.5l0,0.1C599.8,502,599.2,502.6,598.4,502.5z"/>
<path id="XMLID_274_" class="st32" d="M610.5,503.9l-8.6-1c-0.7-0.1-1.3-0.8-1.2-1.5l0-0.1c0.1-0.7,0.8-1.3,1.5-1.2l8.6,1
	c0.7,0.1,1.3,0.8,1.2,1.5l0,0.1C611.9,503.4,611.2,504,610.5,503.9z"/>
<line id="XMLID_251_" class="st33" x1="540" y1="403.8" x2="552.5" y2="415.7"/>
<line id="XMLID_253_" class="st33" x1="552.5" y1="415.7" x2="562" y2="415.7"/>
<line id="XMLID_254_" class="st33" x1="562" y1="415.7" x2="564.7" y2="422.6"/>
<line id="XMLID_255_" class="st33" x1="564.7" y1="422.6" x2="567" y2="427.8"/>
<line id="XMLID_256_" class="st33" x1="567" y1="427.8" x2="575.3" y2="426.3"/>
<line id="XMLID_257_" class="st33" x1="575.3" y1="426.3" x2="581.3" y2="430.5"/>
<line id="XMLID_258_" class="st33" x1="581.3" y1="430.5" x2="589" y2="435.9"/>
<line id="XMLID_259_" class="st33" x1="589" y1="435.9" x2="589" y2="438.9"/>
<line id="XMLID_260_" class="st33" x1="589" y1="438.9" x2="596.5" y2="442.6"/>
<line id="XMLID_261_" class="st33" x1="596.5" y1="442.6" x2="603.9" y2="440.8"/>
<line id="XMLID_262_" class="st33" x1="603.9" y1="440.8" x2="608.2" y2="446.5"/>
<line id="XMLID_272_" class="st30" x1="540" y1="482.6" x2="551.8" y2="478"/>
<line id="XMLID_271_" class="st30" x1="551.8" y1="478" x2="563" y2="483.6"/>
<line id="XMLID_270_" class="st30" x1="563" y1="483.6" x2="573.6" y2="479.1"/>
<line id="XMLID_269_" class="st30" x1="573.6" y1="479.1" x2="581.4" y2="480.3"/>
<line id="XMLID_268_" class="st30" x1="581.4" y1="480.3" x2="584.9" y2="488"/>
<line id="XMLID_267_" class="st30" x1="584.9" y1="488" x2="593.4" y2="476.3"/>
<line id="XMLID_266_" class="st30" x1="593.4" y1="476.3" x2="600.3" y2="481.3"/>
<line id="XMLID_263_" class="st30" x1="600.3" y1="481.3" x2="607.9" y2="477.3"/>
</svg>
