<?xml version="1.0" encoding="utf-8"?>
<!-- Generator: Adobe Illustrator 19.0.0, SVG Export Plug-In . SVG Version: 6.00 Build 0)  -->
<svg version="1.1" id="Layer_1" xmlns="http://www.w3.org/2000/svg" xmlns:xlink="http://www.w3.org/1999/xlink" x="0px" y="0px"
	 viewBox="0 0 1000 1000" style="enable-background:new 0 0 1000 1000;" xml:space="preserve">
<style type="text/css">
	.st0{fill:#9F60A7;}
	.st1{fill:#954C9D;}
	.st2{fill:none;stroke:#5B489D;stroke-width:5;stroke-miterlimit:10;}
	.st3{fill:#A3DDF8;}
	.st4{fill:#9D73B2;}
	.st5{fill:#8ED0F3;}
	.st6{fill:#9CD5F4;}
	.st7{fill:#5B489D;}
	.st8{fill:#7459A6;}
	.st9{fill:#945FA7;}
	.st10{fill:#9397CB;}
	.st11{fill:#654FA1;}
	.st12{fill:#8C57A3;}
	.st13{fill:#402B80;}
	.st14{fill:#97AFDB;}
	.st15{fill:#DD8A43;}
	.st16{fill:#FAA749;}
</style>
<ellipse id="XMLID_92_" class="st0" cx="774.4" cy="417.3" rx="3.3" ry="4.3"/>
<ellipse id="XMLID_90_" class="st0" cx="771.1" cy="422.3" rx="3.3" ry="4.3"/>
<ellipse id="XMLID_2_" class="st1" cx="523" cy="542.1" rx="29.2" ry="18.2"/>
<g id="XMLID_5_">
	<g id="XMLID_128_">
		<line id="XMLID_131_" class="st2" x1="119.1" y1="928.8" x2="354.9" y2="809.3"/>
		<path id="XMLID_130_" class="st2" d="M691.3,809.3l107.1,53.6c0,0,17.6,11.1-2.6,22.2l-83.6,41.1c0,0-23.5,10.5,12.4,27.4
			L818,1000"/>
		<path id="XMLID_129_" class="st2" d="M272.6,684.5l-62.7,30.7c0,0-17.6,11.1,3.3,22.2l290.7,146.3c0,0,17.6,10.5,41.8-3.3
			l285.4-139.8c0,0,14.4-7.3,10.8-13.6c0,0-2.3-6.9-14.2-12.4l-50.1-26.9"/>
	</g>
</g>
<path id="XMLID_7_" class="st1" d="M552.2,536.7v299.3l-5.9,4.4c-21.1,16.7-52.9-3.4-52.9-3.4L283.7,727.3c0,0-14.2-7.3-12.7-19.6
	l-0.1-292.5c0,0,13.3,14.2,34.9,24l189.6,95.5C495.3,534.8,526.2,556.3,552.2,536.7z"/>
<path id="XMLID_8_" class="st3" d="M461.8,769.4l0.2-201.3c0,0,3.4-7.3-9.1-12.5l-146.7-73.7c0,0-10.3-6.6-10,8.6l0,197.2
	c0,0-1.9,11.2,25.5,21.2l127.6,62.9C449.3,771.7,459.9,779.6,461.8,769.4z"/>
<path id="XMLID_6_" class="st4" d="M315.3,680.5l-0.7-194.4c0,0-17.6-13.1-18.3,1.5l-0.1,200c0,0,0.7,12.6,25.5,21.2l127.6,62.9
	c0,0,11.1,7.3,12.5-2.3v-6.5L327,692.5C327,692.5,315.3,688.6,315.3,680.5z"/>
<circle id="XMLID_9_" class="st5" cx="425" cy="601.9" r="22.8"/>
<circle id="XMLID_10_" class="st6" cx="356.3" cy="649" r="19.3"/>
<path id="XMLID_12_" class="st7" d="M775.4,404.5c6.7,15.8-7.2,20.1-7.2,20.1l-216,112.2v299.3l214.2-103.9c0,0,13.4-8.8,14.4-25.5
	l2.6-275v-12.6c0,0-2.4-11.3-3.7-12C778.4,406.4,775.4,404.5,775.4,404.5z"/>
<path id="XMLID_13_" class="st0" d="M283.7,397.1c-12.2,5.9-12.8,18.1-12.8,18.1s0.9,10.3,77.1,45.3l147.3,74.2
	c0,0,31.8,18.6,56.8,2l216-112.2c0,0,14.4-6.9,7.2-20.1L547.3,288.4c0,0-25-13.7-63.7,7.8L283.7,397.1z"/>
<path id="XMLID_14_" class="st7" d="M334.2,418.7l167,86.7c0,0,24.5,13.7,45.6,0l164.6-83.3c0,0,18.1-7.8,2-17.6L559,326.6
	c0,0-36.7-21.1-66.1,0l-142.6,71.5C350.3,398.1,319.8,411.2,334.2,418.7z"/>
<path id="XMLID_15_" class="st8" d="M768.2,612.7v67.8c0,0,2.9,8.6-18.1,18.9l-133,66.4c0,0-21.8,13-20.8-5.1l0-60.7
	c0,0-0.9-10.3,18.9-17.6l138.6-69.6C753.7,612.7,765.3,605.1,768.2,612.7z"/>
<path id="XMLID_11_" class="st9" d="M768.2,612.7c-4.2-12-31.1-18.9-31.1-18.9L583,671.7c-15.2,4.7-13,26.2-13,26.2l1.5,61.5
	l29.6,10.6c0,0-5.7-3.3-4.9-7.1l-0.1-63.1c0,0,0.5-10.7,16.5-16.7l141-70.5c0,0,8-4.8,12-2.8L768.2,612.7z"/>
<polygon id="XMLID_16_" class="st10" points="611.9,732.7 613.4,746.9 753.3,677.3 753.3,663.4 "/>
<polygon id="XMLID_17_" class="st10" points="609.7,703.8 611.9,718.5 751.5,648.4 751.5,634.2 "/>
<path id="XMLID_20_" class="st11" d="M598.2,669.5L761,590.3c0,0,8.7-7.5,6.4-20.1l0.4-60.1c0,0-1.9-10.5-16.2-2.8l-141.8,71.5
	c0,0-14.7,4.6-13.5,17.3V665C596.2,665,595,671.1,598.2,669.5z"/>
<path id="XMLID_18_" class="st12" d="M596.2,668.9l-17.8-9.7c0,0-8.1-2.7-7.3-12.5l-1.1-54.6c0,0-3.8-18.6,11.1-25l142.3-71.3
	c0,0,27.3-9.9,41,9.6l-6.2-0.6l-148.4,74.1c0,0-17.2,4.2-13.7,26.7L596.2,668.9z"/>
<polygon id="XMLID_32_" class="st13" points="611.1,627.6 612.5,641.8 752.4,572.2 752.4,558.3 "/>
<polygon id="XMLID_31_" class="st14" points="608.9,598.7 611.1,613.4 750.7,543.3 750.7,529.1 "/>
<ellipse id="XMLID_19_" class="st4" cx="299.5" cy="688.8" rx="3.3" ry="4.3"/>
<ellipse id="XMLID_21_" class="st4" cx="300.2" cy="690.5" rx="3.3" ry="4.3"/>
<ellipse id="XMLID_24_" class="st4" cx="301.4" cy="692" rx="3.3" ry="4.3"/>
<ellipse id="XMLID_27_" class="st4" cx="302.8" cy="693.6" rx="3.3" ry="4.3"/>
<ellipse id="XMLID_84_" class="st4" cx="302.2" cy="693.1" rx="3.3" ry="4.3"/>
<ellipse id="XMLID_87_" class="st4" cx="304.3" cy="695.2" rx="3.3" ry="4.3"/>
<g id="XMLID_94_">
	
		<ellipse id="XMLID_37_" transform="matrix(0.9955 -9.484364e-002 9.484364e-002 0.9955 -8.8787 42.5454)" class="st15" cx="443.1" cy="114.7" rx="32.1" ry="36.7"/>
	
		<ellipse id="XMLID_36_" transform="matrix(0.9955 -9.484364e-002 9.484364e-002 0.9955 -22.9273 38.411)" class="st15" cx="392.6" cy="260.4" rx="18.9" ry="21.5"/>
	
		<ellipse id="XMLID_33_" transform="matrix(0.9955 -9.484364e-002 9.484364e-002 0.9955 -22.0458 63.7945)" class="st15" cx="660.1" cy="263.8" rx="24.8" ry="28.3"/>
	
		<ellipse id="XMLID_39_" transform="matrix(0.9955 -9.484364e-002 9.484364e-002 0.9955 -16.5672 53.3656)" class="st15" cx="553.1" cy="201" rx="18.9" ry="21.5"/>
	
		<ellipse id="XMLID_34_" transform="matrix(0.9955 -9.484364e-002 9.484364e-002 0.9955 -0.7888 59.9129)" class="st15" cx="629.9" cy="38.3" rx="32.1" ry="36.7"/>
	
		<ellipse id="XMLID_38_" transform="matrix(0.9955 -9.484364e-002 9.484364e-002 0.9955 -8.9805 41.9923)" class="st16" cx="437.3" cy="115.5" rx="26.2" ry="33.1"/>
	
		<ellipse id="XMLID_63_" transform="matrix(0.9955 -9.484364e-002 9.484364e-002 0.9955 -22.9871 38.0862)" class="st16" cx="389.2" cy="260.9" rx="15.4" ry="19.5"/>
	
		<ellipse id="XMLID_64_" transform="matrix(0.9955 -9.484364e-002 9.484364e-002 0.9955 -28.144 51.1867)" class="st15" cx="524.4" cy="321.7" rx="28.6" ry="32.7"/>
	
		<ellipse id="XMLID_66_" transform="matrix(0.9955 -9.484364e-002 9.484364e-002 0.9955 -34.9553 43.0576)" class="st15" cx="435.5" cy="389.3" rx="23.9" ry="27.3"/>
	
		<ellipse id="XMLID_68_" transform="matrix(0.9955 -9.484364e-002 9.484364e-002 0.9955 -40.1706 52.3308)" class="st15" cx="530.4" cy="448.8" rx="19.5" ry="22.2"/>
	
		<ellipse id="XMLID_70_" transform="matrix(0.9955 -9.484364e-002 9.484364e-002 0.9955 -33.3894 61.4327)" class="st15" cx="629.6" cy="382" rx="17.4" ry="19.8"/>
	
		<ellipse id="XMLID_67_" transform="matrix(0.9955 -9.484364e-002 9.484364e-002 0.9955 -35.0311 42.6457)" class="st16" cx="431.1" cy="389.8" rx="19.5" ry="24.7"/>
	
		<ellipse id="XMLID_69_" transform="matrix(0.9955 -9.484364e-002 9.484364e-002 0.9955 -40.2322 51.9955)" class="st16" cx="526.9" cy="449.2" rx="15.9" ry="20.1"/>
	
		<ellipse id="XMLID_65_" transform="matrix(0.9955 -9.484364e-002 9.484364e-002 0.9955 -28.2346 50.6942)" class="st16" cx="519.2" cy="322.4" rx="23.4" ry="29.5"/>
	
		<ellipse id="XMLID_71_" transform="matrix(0.9955 -9.484364e-002 9.484364e-002 0.9955 -33.4443 61.1339)" class="st16" cx="626.4" cy="382.4" rx="14.2" ry="17.9"/>
	
		<ellipse id="XMLID_30_" transform="matrix(0.9955 -9.484364e-002 9.484364e-002 0.9955 -22.1244 63.3672)" class="st16" cx="655.6" cy="264.4" rx="20.3" ry="25.6"/>
	
		<ellipse id="XMLID_61_" transform="matrix(0.9955 -9.484364e-002 9.484364e-002 0.9955 -16.6269 53.0408)" class="st16" cx="549.7" cy="201.4" rx="15.4" ry="19.5"/>
	
		<ellipse id="XMLID_35_" transform="matrix(0.9955 -9.484364e-002 9.484364e-002 0.9955 -0.8906 59.3598)" class="st16" cx="624" cy="39" rx="26.2" ry="33.1"/>
</g>
</svg>
