<?xml version="1.0" encoding="utf-8"?>
<!-- Generator: Adobe Illustrator 19.0.0, SVG Export Plug-In . SVG Version: 6.00 Build 0)  -->
<svg version="1.1" id="Layer_1" xmlns="http://www.w3.org/2000/svg" xmlns:xlink="http://www.w3.org/1999/xlink" x="0px" y="0px"
	 viewBox="0 0 3000 1000" style="enable-background:new 0 0 3000 1000;" xml:space="preserve">
<style type="text/css">
	.st0{fill:url(#XMLID_15_);}
	.st1{fill:url(#XMLID_17_);}
</style>
<linearGradient id="XMLID_15_" gradientUnits="userSpaceOnUse" x1="225.5782" y1="689.0375" x2="332.8136" y2="290.3579" gradientTransform="matrix(1 0 0 -1 0 1002)">
	<stop  offset="0" style="stop-color:#F69177"/>
	<stop  offset="0.4034" style="stop-color:#ED386D"/>
	<stop  offset="0.9688" style="stop-color:#B64C9C"/>
</linearGradient>
<path id="XMLID_7_" class="st0" d="M65.3,524.2V375.5c0-127,104.5-230,231.5-230c128.7,0,234.6,104.3,234.6,233.1
	S427.1,611.6,298.4,611.6H152.7v203.9c0,16.1-13,29.1-29.1,29.1H94.5c-16.1,0-29.1-13-29.1-29.1V611.6H50.8
	c-24.1,0-43.7-19.6-43.7-43.7s19.6-43.7,43.7-43.7H65.3z M298.4,232.9c-80.4,0-145.7,65.2-145.7,145.7v145.7h145.7
	c80.4,0,145.7-65.2,145.7-145.7S378.8,232.9,298.4,232.9z"/>
<linearGradient id="XMLID_17_" gradientUnits="userSpaceOnUse" x1="109.0391" y1="390.3896" x2="109.0391" y2="332.1269" gradientTransform="matrix(1 0 0 -1 0 1002)">
	<stop  offset="0" style="stop-color:#010101;stop-opacity:0.26"/>
	<stop  offset="1" style="stop-color:#010101;stop-opacity:0"/>
</linearGradient>
<path id="XMLID_1_" class="st1" d="M65.3,611.6h87.4v58.3H65.3V611.6z"/>
<path id="XMLID_16_" d="M900.1,759.4c-9.5,0-18.2-3.6-26.2-10.9c-8-6.5-12-14.5-12-24V372.3c0-19.6,6.2-34.5,18.5-44.7
	c12.4-10.2,26.2-15.3,41.4-15.3h115.6c24.7,0,47.6,5.1,68.7,15.3c21.8,9.5,39.3,23.6,52.3,42.5c13.1,18.9,19.6,42.2,19.6,69.8
	c0,42.9-13.8,77.1-41.4,102.5c-26.9,25.4-59.6,38.2-98.1,38.2h-73.1c-18.2,0-27.3,10.9-27.3,32.7v111.2c0,9.5-4,17.4-12,24
	C919,755.8,910.2,759.4,900.1,759.4z M960,515.1h66.5c18.2,0,35.6-5.5,52.3-16.4c17.4-10.9,26.2-29.8,26.2-56.7
	c0-21.1-8-36.7-24-46.9c-15.3-10.9-32-16.4-50.2-16.4h-67.6c-18.2,0-27.3,8.7-27.3,26.2v80.7C936.1,505.3,944.1,515.1,960,515.1z
	 M1301.3,759.4c-9.5,0-17.8-3.3-25.1-9.8c-7.3-6.5-10.9-15.3-10.9-26.2c0-3.6,0.7-8.4,2.2-14.2l136.3-369.7
	c5.1-12.4,12.7-21.8,22.9-28.4c10.2-6.5,21.1-9.8,32.7-9.8c11.6,0,22.5,3.3,32.7,9.8c10.9,6.5,18.9,16,24,28.4l145,369.7
	c1.5,5.8,2.2,10.5,2.2,14.2c0,10.9-3.6,19.6-10.9,26.2c-7.3,6.5-15.6,9.8-25.1,9.8c-6.5,0-13.5-1.8-20.7-5.5
	c-6.5-2.9-11.6-8-15.3-15.3l-36-96c-0.7-4.4-3.6-6.5-8.7-6.5h-166.8c-5.1,0-8.4,2.2-9.8,6.5l-32.7,96c-3.6,7.3-9.1,12.4-16.4,15.3
	C1314.4,757.6,1307.9,759.4,1301.3,759.4z M1412.6,570.8h98.1c4.4,0,7.6-1.5,9.8-4.4c2.9-3.6,3.6-8,2.2-13.1l-52.3-149.4
	c-2.2-7.3-5.5-10.9-9.8-10.9c-5.1,0-8.7,3.6-10.9,10.9l-49.1,150.5c-1.5,4.4-1.1,8.4,1.1,12C1404.6,569.3,1408.2,570.8,1412.6,570.8
	z M1838.2,759.4c-9.5,0-18.2-3.6-26.2-10.9c-8-6.5-12-14.5-12-24V372.3c0-19.6,6.2-34.5,18.5-44.7c12.4-10.2,26.2-15.3,41.4-15.3
	h115.6c24.7,0,47.6,5.1,68.7,15.3c21.8,9.5,39.3,23.6,52.3,42.5c13.1,18.9,19.6,42.2,19.6,69.8c0,42.9-13.8,77.1-41.4,102.5
	c-26.9,25.4-59.6,38.2-98.1,38.2h-73.1c-18.2,0-27.3,10.9-27.3,32.7v111.2c0,9.5-4,17.4-12,24
	C1857.1,755.8,1848.3,759.4,1838.2,759.4z M1898.1,515.1h66.5c18.2,0,35.6-5.5,52.3-16.4c17.4-10.9,26.2-29.8,26.2-56.7
	c0-21.1-8-36.7-24-46.9c-15.3-10.9-32-16.4-50.2-16.4h-67.6c-18.2,0-27.3,8.7-27.3,26.2v80.7
	C1874.1,505.3,1882.1,515.1,1898.1,515.1z M2318.4,748.5c-18.2,0-32.7-5.5-43.6-16.4s-16.4-25.4-16.4-43.6V369
	c0-16.7,5.5-30.2,16.4-40.3c11.6-10.9,25.1-16.4,40.3-16.4h164.7c12.4,0,21.1,3.3,26.2,9.8c5.8,5.8,8.7,13.4,8.7,22.9
	c0,8.7-3.3,16.4-9.8,22.9c-5.8,6.5-14.2,9.8-25.1,9.8h-116.7c-18.9,0-28.4,9.5-28.4,28.4v60c0,18.9,8.7,28.4,26.2,28.4h108
	c12.4,0,21.1,3.3,26.2,9.8c5.8,6.5,8.7,14.2,8.7,22.9c0,8-3.3,15.6-9.8,22.9c-5.8,6.5-14.2,9.8-25.1,9.8h-108
	c-17.4,0-26.2,9.1-26.2,27.3v66.5c0,18.9,9.1,28.4,27.3,28.4h128.7c12.4,0,21.1,3.6,26.2,10.9c5.8,6.5,8.7,14.2,8.7,22.9
	s-3.3,16.4-9.8,22.9c-5.8,6.5-14.2,9.8-25.1,9.8H2318.4z M2710.2,759.4c-9.5,0-18.2-3.6-26.2-10.9c-7.3-6.5-10.9-14.5-10.9-24V372.3
	c0-19.6,6.5-34.5,19.6-44.7c13.8-10.2,28.4-15.3,43.6-15.3h106.9c24.7,0,47.6,5.5,68.7,16.4c21.8,10.2,39.3,25.1,52.3,44.7
	c13.1,18.9,19.6,41.8,19.6,68.7c0,25.4-7.6,49.8-22.9,73.1c-14.5,22.5-33.4,37.8-56.7,45.8c10.2,4.4,19.6,11.6,28.4,21.8
	c9.5,9.5,17.8,22.2,25.1,38.2l39.3,88.3c2.2,4.4,3.3,9.1,3.3,14.2c0,13.1-4.4,22.5-13.1,28.4c-8,5.8-16.4,8.7-25.1,8.7
	c-14.5,0-24.7-6.9-30.5-20.7l-44.7-104.7c-9.4-21.1-21.4-35.6-36-43.6c-14.5-8-30.5-12-48-12h-27.3c-18.9,0-28.4,10.9-28.4,32.7
	v112.3c0,9.5-3.6,17.4-10.9,24C2729.1,755.8,2720.4,759.4,2710.2,759.4z M2771.3,514.1h61.1c18.2,0,35.6-5.8,52.3-17.4
	c17.4-12.4,26.2-29.8,26.2-52.3c0-21.8-8-38.2-24-49.1c-15.3-10.9-32-16.4-50.2-16.4h-62.2c-18.2,0-27.3,9.1-27.3,27.3V489
	C2747.3,505.7,2755.3,514.1,2771.3,514.1z"/>
</svg>
