<?xml version="1.0" encoding="utf-8"?>
<!-- Generator: Adobe Illustrator 19.0.0, SVG Export Plug-In . SVG Version: 6.00 Build 0)  -->
<svg version="1.1" id="Layer_1" xmlns="http://www.w3.org/2000/svg" xmlns:xlink="http://www.w3.org/1999/xlink" x="0px" y="0px"
	 viewBox="0 0 2000 1000" style="enable-background:new 0 0 2000 1000;" xml:space="preserve">
<style type="text/css">
	.st0{fill:#010101;}
</style>
<g id="XMLID_7_">
	<path id="XMLID_6_" class="st0" d="M223,476.9v291l36.9-1.6l36.4-1.6l1.6-256.8l1.1-256.2h98.3c78.7,0,102.1,1.6,116.2,8.7
		c63,29.9,47.2,128.7-26.1,165.6c-11.4,6-38.5,15.7-59.7,21.2l-39.1,9.8v26.1c0,25.5,3.3,30.9,91.7,155.3l92.3,129.2h47.8
		c26.1,0,47.8-1.6,47.8-3.3s-44-63.5-97.7-136.8l-97.2-133.5l34.2-14.1c84.1-35.8,124.3-84.7,124.9-152
		c0.5-63.5-22.3-102.1-73.8-125.4c-27.7-12.5-34.2-13-181.9-14.7L223,185.9V476.9z"/>
	<path id="XMLID_5_" class="st0" d="M1211,221.8V257h38h38v-35.3v-35.3h-38h-38V221.8z"/>
	<path id="XMLID_11_" class="st0" d="M816.9,346.1c-64.1,12.5-61.9,10.9-61.9,45.1c0,28.2,0.5,29.9,12.5,27.1
		c48.9-11.9,86.3-15.7,132.5-13.6c80.3,2.7,104.8,22.8,104.8,83.1v22.8l-76-2.7c-89.6-3.3-131.9,5.4-165.6,33.1
		c-58.6,48.3-54.3,159.6,8.1,200.3c57.5,36.9,159.1,30.4,238.9-15.7c1.6-1.1,8.1,8.1,15.2,20.1c10.9,19.5,14.1,21.7,34.2,21.7h21.7
		l-1.6-167.2c-1.6-151.5-2.7-168.8-11.9-187.8c-13-25.5-45.1-49.4-81.4-60.3C947.2,340.1,863.6,337.4,816.9,346.1z M1000.4,575.2
		c2.2,1.6,4.3,22.3,4.3,45.6c0,42.3,0,42.9-17.4,53.2c-30.9,19-78.2,29.3-119.4,27.1c-34.7-1.6-39.6-3.8-53.7-19.5
		c-20.6-22.8-22.3-63.5-3.3-85.2c21.2-24.4,47.8-30.4,120-27.1C966.7,570.8,997.7,573.5,1000.4,575.2z"/>
	<path id="XMLID_2_" class="st0" d="M1211,552.9v215l36.9-1.6l36.4-1.6V552.9V341.2l-36.4-1.6l-36.9-1.6V552.9z"/>
	<path id="XMLID_1_" class="st0" d="M1413,551.3l1.6,213.4l36.9,1.6l36.4,1.6V613.2V458.4l20.6-16.3c60.3-49.9,156.4-49.9,184,0.5
		c8.7,15.7,9.8,35.3,11.4,171l1.6,153.6h38h38l-1.6-161.8c-1.6-150.4-2.2-162.9-13-185.7c-26.1-55.9-66.8-78.2-143.3-78.2
		c-44.5,0-55.9,1.6-83.1,14.7c-17.4,7.6-38.5,19-47.2,25.5l-15.2,10.9l-6.5-27.1l-6.5-27.1h-26.6h-26.6L1413,551.3z"/>
</g>
</svg>
