<?xml version="1.0" encoding="utf-8"?>
<!-- Generator: Adobe Illustrator 19.0.0, SVG Export Plug-In . SVG Version: 6.00 Build 0)  -->
<svg version="1.1" id="Layer_1" xmlns="http://www.w3.org/2000/svg" xmlns:xlink="http://www.w3.org/1999/xlink" x="0px" y="0px"
	 viewBox="0 0 1000 1000" style="enable-background:new 0 0 1000 1000;" xml:space="preserve">
<style type="text/css">
	.st0{fill:#CDCCCC;}
	.st1{fill:url(#XMLID_12_);}
	.st2{fill:url(#XMLID_13_);}
	.st3{fill:url(#XMLID_14_);}
	.st4{fill:url(#XMLID_15_);}
	.st5{fill:#403E56;}
</style>
<path id="XMLID_10_" class="st0" d="M513.1,109c-0.1,0-0.2,0-0.3,0c-122,7.6-217.6,109.5-217.6,231.8
	c0,122.3,95.6,224.2,217.6,231.8c1.5,0.1,2.9-0.4,4-1.4c1.1-1,1.7-2.4,1.7-3.9v-453C518.4,111.4,516,109,513.1,109L513.1,109z"/>
<path id="XMLID_9_" class="st0" d="M699.6,495.6c-1.8,0-3.5-0.7-4.8-2L537,335.9c-1.3-1.3-2-3-2-4.8V114.3c0-1.9,0.8-3.7,2.1-5
	c1.4-1.3,3.2-2,5.1-1.8c122.8,7.7,219,110.2,219,233.3c0,55.9-20.1,110-56.5,152.4c-1.2,1.4-3,2.3-4.9,2.4
	C699.8,495.6,699.7,495.6,699.6,495.6z"/>
<linearGradient id="XMLID_12_" gradientUnits="userSpaceOnUse" x1="535.0385" y1="469.5708" x2="686.301" y2="469.5708">
	<stop  offset="0" style="stop-color:#4F69B1"/>
	<stop  offset="1" style="stop-color:#AF6AAC"/>
</linearGradient>
<path id="XMLID_8_" class="st1" d="M541.9,574.2c-1.7,0-3.4-0.7-4.7-1.9c-1.4-1.3-2.2-3.1-2.2-5V371.8c0-3.8,3-6.8,6.8-6.8
	c1.8,0,3.5,0.7,4.8,2l137.6,137.6c2.7,2.7,2.7,7,0,9.7c-0.1,0.1-0.2,0.2-0.2,0.2c-39.2,35.3-89.1,56.3-141.8,59.7
	C542.2,574.2,542,574.2,541.9,574.2z"/>
<path id="XMLID_7_" class="st0" d="M490.4,819H341.1c-4.5,0-8.1-3.6-8.1-8.1c0-4.5,3.6-8.1,8.1-8.1h149.4c4.5,0,8.1,3.6,8.1,8.1
	C498.6,815.3,494.9,819,490.4,819z"/>
<linearGradient id="XMLID_13_" gradientUnits="userSpaceOnUse" x1="279.3861" y1="810.0474" x2="313.4783" y2="810.0474">
	<stop  offset="0" style="stop-color:#4F69B1"/>
	<stop  offset="1" style="stop-color:#AF6AAC"/>
</linearGradient>
<path id="XMLID_6_" class="st2" d="M296.4,827.1c-9.4,0-17-7.6-17-17c0-9.4,7.6-17,17-17c9.4,0,17,7.6,17,17
	C313.5,819.5,305.8,827.1,296.4,827.1z"/>
<path id="XMLID_5_" class="st0" d="M490.4,867.7H341.1c-4.5,0-8.1-3.6-8.1-8.1c0-4.5,3.6-8.1,8.1-8.1h149.4c4.5,0,8.1,3.6,8.1,8.1
	C498.6,864,494.9,867.7,490.4,867.7z"/>
<linearGradient id="XMLID_14_" gradientUnits="userSpaceOnUse" x1="279.3861" y1="858.7506" x2="313.4783" y2="858.7506">
	<stop  offset="0" style="stop-color:#4F69B1"/>
	<stop  offset="1" style="stop-color:#AF6AAC"/>
</linearGradient>
<path id="XMLID_4_" class="st3" d="M296.4,875.8c-9.4,0-17-7.6-17-17s7.6-17,17-17c9.4,0,17,7.6,17,17
	C313.5,868.2,305.8,875.8,296.4,875.8z"/>
<path id="XMLID_3_" class="st0" d="M490.4,916.4H341.1c-4.5,0-8.1-3.6-8.1-8.1c0-4.5,3.6-8.1,8.1-8.1h149.4c4.5,0,8.1,3.6,8.1,8.1
	C498.6,912.7,494.9,916.4,490.4,916.4z"/>
<linearGradient id="XMLID_15_" gradientUnits="userSpaceOnUse" x1="279.3861" y1="907.4537" x2="313.4783" y2="907.4537">
	<stop  offset="0" style="stop-color:#4F69B1"/>
	<stop  offset="1" style="stop-color:#AF6AAC"/>
</linearGradient>
<path id="XMLID_2_" class="st4" d="M296.4,924.5c-9.4,0-17-7.6-17-17c0-9.4,7.6-17,17-17c9.4,0,17,7.6,17,17
	C313.5,916.9,305.8,924.5,296.4,924.5z"/>
<path id="XMLID_1_" class="st5" d="M533.3,859.3H595c0.9,0,1.6-0.7,1.6-1.6V476.3c0-0.9-0.7-1.6-1.6-1.6c-0.9,0-1.6,0.7-1.6,1.6
	v379.8h-60.1c-0.9,0-1.6,0.7-1.6,1.6C531.7,858.6,532.4,859.3,533.3,859.3C533.3,859.3,533.3,859.3,533.3,859.3z"/>
</svg>
