<?xml version="1.0" encoding="utf-8"?>
<!-- Generator: Adobe Illustrator 19.0.0, SVG Export Plug-In . SVG Version: 6.00 Build 0)  -->
<svg version="1.1" id="Layer_1" xmlns="http://www.w3.org/2000/svg" xmlns:xlink="http://www.w3.org/1999/xlink" x="0px" y="0px"
	 viewBox="0 0 1000 1000" style="enable-background:new 0 0 1000 1000;" xml:space="preserve">
<style type="text/css">
	.st0{fill:#E6E6E5;}
	.st1{fill:#9F626B;}
	.st2{fill:#302E41;}
	.st3{fill:#D1CDE1;}
	.st4{fill:url(#XMLID_90_);}
	.st5{fill:url(#XMLID_91_);}
	.st6{fill:url(#XMLID_92_);}
	.st7{fill:url(#XMLID_93_);}
	.st8{fill:url(#XMLID_94_);}
	.st9{fill:#FFFFFF;}
</style>
<path id="XMLID_88_" class="st0" d="M909.2,839.8c0.3,26.6-167.6,29.1-170.8,0C738.2,813.1,906,810.7,909.2,839.8z"/>
<polygon id="XMLID_87_" class="st1" points="777.9,747.3 765.4,754.1 773.3,780.2 785.8,781.3 792.6,766.6 "/>
<polygon id="XMLID_86_" class="st1" points="816.4,799.5 816.4,811.9 835.7,810.8 835.4,800.5 "/>
<polygon id="XMLID_85_" class="st2" points="773.3,597.6 780.1,682.7 801.7,807.4 835.7,802.9 824.4,704.2 828.9,613.5 "/>
<path id="XMLID_84_" class="st2" d="M864.1,534.1l-81.6,1.1l-9.1,62.4l55.6,26.1l13.6,49.9l-69.2,73.7l27.2,34
	c0,0,38.6-52.2,66.9-81.6c28.3-29.5,14.7-119.1,14.7-119.1L864.1,534.1z"/>
<circle id="XMLID_83_" class="st1" cx="815.3" cy="348.2" r="24.9"/>
<path id="XMLID_82_" class="st1" d="M806.2,365.2v24.9l17,27.2c0,0,26.1-19.3,20.4-23.8c-5.7-4.5-6.8-39.7-6.8-39.7L806.2,365.2z"/>
<polygon id="XMLID_81_" class="st3" points="806.2,385.6 789.2,406 796,547.7 849.3,546.6 858.4,423 847.1,391.2 839.3,380.7 
	825.5,401.5 "/>
<path id="XMLID_80_" class="st2" d="M779,459.3l-12.5,47.6l12.5,47.6l-20.4,27.2l-18.1-86.2c0,0,13.6-70.3,14.7-78.2
	c1.1-7.9,3.4-9.1,3.4-9.1l9.1,1.1L779,459.3z"/>
<polygon id="XMLID_79_" class="st2" points="869.7,477.4 877.7,492.2 879.9,517.1 875.4,545.5 891.3,571.5 907.2,500.1 890.1,408.3 
	883.3,408.3 "/>
<path id="XMLID_78_" class="st2" d="M773.3,746.2c0,0-15.9,4.5-21.5,5.7c-5.7,1.1,3.4,22.7,3.4,22.7s5.7,29.5,6.8,35.2
	c1.1,5.7,9.1,24.9,19.3,27.2s3.4-39.7,3.4-39.7s4.5-13.6,4.5-18.1s-6.8-2.3-6.8-2.3C764.3,774.5,773.3,746.2,773.3,746.2z"/>
<path id="XMLID_77_" class="st2" d="M810.8,833.5c1.1,6.8-1.1,6.8,17,9.1c18.1,2.3,13.6-12.5,13.6-12.5c-0.8-6.9-2.3-13.8-4.5-20.4
	c-3.4-9.1-21.5,2.3-21.5,2.3S809.6,826.7,810.8,833.5z"/>
<path id="XMLID_76_" class="st2" d="M836.9,354.6l0.6,10.1c0,0,7.3-16.5,8.5-33.6c1.1-17-18.1-20.4-29.5-21.5
	c-11.3-1.1-30.6,6.8-30.6,15.9c0,9.1,20.4,6.8,28.3,4.5s11.3,17,11.3,17l4.5,1.1L836.9,354.6z"/>
<polygon id="XMLID_75_" class="st3" points="799.5,393.6 806.2,385.6 825.5,401.5 806.2,415.1 "/>
<polygon id="XMLID_74_" class="st3" points="847.1,391.2 839.1,381 825.5,401.5 842.5,413.9 "/>
<path id="XMLID_73_" class="st2" d="M775.6,475.2l4.5,43.1l-9.1,26.1l-5.7,24.9c0,0,0,23.8,22.7,24.9c22.7,1.1,42-71.4,42-71.4
	s3.4,15.9,5.7,24.9c2.3,9.1,40.8,45.4,40.8,45.4s9.1-1.1,17-19.3c7.9-18.1-15.9-35.2-15.9-35.2l-6.8-23.8l2.3-29.5l15.9-77.1
	l-47.1-24.4l5.1,65.2l-17,51l-25.5-112.8l-8.5,6.2l-36.3,14.7L775.6,475.2z"/>
<path id="XMLID_115_" class="st3" d="M327.5,646.7c-2.2,0-4.5,0-6.7-0.1l0.1-2.2c2.2,0.1,4.5,0.1,6.7,0.1c2.2,0,4.5,0,6.7-0.1
	l0.1,2.2C332,646.6,329.7,646.7,327.5,646.7z M307.2,645.7c-4.5-0.4-9-1-13.4-1.7l0.4-2.2c4.4,0.7,8.9,1.3,13.3,1.7L307.2,645.7z
	 M347.8,645.7l-0.2-2.2c4.4-0.4,8.9-1,13.3-1.7l0.4,2.2C356.8,644.7,352.2,645.3,347.8,645.7L347.8,645.7z M280.5,641.5
	c-4.4-1-8.8-2.1-13.1-3.4l0.6-2.2c4.3,1.3,8.6,2.4,13,3.4L280.5,641.5z M374.5,641.4l-0.5-2.2c4.3-1,8.7-2.1,13-3.4l0.6,2.2
	C383.3,639.2,378.9,640.4,374.5,641.4L374.5,641.4z M254.5,633.8c-4.2-1.6-8.5-3.3-12.6-5.1l0.9-2.1c4.1,1.8,8.3,3.5,12.4,5
	L254.5,633.8z M400.4,633.7l-0.8-2.1c4.2-1.5,8.3-3.2,12.4-5l0.9,2.1C408.8,630.4,404.6,632.2,400.4,633.7z M229.8,622.8
	c-4-2.1-7.9-4.3-11.8-6.7l1.2-1.9c3.8,2.3,7.7,4.5,11.7,6.6L229.8,622.8z M425.1,622.7l-1-2c3.9-2.1,7.8-4.3,11.7-6.6l1.2,1.9
	C433.1,618.4,429.1,620.7,425.1,622.7z M206.6,608.8c-3.7-2.6-7.3-5.3-10.9-8.1l1.4-1.8c3.5,2.8,7.1,5.5,10.7,8L206.6,608.8z
	 M448.2,608.7l-1.3-1.8c3.6-2.5,7.3-5.2,10.7-8l1.4,1.8C455.6,603.4,451.9,606.1,448.2,608.7z M185.4,591.9c-3.3-3-6.6-6.2-9.7-9.4
	l1.6-1.6c3.1,3.2,6.3,6.3,9.6,9.3L185.4,591.9z M469.4,591.8l-1.5-1.7c3.3-3,6.5-6.1,9.6-9.3l1.6,1.6
	C476,585.6,472.7,588.8,469.4,591.8z M166.6,572.5c-2.9-3.4-5.8-7-8.5-10.6l1.8-1.3c2.7,3.6,5.5,7.1,8.4,10.5L166.6,572.5z
	 M488.2,572.4l-1.7-1.5c2.9-3.4,5.7-6.9,8.4-10.5l1.8,1.3C494,565.4,491.1,569,488.2,572.4L488.2,572.4z M150.4,550.8
	c-2.5-3.8-4.8-7.7-7-11.6l2-1.1c2.2,3.9,4.5,7.7,7,11.4L150.4,550.8z M504.4,550.7l-1.9-1.2c2.4-3.7,4.8-7.6,7-11.5l2,1.1
	C509.2,543,506.9,546.9,504.4,550.7L504.4,550.7z M137.1,527.3c-2-4-3.8-8.2-5.5-12.4l2.1-0.8c1.7,4.1,3.5,8.2,5.4,12.2L137.1,527.3
	z M517.7,527.1l-2-1c1.9-4,3.8-8.1,5.4-12.3l2.1,0.8C521.5,518.9,519.7,523.1,517.7,527.1z M126.9,502.2c-1.4-4.3-2.7-8.6-3.9-13
	l2.2-0.6c1.1,4.3,2.4,8.6,3.8,12.8L126.9,502.2z M527.9,502l-2.1-0.7c1.4-4.2,2.7-8.5,3.8-12.8l2.2,0.6
	C530.6,493.4,529.3,497.7,527.9,502z M120,476.1c-0.9-4.4-1.6-8.9-2.2-13.4l2.2-0.3c0.6,4.4,1.3,8.9,2.1,13.2L120,476.1z
	 M534.7,475.8l-2.2-0.4c0.8-4.4,1.6-8.8,2.1-13.2l2.2,0.3C536.3,466.9,535.6,471.4,534.7,475.8L534.7,475.8z M116.6,449.2
	c-0.3-4.5-0.4-9-0.4-13.5l2.2,0c0,4.5,0.2,9,0.4,13.4L116.6,449.2z M538.2,449l-2.2-0.1c0.3-4.4,0.4-8.9,0.4-13.4l0-0.5h2.2l0,0.5
	C538.6,439.9,538.5,444.5,538.2,449L538.2,449z M118.8,422.3l-2.2-0.1c0.3-4.5,0.7-9,1.3-13.5l2.2,0.3
	C119.5,413.4,119.1,417.9,118.8,422.3z M535.9,421.6c-0.3-4.4-0.7-8.9-1.3-13.3l2.2-0.3c0.6,4.4,1,9,1.3,13.5L535.9,421.6z
	 M122.1,395.7l-2.2-0.4c0.8-4.4,1.9-8.9,3-13.2l2.2,0.6C124,387,123,391.4,122.1,395.7z M532.4,395c-0.9-4.4-1.9-8.8-3-13.1l2.2-0.6
	c1.1,4.3,2.2,8.8,3,13.2L532.4,395z M128.9,369.8l-2.1-0.7c1.4-4.3,3-8.6,4.7-12.7l2.1,0.8C131.8,361.4,130.3,365.6,128.9,369.8z
	 M525.6,369.1c-1.4-4.2-3-8.4-4.7-12.6l2.1-0.8c1.7,4.2,3.3,8.4,4.7,12.7L525.6,369.1z M138.9,345l-2-1c1.9-4.1,4.1-8.1,6.3-12
	l2,1.1C142.9,337,140.8,341,138.9,345z M515.5,344.4c-1.9-4-4-8-6.2-11.8l2-1.1c2.2,3.9,4.3,7.9,6.3,12L515.5,344.4z M152.1,321.6
	l-1.9-1.2c2.5-3.8,5.1-7.5,7.7-11.1l1.8,1.3C157.1,314.2,154.5,317.9,152.1,321.6z M502.3,321.1c-2.4-3.7-5-7.4-7.7-11l1.8-1.3
	c2.7,3.6,5.3,7.3,7.8,11.1L502.3,321.1z M168.1,300.1l-1.7-1.5c2.9-3.4,6-6.8,9.1-10l1.6,1.6C174,293.4,171,296.8,168.1,300.1z
	 M486.3,299.7c-2.9-3.4-5.9-6.7-9-9.9l1.6-1.6c3.1,3.2,6.2,6.6,9.1,10L486.3,299.7z M186.7,280.9l-1.5-1.7c3.3-3,6.8-6,10.3-8.8
	l1.4,1.8C193.4,275,190,277.9,186.7,280.9z M467.6,280.5c-3.3-3-6.7-5.9-10.2-8.7l1.4-1.8c3.5,2.8,7,5.7,10.3,8.8L467.6,280.5z
	 M207.6,264.2l-1.3-1.8c3.7-2.6,7.5-5.1,11.3-7.4l1.2,1.9C215,259.2,211.2,261.6,207.6,264.2z M446.6,263.8c-3.7-2.5-7.4-5-11.2-7.3
	l1.2-1.9c3.8,2.3,7.7,4.8,11.4,7.4L446.6,263.8z M230.4,250.2l-1-2c4-2.1,8.1-4.1,12.2-5.9l0.9,2.1
	C238.4,246.2,234.4,248.2,230.4,250.2z M423.7,249.9c-3.9-2.1-8-4-12.1-5.8l0.9-2.1c4.1,1.8,8.2,3.8,12.2,5.9L423.7,249.9z
	 M254.9,239.4l-0.8-2.1c4.2-1.6,8.5-3,12.8-4.3l0.6,2.2C263.3,236.4,259,237.8,254.9,239.4z M399.2,239.1c-4.2-1.5-8.5-2.9-12.7-4.2
	l0.6-2.2c4.3,1.3,8.6,2.7,12.9,4.2L399.2,239.1z M280.5,231.7l-0.5-2.2c4.4-1,8.8-1.9,13.3-2.6l0.4,2.2
	C289.3,229.9,284.8,230.7,280.5,231.7z M373.5,231.6c-4.3-1-8.8-1.8-13.2-2.5l0.4-2.2c4.4,0.7,8.9,1.6,13.3,2.5L373.5,231.6z
	 M306.9,227.4l-0.2-2.2c4.5-0.4,9-0.7,13.5-0.9l0.1,2.2C315.8,226.7,311.3,227,306.9,227.4L306.9,227.4z M347.1,227.4
	c-4.4-0.4-8.9-0.7-13.4-0.8l0.1-2.2c4.5,0.1,9,0.4,13.5,0.8L347.1,227.4z"/>
<linearGradient id="XMLID_90_" gradientUnits="userSpaceOnUse" x1="266.6901" y1="229.8277" x2="372.3066" y2="229.8277">
	<stop  offset="0" style="stop-color:#4F69B1"/>
	<stop  offset="1" style="stop-color:#AF6AAC"/>
</linearGradient>
<circle id="XMLID_23_" class="st4" cx="319.5" cy="229.8" r="52.8"/>
<linearGradient id="XMLID_91_" gradientUnits="userSpaceOnUse" x1="471.1816" y1="373.6459" x2="576.7982" y2="373.6459">
	<stop  offset="0" style="stop-color:#4F69B1"/>
	<stop  offset="1" style="stop-color:#AF6AAC"/>
</linearGradient>
<circle id="XMLID_22_" class="st5" cx="524" cy="373.6" r="52.8"/>
<linearGradient id="XMLID_92_" gradientUnits="userSpaceOnUse" x1="407.1376" y1="593.8676" x2="512.7541" y2="593.8676">
	<stop  offset="0" style="stop-color:#4F69B1"/>
	<stop  offset="1" style="stop-color:#AF6AAC"/>
</linearGradient>
<circle id="XMLID_21_" class="st6" cx="459.9" cy="593.9" r="52.8"/>
<linearGradient id="XMLID_93_" gradientUnits="userSpaceOnUse" x1="153.2085" y1="602.8562" x2="258.825" y2="602.8562">
	<stop  offset="0" style="stop-color:#4F69B1"/>
	<stop  offset="1" style="stop-color:#AF6AAC"/>
</linearGradient>
<circle id="XMLID_20_" class="st7" cx="206" cy="602.9" r="52.8"/>
<linearGradient id="XMLID_94_" gradientUnits="userSpaceOnUse" x1="76.8051" y1="373.6459" x2="182.4216" y2="373.6459">
	<stop  offset="0" style="stop-color:#4F69B1"/>
	<stop  offset="1" style="stop-color:#AF6AAC"/>
</linearGradient>
<circle id="XMLID_19_" class="st8" cx="129.6" cy="373.6" r="52.8"/>
<path id="XMLID_106_" class="st9" d="M342.1,225.6h-18.4c-3.5,0-6.3-2.8-6.3-6.3v-18.4c0-0.3-0.2-0.5-0.5-0.5l0,0h-12.1
	c-4.7,0-8.4,3.8-8.4,8.4v42.1c0,4.7,3.8,8.4,8.4,8.4l0,0h29.5c4.7,0,8.4-3.8,8.4-8.4c0,0,0,0,0,0v-24.7
	C342.7,225.9,342.4,225.6,342.1,225.6L342.1,225.6z M330,246.7H309c-1.2,0-2.1-0.9-2.1-2.1s0.9-2.1,2.1-2.1H330
	c1.2,0,2.1,0.9,2.1,2.1S331.2,246.7,330,246.7z M330,236.1H309c-1.2,0-2.1-0.9-2.1-2.1s0.9-2.1,2.1-2.1H330c1.2,0,2.1,0.9,2.1,2.1
	S331.2,236.1,330,236.1z"/>
<path id="XMLID_15_" class="st9" d="M341,221L322.1,202c-0.1-0.1-0.3-0.1-0.4,0c0,0-0.1,0.1-0.1,0.2v17.1c0,1.2,0.9,2.1,2.1,2.1
	h17.1c0.1,0,0.3-0.1,0.3-0.3C341,221.1,341,221,341,221L341,221z"/>
<path id="XMLID_14_" class="st9" d="M467.6,583.5c-1.5,0-2.8,1.3-2.8,2.8c0,1.5,1.3,2.8,2.8,2.8c1.5,0,2.8-1.3,2.8-2.8
	c0-0.7-0.3-1.5-0.8-2C469,583.8,468.3,583.5,467.6,583.5z"/>
<path id="XMLID_101_" class="st9" d="M483.2,572.3L483.2,572.3c-0.2-0.8-0.8-1.4-1.6-1.6c-3.1-0.8-8,0.1-13.5,2.2
	c-5.2,2-10,5.1-14.1,8.9c-1.1,1.1-2.1,2.3-3.1,3.5c-2.1-0.1-4.2,0.2-6.1,1c-6.1,2.7-7.8,9.5-8.2,12.3c-0.2,1.4,0.7,2.8,2.2,3
	c0.2,0,0.5,0,0.7,0h0l6.7-0.7c0,0.1,0,0.2,0,0.2c0.1,0.8,0.5,1.6,1,2.2l3.3,3.3c0.6,0.6,1.3,1,2.2,1l0.2,0l-0.7,6.7v0
	c-0.1,1.4,0.9,2.7,2.3,2.9l0,0c0.1,0,0.2,0,0.2,0c0.1,0,0.3,0,0.4,0c2.8-0.5,9.6-2.2,12.3-8.2c0.8-1.9,1.1-4,1-6.1
	c1.3-0.9,2.4-2,3.6-3.1c3.9-4,6.9-8.8,8.9-14C483.1,580.5,483.9,575.5,483.2,572.3z M471.9,590.6c-2.4,2.4-6.3,2.4-8.7,0
	c-2.4-2.4-2.4-6.3,0-8.7c2.4-2.4,6.3-2.4,8.7,0l0,0l0,0C474.3,584.3,474.4,588.1,471.9,590.6L471.9,590.6L471.9,590.6z"/>
<path id="XMLID_11_" class="st9" d="M450.1,607.5c-0.4-0.1-0.8,0-1.2,0.3c-0.7,0.5-1.3,0.9-2,1.4c-0.7,0.5-1.7,0.3-2.2-0.5
	c-0.3-0.5-0.3-1.1,0-1.6l1.3-2.2c0.5-0.8,0.3-1.8-0.4-2.3c-0.3-0.2-0.7-0.3-1.2-0.3c-1.4,0.2-2.7,0.8-3.7,1.8
	c-0.4,0.4-1.6,1.6-2.2,6c-0.2,1.3-0.3,2.6-0.3,3.9c0,0.9,0.7,1.7,1.6,1.7l0,0c0,0,0,0,0,0h0c1.3,0,2.6-0.2,3.9-0.3
	c4.5-0.6,5.6-1.8,6-2.2c1-1,1.7-2.3,1.8-3.7C451.7,608.5,451,607.7,450.1,607.5z"/>
<path id="XMLID_10_" class="st9" d="M187.8,631.6H184c-1.6,0-2.9-1.3-2.9-2.9l0,0v-17.2c0-1.6,1.3-2.9,2.9-2.9l0,0h3.8
	c1.6,0,2.9,1.3,2.9,2.9l0,0v17.2C190.7,630.3,189.4,631.6,187.8,631.6L187.8,631.6z"/>
<path id="XMLID_9_" class="st9" d="M214.6,631.6h-3.8c-1.6,0-2.9-1.3-2.9-2.9l0,0V600c0-1.6,1.3-2.9,2.9-2.9l0,0h3.8
	c1.6,0,2.9,1.3,2.9,2.9l0,0v28.7C217.5,630.3,216.2,631.6,214.6,631.6L214.6,631.6z"/>
<path id="XMLID_8_" class="st9" d="M228,631.6h-3.8c-1.6,0-2.9-1.3-2.9-2.9l0,0v-42.1c0-1.6,1.3-2.9,2.9-2.9h3.8
	c1.6,0,2.9,1.3,2.9,2.9v42.1C230.9,630.3,229.6,631.6,228,631.6L228,631.6z"/>
<path id="XMLID_7_" class="st9" d="M201.2,631.6h-3.8c-1.6,0-2.9-1.3-2.9-2.9l0,0V577c0-1.6,1.3-2.9,2.9-2.9h3.8
	c1.6,0,2.9,1.3,2.9,2.9v51.7C204.1,630.3,202.8,631.6,201.2,631.6L201.2,631.6z"/>
<path id="XMLID_6_" class="st9" d="M526.5,372.3l-2.7-2.7c-1.3-1.3-3.4-1.3-4.7,0l-19,17.5c-0.7,0.6-1.1,1.5-1.2,2.4
	c0,0.9,0.3,1.8,1,2.5l4.1,4.1l0,0c0.6,0.6,1.5,1,2.4,1h0.1c0.9-0.1,1.8-0.5,2.4-1.2l17.7-18.9C527.8,375.7,527.8,373.6,526.5,372.3
	L526.5,372.3z"/>
<path id="XMLID_5_" class="st9" d="M548.5,366.7L548.5,366.7l-3.6-3.6c-0.4-0.4-1-0.7-1.6-0.7c-0.5,0-0.9,0.2-1.3,0.4
	c0,0,0-0.1,0-0.1c0.1-0.9,0-1.9-0.5-2.6c-0.8-1.1-1.7-2.1-2.6-3l0,0c-2.6-2.5-5.7-4.5-9.1-5.9c-1.8-0.7-3.7-1.1-5.6-1.1
	c-2.5,0-4.9,0.8-6.8,2.4c-0.5,0.5-1,1.1-1.5,1.7c-0.5,0.7-0.4,1.8,0.4,2.3c0.5,0.3,1.1,0.4,1.6,0.2c0.3-0.1,0.6-0.2,0.9-0.3
	c0.6-0.1,1.3-0.2,1.9-0.1c1.3,0.1,2.6,0.6,3.7,1.4c1.3,1.1,2,2.7,1.9,4.3c-0.5,1.3-1.2,2.5-2.1,3.6c-0.5,0.7-0.4,1.6,0.2,2.2
	l3.6,3.6c0.6,0.6,1.6,0.7,2.3,0.1c1-0.9,2.6-2.3,3.1-2.6c0.5-0.3,1-0.5,1.5-0.6c0.4,0,0.8,0,1.2,0.2c0,0,0,0.1,0,0.1l-0.2,0.2l0,0
	c-0.9,0.9-0.9,2.3,0,3.2l0,0l3.6,3.6c0.4,0.4,1,0.7,1.6,0.7c0.6,0,1.2-0.2,1.6-0.6l5.8-5.7c0,0,0,0,0.1-0.1
	C549.3,369,549.3,367.6,548.5,366.7z"/>
<path id="XMLID_4_" class="st9" d="M138,370.5c-1.2,0-2.1-0.9-2.1-2.1c0-0.6,0.2-1.1,0.6-1.5l4.8-4.8l-4.8-4.8c-0.8-0.8-0.8-2.1,0-3
	c0.8-0.8,2.1-0.8,3,0l6.3,6.3c0.8,0.8,0.8,2.1,0,3c0,0,0,0,0,0l-6.3,6.3C139.1,370.3,138.6,370.5,138,370.5z"/>
<path id="XMLID_3_" class="st9" d="M104.5,376.8c-1.2,0-2.1-0.9-2.1-2.1c0,0,0,0,0,0v-2.1c0-6.9,5.6-12.5,12.6-12.6h27.3
	c1.2,0,2.1,0.9,2.1,2.1c0,1.2-0.9,2.1-2.1,2.1c0,0,0,0,0,0h-27.2c-4.6,0-8.4,3.8-8.4,8.4v2.1C106.6,375.9,105.6,376.8,104.5,376.8
	C104.5,376.8,104.5,376.8,104.5,376.8z"/>
<path id="XMLID_2_" class="st9" d="M121.2,393.6c-0.6,0-1.1-0.2-1.5-0.6l-6.3-6.3c-0.8-0.8-0.8-2.1,0-3c0,0,0,0,0,0l6.3-6.3
	c0.8-0.8,2.1-0.8,3,0c0.8,0.8,0.8,2.1,0,3l-4.8,4.8l4.8,4.8c0.8,0.8,0.8,2.1,0,3C122.3,393.3,121.8,393.6,121.2,393.6L121.2,393.6z"
	/>
<path id="XMLID_1_" class="st9" d="M117,387.3c-1.2,0-2.1-0.9-2.1-2.1c0-1.2,0.9-2.1,2.1-2.1h27.2c4.6,0,8.4-3.8,8.4-8.4v-2.1
	c0-1.2,0.9-2.1,2.1-2.1c1.2,0,2.1,0.9,2.1,2.1v2.1c0,6.9-5.6,12.5-12.6,12.6L117,387.3z"/>
</svg>
