<svg id="eWS3mrksKb21" xmlns="http://www.w3.org/2000/svg" shape-rendering="geometricPrecision" text-rendering="geometricPrecision" width="2000" height="1000"><circle r="14.3" transform="translate(1277 299)" fill="#4f69b1"/><circle id="eWS3mrksKb23" r="10.3" transform="translate(655 866)" fill="#faa748"/><circle id="eWS3mrksKb24" r="10.3" transform="translate(388 628)" fill="#faa748"/><circle id="eWS3mrksKb25" r="10.3" transform="translate(1551 744)" fill="#faa748"/><circle id="eWS3mrksKb26" r="11.5" transform="translate(1646 357)" fill="#faa748"/><circle id="eWS3mrksKb27" r="6.3" transform="translate(820 131)" fill="#faa748"/><circle id="eWS3mrksKb28" r="6.3" transform="translate(863 187)" fill="#faa748"/><circle id="eWS3mrksKb29" r="10.1" transform="translate(1117 158)" fill="#faa748"/><circle id="eWS3mrksKb210" r="6.7" transform="translate(1101 143)" fill="#faa748"/><circle id="eWS3mrksKb211" r="5.3" transform="translate(1216 237)" fill="#faa748"/><circle id="eWS3mrksKb212" r="5.3" transform="translate(1321 84)" fill="#faa748"/><circle r="14.3" transform="translate(1534 159)" fill="#4f69b1"/><path fill="none" stroke="#000" stroke-miterlimit="10" d="m596 858-8-63M496 644l19-259M622 311l90-47"/><circle r="14.3" transform="translate(327 892)" fill="#4f69b1"/><circle r="14.3" transform="translate(521 926)" fill="#4f69b1"/><circle r="14.3" transform="translate(599 873)" fill="#4f69b1"/><circle r="14.3" transform="translate(510 784)" fill="#4f69b1"/><circle r="14.3" transform="translate(584 781)" fill="#4f69b1"/><circle r="14.3" transform="translate(368 683)" fill="#4f69b1"/><path d="M512 671c0 3-2 5-5 5h-22c-3 0-5-2-5-5v-22c0-3 2-5 5-5h22c3 0 5 2 5 5v22Z" fill="#7e4fa0"/><circle r="14.8" transform="translate(415 434)" fill="#4f69b1"/><circle r="14.8" transform="translate(581 467)" fill="#4f69b1"/><circle r="14.8" transform="translate(615 389)" fill="#4f69b1"/><circle r="14.8" transform="translate(609 317)" fill="#4f69b1"/><circle r="14.8" transform="translate(566 255)" fill="#4f69b1"/><circle r="14.8" transform="translate(486 206)" fill="#4f69b1"/><circle r="14.8" transform="translate(408 285)" fill="#4f69b1"/><path d="M533 380c0 3-2 5-5 5h-22c-3 0-5-2-5-5v-23c0-2 2-5 5-5h22c3 0 5 3 5 5v23ZM745 265c0 3-3 5-5 5h-23c-3 0-5-2-5-5v-22c0-3 3-5 5-5h23c3 0 5 2 5 5v22ZM1338 210c-2 2-5 3-7 1l-14-11c-3-2-3-5-1-7l11-14c1-2 4-2 7-1l13 11c3 2 3 5 1 7l-10 14Z" fill="#7e4fa0"/><circle r="14.3" transform="translate(1415 235)" fill="#4f69b1"/><circle r="14.3" transform="translate(1390 338)" fill="#4f69b1"/><circle r="14.3" transform="translate(1353 451)" fill="#4f69b1"/><circle r="14.3" transform="translate(1497 419)" fill="#4f69b1"/><circle r="14.3" transform="translate(1555 321)" fill="#4f69b1"/><circle r="14.3" transform="translate(1417 133)" fill="#4f69b1"/><circle r="14.3" transform="translate(1478 74)" fill="#4f69b1"/><path fill="none" stroke="#000" stroke-miterlimit="10" d="m340 885 157-96M342 895l165 28M329 877l37-180M532 917l54-37M498 776l-117-87M382 680l98-16M589 862l-69-68M524 784l46-2M499 676l11 93M512 675l64 94M430 436l137 28M427 425l74-46M573 455l-46-70M588 454l22-51M415 419l-4-120M418 274l57-58M489 220l24 132M499 212l55 35M533 361l63-36M615 375l-4-43M574 268l26 37M745 268l285 222M745 264l285 156M745 258l285 88M745 254l571-54"/><path fill="#fff" stroke="#000" stroke-miterlimit="10" d="M1030 456v65l109 12v-56zM1030 447l109 22v-57l-109-31zM1030 373l109 31v-56l-109-41z"/><path fill="none" stroke="#000" stroke-miterlimit="10" d="m1284 311 63 127M1367 447l116-28M1357 436l27-85M1291 302l84 30M1284 286l42-79M1404 335l138-11M1410 248l-19 76M1505 407l43-73M1345 201l56 29M1344 186l63-43M1431 136l89 19M1427 123l41-39"/><g id="eWS3mrksKb286"><g transform="translate(23 15)"><path d="M1250 845c-73 52-162-10-162-10-39-23-84-90-84-90-22-34-46-54-46-54-2-7-27 0-27 0l-6 3c-21 25-59 19-59 19-26-1-35 12-35 12-26 22-81 20-81 20s-13-10-16-60l193-37s-58-21-76-9c0 0-28 10-49-3 0 0-9-4-27 4 0 0-14 0-15-5l1-54s-1-5 10-4l178 11s45-2 84 37l121 112s17 16 36 12l37 28 17 7s-19 25 22 50l-16 11Z" fill="#2ca0da"/><path d="M741 728s31-4 64-19c0 0 25-10 69-9 0 0 44-9 53-18 0 0 32-11 70 27l50 62s46 56 103 55c0 0 55 3 78-50l16 8s-18 25 22 50c0 0-21 16-34 21 0 0-34 18-78 7 0 0-57-9-101-56l-13-15-24-31s-32-50-58-69c0 0-1-8-33 3 0 0-17 24-59 19 0 0-23-2-34 11 0 0-22 22-82 21 0 0-6-6-9-17Z" fill="#307ec2"/><path d="m761 606-1 29s3 6 15 5c0 0 17-7 27-4 1 0 17 13 49 3 0 0 14-12 76 8l24-4s14-7 50 21l68 43-57-57s-42-46-104-39l-45 2s-23-2-38-10c0 0-13-3-35 5l-29-2Z" fill="#307ec2"/><path d="m1183 690-3 51 47 35 17 8s-18 26 22 50l-9 7s15 14 43 13c0 0 17-13 26-48 0 0 6-18 36-39 0 0 53-26 38-102 0 0-11-25-42-2 0 0-88 57-102 79 0 0-64-44-73-53Z" fill="#5b2c81"/><path d="M1339 754c-18 34-43 48-43 48-38 18-56-8-56-8s2-6 4-10c0 0 25 24 65-16l51-41-21 27ZM1257 841l9-7s27 8 34 20c0 0-26 2-44-13Z" fill="#39225e"/><path d="m1256 742-11-8 31-18s12-5 16-22c0 0 4-16 48-25l16-5c1 0-91 60-100 78Z" fill="#faa649"/><path d="M1361 535c-24-2-39 19-39 19s9 23 28 28l16 34s7 26 19 37l11 9s33 3 44-11c0 0 40-28 42-70 0 0 5-34-11-25 0 0-11 19-26 31 0 0-15 7-11-15l10-15c1 0 8-20-15-15 0 0-9 10-24 13 0 0-9 1-26-15 0 0-13-5-17-5h-1Z" fill="#32181a"/><path d="M1375 620s20 49 62 21c0 0 15-12 19-25" fill="none" stroke="#2b1b1d" stroke-miterlimit="10"/><path d="M1390 627s10 19 31 9M1397 612s18 28 58-3c0 0 9-10 9-13" fill="none" stroke="#000" stroke-miterlimit="10"/><path d="M1407 599s11 24 31 6M1453 596s15-16 18-27M1403 576s8 17 24 2M1420 560s-20 21-33-4M1348 547s10 21 18 20M1332 552s10 15 23 21" fill="none" stroke="#000" stroke-miterlimit="10"/><path d="m1361 661-10-29s-29 10-30 1c0 0-4-4-5-22l-9-8 13-7s-4-27 2-41c0 0 11 24 28 27 0 0 17 3 16 34 0 0 7 26 20 38 0 0-12-4-25 7Z" fill="#f58965"/><circle r="9.3" transform="translate(1343 606)" fill="#f3735d"/><path d="M1318 619v-1l1-1 1-2 2-2 2-2v-1l1-1h1v-2l1 1v2l-1 1v2l-2 2-4 3-1 1h-1Z" fill="#f3735d"/><ellipse rx="2.5" ry="9.4" transform="translate(1328 589)" fill="#120809"/><path d="m1324 572 2 1 3 1 2 1 1 1 1 1v2l1 1v2-1h-1v-1l-1-1v-1l-2-2-1-1-1-1-2-1-2-1Z" fill="#120809"/><circle r="24.8" transform="translate(1375 591)" fill="#f6e9e5"/><circle r="12.4" transform="translate(1374 591)" fill="none" stroke="#000" stroke-miterlimit="10"/><path d="M1384 568s1-21-6-28l-16-5s8 19 7 32l12 4 3-3Z" fill="#f6e9e5"/><path d="m1149 675-57 28s-5 8-13-19l-46-112s-2-5 2-5l85 1 37 103-8 3Z" fill="#faf4f2"/><path d="M1033 567s-10 2-8 10l53 127s2 8 11 2l68-35-65 32s-5 11-22-41l-37-90v-5Z" fill="#2e2c2c"/><path fill="#2ca0da" d="m1117 665-22 10-5-14 22-8zM1084 646l4 12 24-7-4-12zM1078 631l5 13 24-7-5-11zM1062 589l14 38 25-5-13-35z"/><ellipse rx="10" ry="17.6" transform="rotate(-26 1925 -2081)" fill="#edd0c3"/><ellipse rx="2.4" ry="4.3" transform="rotate(-26 1918 -2079)" fill="#fdf4f3"/><ellipse rx="5.1" ry="9.5" transform="rotate(-26 1837 -2063)" fill="#865ea2"/><ellipse rx="3.7" ry="6.9" transform="rotate(-26 1858 -2086)" fill="#7f5b93"/><path d="M1141 651c-8-3-20-14-20-14-1-3 4-3 4-3 11 10 36 20 36 20 5 2 4 23 4 23 3 5 17 16 17 16v18s-25-14-32-28v-16s-10-7-10-4v12s-2 4-3-2c0 0-5-12-1-17l5-5Z" fill="#f58967"/><path d="M1142 663c1 10 5 9 5 9v-7l-5-2Z" fill="#e16948"/><path d="M1139 656h2l4 1 1 1h1l1 1h1v1h1v1-1h-1l-4-2-3-1h-2l-1-1ZM1152 665v-3h1l1-1v1h1l-1-1v-2l1-1h1v-1 1-1h2v1-4h3-2v1h-1v4-1h-1l-1 1h-1v4l-1-1h-1l-1 1v2ZM1143 652h4l2 1 1 1h-1l-2-1-3-1h-2ZM1147 651v-1h4l1 1v1-1h-5ZM1142 654h4l3 1v1h1-2l-2-1-3-1h-1Z" fill="#e07e63"/><path fill="#f5886a" d="m761 608-14-1-8-28 22 2z"/><path fill="#f3735c" d="M755 581v26l6 1v-27z"/><path d="m739 575 9 35-31-5 7-7-2-2h-8l-18-37s1-5 7 0c0 0 8 17 36 16Z"/><path d="m739 720-18 1-15-24 29-3 4 26Z" fill="#f58a67"/><path fill="#e7796c" d="m727 695 4 26 8-1-4-26z"/><path d="m722 724-17-29h-27l-13-9s-10-4-6 4l23 26h15l1 1-9 8v2l33-3Z"/></g></g><path fill="none" stroke="#5ec19b" stroke-miterlimit="10" d="m1041 362 16-6M1057 356l15 7M1072 363l14-6M1086 357l11 2M1097 359l5 10M1102 369l11-15M1113 354l9 6M1122 360l11-5"/><path d="m1117 394-11-4c-1 0-2-1-1-2 0-1 1-2 2-1l11 3c1 0 2 1 1 2 0 1-1 2-2 1Z" fill="#5ec19b"/><path d="m1133 398-11-3c-1-1-2-2-1-3l2-1 11 3c1 1 2 2 1 3l-2 1Z" fill="#e14c26"/><path d="m1116 461-11-2-2-2 3-2 11 2c1 1 2 2 1 3l-2 1Z" fill="#5ec19b"/><path d="m1132 464-11-2c-1 0-2-1-1-2l2-2 11 2 2 3-3 1Z" fill="#e14c26"/><path d="m1117 527-11-1-2-2 2-2 12 2c1 0 2 1 1 2l-2 1Z" fill="#5ec19b"/><path d="m1134 529-12-1-2-2 3-2 11 2 2 2-3 1Z" fill="#e14c26"/><path fill="none" stroke="#e14c26" stroke-miterlimit="10" d="m1039 395 17 16M1056 411h12M1068 411l4 9M1072 420l3 7M1075 427l11-2M1086 425l8 6M1094 431l11 7M1105 438v4M1105 442l10 5M1115 447l10-3M1125 444l6 8"/><path fill="none" stroke="#5ec19b" stroke-miterlimit="10" d="m1039 501 16-7M1055 494l15 8M1070 502l14-6M1084 496l10 2M1094 498l5 10M1099 508l12-16M1111 492l9 7M1120 499l10-6"/><script><![CDATA[!function(t,n){"object"==typeof exports&&"undefined"!=typeof module?module.exports=n():"function"==typeof define&&define.amd?define(n):((t="undefined"!=typeof globalThis?globalThis:t||self).__SVGATOR_PLAYER__=t.__SVGATOR_PLAYER__||{},t.__SVGATOR_PLAYER__["5c7f360c"]=n())}(this,(function(){"use strict";function t(t,n){var r=Object.keys(t);if(Object.getOwnPropertySymbols){var e=Object.getOwnPropertySymbols(t);n&&(e=e.filter((function(n){return Object.getOwnPropertyDescriptor(t,n).enumerable}))),r.push.apply(r,e)}return r}function n(n){for(var r=1;r<arguments.length;r++){var e=null!=arguments[r]?arguments[r]:{};r%2?t(Object(e),!0).forEach((function(t){u(n,t,e[t])})):Object.getOwnPropertyDescriptors?Object.defineProperties(n,Object.getOwnPropertyDescriptors(e)):t(Object(e)).forEach((function(t){Object.defineProperty(n,t,Object.getOwnPropertyDescriptor(e,t))}))}return n}function r(t){return(r="function"==typeof Symbol&&"symbol"==typeof Symbol.iterator?function(t){return typeof t}:function(t){return t&&"function"==typeof Symbol&&t.constructor===Symbol&&t!==Symbol.prototype?"symbol":typeof t})(t)}function e(t,n){if(!(t instanceof n))throw new TypeError("Cannot call a class as a function")}function i(t,n){for(var r=0;r<n.length;r++){var e=n[r];e.enumerable=e.enumerable||!1,e.configurable=!0,"value"in e&&(e.writable=!0),Object.defineProperty(t,e.key,e)}}function o(t,n,r){return n&&i(t.prototype,n),r&&i(t,r),t}function u(t,n,r){return n in t?Object.defineProperty(t,n,{value:r,enumerable:!0,configurable:!0,writable:!0}):t[n]=r,t}function a(t){return(a=Object.setPrototypeOf?Object.getPrototypeOf:function(t){return t.__proto__||Object.getPrototypeOf(t)})(t)}function l(t,n){return(l=Object.setPrototypeOf||function(t,n){return t.__proto__=n,t})(t,n)}function f(){if("undefined"==typeof Reflect||!Reflect.construct)return!1;if(Reflect.construct.sham)return!1;if("function"==typeof Proxy)return!0;try{return Boolean.prototype.valueOf.call(Reflect.construct(Boolean,[],(function(){}))),!0}catch(t){return!1}}function s(t,n,r){return(s=f()?Reflect.construct:function(t,n,r){var e=[null];e.push.apply(e,n);var i=new(Function.bind.apply(t,e));return r&&l(i,r.prototype),i}).apply(null,arguments)}function c(t,n){if(n&&("object"==typeof n||"function"==typeof n))return n;if(void 0!==n)throw new TypeError("Derived constructors may only return object or undefined");return function(t){if(void 0===t)throw new ReferenceError("this hasn't been initialised - super() hasn't been called");return t}(t)}function h(t,n,r){return(h="undefined"!=typeof Reflect&&Reflect.get?Reflect.get:function(t,n,r){var e=function(t,n){for(;!Object.prototype.hasOwnProperty.call(t,n)&&null!==(t=a(t)););return t}(t,n);if(e){var i=Object.getOwnPropertyDescriptor(e,n);return i.get?i.get.call(r):i.value}})(t,n,r||t)}function v(t){return function(t){if(Array.isArray(t))return y(t)}(t)||function(t){if("undefined"!=typeof Symbol&&null!=t[Symbol.iterator]||null!=t["@@iterator"])return Array.from(t)}(t)||function(t,n){if(!t)return;if("string"==typeof t)return y(t,n);var r=Object.prototype.toString.call(t).slice(8,-1);"Object"===r&&t.constructor&&(r=t.constructor.name);if("Map"===r||"Set"===r)return Array.from(t);if("Arguments"===r||/^(?:Ui|I)nt(?:8|16|32)(?:Clamped)?Array$/.test(r))return y(t,n)}(t)||function(){throw new TypeError("Invalid attempt to spread non-iterable instance.\nIn order to be iterable, non-array objects must have a [Symbol.iterator]() method.")}()}function y(t,n){(null==n||n>t.length)&&(n=t.length);for(var r=0,e=new Array(n);r<n;r++)e[r]=t[r];return e}var g=d(Math.pow(10,-6));function d(t){var n=arguments.length>1&&void 0!==arguments[1]?arguments[1]:6;if(Number.isInteger(t))return t;var r=Math.pow(10,n);return Math.round((+t+Number.EPSILON)*r)/r}function p(t,n){var r=arguments.length>2&&void 0!==arguments[2]?arguments[2]:g;return Math.abs(t-n)<r}var m=Math.PI/180;function b(t){return t}function w(t,n,r){var e=1-r;return 3*r*e*(t*e+n*r)+r*r*r}function A(){var t=arguments.length>0&&void 0!==arguments[0]?arguments[0]:0,n=arguments.length>1&&void 0!==arguments[1]?arguments[1]:0,r=arguments.length>2&&void 0!==arguments[2]?arguments[2]:1,e=arguments.length>3&&void 0!==arguments[3]?arguments[3]:1;return t<0||t>1||r<0||r>1?null:p(t,n)&&p(r,e)?b:function(i){if(i<=0)return t>0?i*n/t:0===n&&r>0?i*e/r:0;if(i>=1)return r<1?1+(i-1)*(e-1)/(r-1):1===r&&t<1?1+(i-1)*(n-1)/(t-1):1;for(var o,u=0,a=1;u<a;){var l=w(t,r,o=(u+a)/2);if(p(i,l))break;l<i?u=o:a=o}return w(n,e,o)}}function x(){return 1}function k(t){return 1===t?1:0}function S(){var t=arguments.length>0&&void 0!==arguments[0]?arguments[0]:1,n=arguments.length>1&&void 0!==arguments[1]?arguments[1]:0;if(1===t){if(0===n)return k;if(1===n)return x}var r=1/t;return function(t){return t>=1?1:(t+=n*r)-t%r}}var _=Math.sin,O=Math.cos,j=Math.acos,M=Math.asin,P=Math.tan,E=Math.atan2,I=Math.PI/180,R=180/Math.PI,F=Math.sqrt,N=function(){function t(){var n=arguments.length>0&&void 0!==arguments[0]?arguments[0]:1,r=arguments.length>1&&void 0!==arguments[1]?arguments[1]:0,i=arguments.length>2&&void 0!==arguments[2]?arguments[2]:0,o=arguments.length>3&&void 0!==arguments[3]?arguments[3]:1,u=arguments.length>4&&void 0!==arguments[4]?arguments[4]:0,a=arguments.length>5&&void 0!==arguments[5]?arguments[5]:0;e(this,t),this.m=[n,r,i,o,u,a],this.i=null,this.w=null,this.s=null}return o(t,[{key:"determinant",get:function(){var t=this.m;return t[0]*t[3]-t[1]*t[2]}},{key:"isIdentity",get:function(){if(null===this.i){var t=this.m;this.i=1===t[0]&&0===t[1]&&0===t[2]&&1===t[3]&&0===t[4]&&0===t[5]}return this.i}},{key:"point",value:function(t,n){var r=this.m;return{x:r[0]*t+r[2]*n+r[4],y:r[1]*t+r[3]*n+r[5]}}},{key:"translateSelf",value:function(){var t=arguments.length>0&&void 0!==arguments[0]?arguments[0]:0,n=arguments.length>1&&void 0!==arguments[1]?arguments[1]:0;if(!t&&!n)return this;var r=this.m;return r[4]+=r[0]*t+r[2]*n,r[5]+=r[1]*t+r[3]*n,this.w=this.s=this.i=null,this}},{key:"rotateSelf",value:function(){var t=arguments.length>0&&void 0!==arguments[0]?arguments[0]:0;if(t%=360){var n=_(t*=I),r=O(t),e=this.m,i=e[0],o=e[1];e[0]=i*r+e[2]*n,e[1]=o*r+e[3]*n,e[2]=e[2]*r-i*n,e[3]=e[3]*r-o*n,this.w=this.s=this.i=null}return this}},{key:"scaleSelf",value:function(){var t=arguments.length>0&&void 0!==arguments[0]?arguments[0]:1,n=arguments.length>1&&void 0!==arguments[1]?arguments[1]:1;if(1!==t||1!==n){var r=this.m;r[0]*=t,r[1]*=t,r[2]*=n,r[3]*=n,this.w=this.s=this.i=null}return this}},{key:"skewSelf",value:function(t,n){if(n%=360,(t%=360)||n){var r=this.m,e=r[0],i=r[1],o=r[2],u=r[3];t&&(t=P(t*I),r[2]+=e*t,r[3]+=i*t),n&&(n=P(n*I),r[0]+=o*n,r[1]+=u*n),this.w=this.s=this.i=null}return this}},{key:"resetSelf",value:function(){var t=arguments.length>0&&void 0!==arguments[0]?arguments[0]:1,n=arguments.length>1&&void 0!==arguments[1]?arguments[1]:0,r=arguments.length>2&&void 0!==arguments[2]?arguments[2]:0,e=arguments.length>3&&void 0!==arguments[3]?arguments[3]:1,i=arguments.length>4&&void 0!==arguments[4]?arguments[4]:0,o=arguments.length>5&&void 0!==arguments[5]?arguments[5]:0,u=this.m;return u[0]=t,u[1]=n,u[2]=r,u[3]=e,u[4]=i,u[5]=o,this.w=this.s=this.i=null,this}},{key:"recomposeSelf",value:function(){var t=arguments.length>0&&void 0!==arguments[0]?arguments[0]:null,n=arguments.length>1&&void 0!==arguments[1]?arguments[1]:null,r=arguments.length>2&&void 0!==arguments[2]?arguments[2]:null,e=arguments.length>3&&void 0!==arguments[3]?arguments[3]:null,i=arguments.length>4&&void 0!==arguments[4]?arguments[4]:null;return this.isIdentity||this.resetSelf(),t&&(t.x||t.y)&&this.translateSelf(t.x,t.y),n&&this.rotateSelf(n),r&&(r.x&&this.skewSelf(r.x,0),r.y&&this.skewSelf(0,r.y)),!e||1===e.x&&1===e.y||this.scaleSelf(e.x,e.y),i&&(i.x||i.y)&&this.translateSelf(i.x,i.y),this}},{key:"decompose",value:function(){var t=arguments.length>0&&void 0!==arguments[0]?arguments[0]:0,n=arguments.length>1&&void 0!==arguments[1]?arguments[1]:0,r=this.m,e=r[0]*r[0]+r[1]*r[1],i=[[r[0],r[1]],[r[2],r[3]]],o=F(e);if(0===o)return{origin:{x:d(r[4]),y:d(r[5])},translate:{x:d(t),y:d(n)},scale:{x:0,y:0},skew:{x:0,y:0},rotate:0};i[0][0]/=o,i[0][1]/=o;var u=r[0]*r[3]-r[1]*r[2]<0;u&&(o=-o);var a=i[0][0]*i[1][0]+i[0][1]*i[1][1];i[1][0]-=i[0][0]*a,i[1][1]-=i[0][1]*a;var l=F(i[1][0]*i[1][0]+i[1][1]*i[1][1]);if(0===l)return{origin:{x:d(r[4]),y:d(r[5])},translate:{x:d(t),y:d(n)},scale:{x:d(o),y:0},skew:{x:0,y:0},rotate:0};i[1][0]/=l,i[1][1]/=l,a/=l;var f=0;return i[1][1]<0?(f=j(i[1][1])*R,i[0][1]<0&&(f=360-f)):f=M(i[0][1])*R,u&&(f=-f),a=E(a,F(i[0][0]*i[0][0]+i[0][1]*i[0][1]))*R,u&&(a=-a),{origin:{x:d(r[4]),y:d(r[5])},translate:{x:d(t),y:d(n)},scale:{x:d(o),y:d(l)},skew:{x:d(a),y:0},rotate:d(f)}}},{key:"clone",value:function(){var t=this.m;return new this.constructor(t[0],t[1],t[2],t[3],t[4],t[5])}},{key:"toString",value:function(){var t=arguments.length>0&&void 0!==arguments[0]?arguments[0]:" ";if(null===this.s){var n=this.m.map((function(t){return d(t)}));1===n[0]&&0===n[1]&&0===n[2]&&1===n[3]?this.s="translate("+n[4]+t+n[5]+")":this.s="matrix("+n.join(t)+")"}return this.s}}],[{key:"create",value:function(t){return t?Array.isArray(t)?s(this,v(t)):t instanceof this?t.clone():(new this).recomposeSelf(t.origin,t.rotate,t.skew,t.scale,t.translate):new this}}]),t}();function T(t,n,r){return t>=.5?r:n}function B(t,n,r){return 0===t||n===r?n:t*(r-n)+n}function q(t,n,r){var e=B(t,n,r);return e<=0?0:e}function L(t,n,r){var e=B(t,n,r);return e<=0?0:e>=1?1:e}function C(t,n,r){return 0===t?n:1===t?r:{x:B(t,n.x,r.x),y:B(t,n.y,r.y)}}function D(t,n,r){var e=function(t,n,r){return Math.round(B(t,n,r))}(t,n,r);return e<=0?0:e>=255?255:e}function z(t,n,r){return 0===t?n:1===t?r:{r:D(t,n.r,r.r),g:D(t,n.g,r.g),b:D(t,n.b,r.b),a:B(t,null==n.a?1:n.a,null==r.a?1:r.a)}}function V(t,n){for(var r=[],e=0;e<t;e++)r.push(n);return r}function G(t,n){if(--n<=0)return t;var r=(t=Object.assign([],t)).length;do{for(var e=0;e<r;e++)t.push(t[e])}while(--n>0);return t}var Y,$=function(){function t(n){e(this,t),this.list=n,this.length=n.length}return o(t,[{key:"setAttribute",value:function(t,n){for(var r=this.list,e=0;e<this.length;e++)r[e].setAttribute(t,n)}},{key:"removeAttribute",value:function(t){for(var n=this.list,r=0;r<this.length;r++)n[r].removeAttribute(t)}},{key:"style",value:function(t,n){for(var r=this.list,e=0;e<this.length;e++)r[e].style[t]=n}}]),t}(),U=/-./g,Q=function(t,n){return n.toUpperCase()};function H(t){return"function"==typeof t?t:T}function J(t){return t?"function"==typeof t?t:Array.isArray(t)?function(t){var n=arguments.length>1&&void 0!==arguments[1]?arguments[1]:b;if(!Array.isArray(t))return n;switch(t.length){case 1:return S(t[0])||n;case 2:return S(t[0],t[1])||n;case 4:return A(t[0],t[1],t[2],t[3])||n}return n}(t,null):function(t,n){var r=arguments.length>2&&void 0!==arguments[2]?arguments[2]:b;switch(t){case"linear":return b;case"steps":return S(n.steps||1,n.jump||0)||r;case"bezier":case"cubic-bezier":return A(n.x1||0,n.y1||0,n.x2||0,n.y2||0)||r}return r}(t.type,t.value,null):null}function Z(t,n,r){var e=arguments.length>3&&void 0!==arguments[3]&&arguments[3],i=n.length-1;if(t<=n[0].t)return e?[0,0,n[0].v]:n[0].v;if(t>=n[i].t)return e?[i,1,n[i].v]:n[i].v;var o,u=n[0],a=null;for(o=1;o<=i;o++){if(!(t>n[o].t)){a=n[o];break}u=n[o]}return null==a?e?[i,1,n[i].v]:n[i].v:u.t===a.t?e?[o,1,a.v]:a.v:(t=(t-u.t)/(a.t-u.t),u.e&&(t=u.e(t)),e?[o,t,r(t,u.v,a.v)]:r(t,u.v,a.v))}function K(t,n){var r=arguments.length>2&&void 0!==arguments[2]?arguments[2]:null;return t&&t.length?"function"!=typeof n?null:("function"!=typeof r&&(r=null),function(e){var i=Z(e,t,n);return null!=i&&r&&(i=r(i)),i}):null}function W(t,n){return t.t-n.t}function X(t,n,e,i,o){var u,a="@"===e[0],l="#"===e[0],f=Y[e],s=T;switch(a?(u=e.substr(1),e=u.replace(U,Q)):l&&(e=e.substr(1)),r(f)){case"function":if(s=f(i,o,Z,J,e,a,n,t),l)return s;break;case"string":s=K(i,H(f));break;case"object":if((s=K(i,H(f.i),f.f))&&"function"==typeof f.u)return f.u(n,s,e,a,t)}return s?function(t,n,r){if(arguments.length>3&&void 0!==arguments[3]&&arguments[3])return t instanceof $?function(e){return t.style(n,r(e))}:function(e){return t.style[n]=r(e)};if(Array.isArray(n)){var e=n.length;return function(i){var o=r(i);if(null==o)for(var u=0;u<e;u++)t[u].removeAttribute(n);else for(var a=0;a<e;a++)t[a].setAttribute(n,o)}}return function(e){var i=r(e);null==i?t.removeAttribute(n):t.setAttribute(n,i)}}(n,e,s,a):null}function tt(t,n,e,i){if(!i||"object"!==r(i))return null;var o=null,u=null;return Array.isArray(i)?u=function(t){if(!t||!t.length)return null;for(var n=0;n<t.length;n++)t[n].e&&(t[n].e=J(t[n].e));return t.sort(W)}(i):(u=i.keys,o=i.data||null),u?X(t,n,e,u,o):null}function nt(t,n,r){if(!r)return null;var e=[];for(var i in r)if(r.hasOwnProperty(i)){var o=tt(t,n,i,r[i]);o&&e.push(o)}return e.length?e:null}function rt(t,n){if(!n.duration||n.duration<0)return null;var r=function(t,n){if(!n)return null;var r=[];if(Array.isArray(n))for(var e=n.length,i=0;i<e;i++){var o=n[i];if(2===o.length){var u=null;if("string"==typeof o[0])u=t.getElementById(o[0]);else if(Array.isArray(o[0])){u=[];for(var a=0;a<o[0].length;a++)if("string"==typeof o[0][a]){var l=t.getElementById(o[0][a]);l&&u.push(l)}u=u.length?1===u.length?u[0]:new $(u):null}if(u){var f=nt(t,u,o[1]);f&&(r=r.concat(f))}}}else for(var s in n)if(n.hasOwnProperty(s)){var c=t.getElementById(s);if(c){var h=nt(t,c,n[s]);h&&(r=r.concat(h))}}return r.length?r:null}(t,n.elements);return r?function(t,n){var r=arguments.length>2&&void 0!==arguments[2]?arguments[2]:1/0,e=arguments.length>3&&void 0!==arguments[3]?arguments[3]:1,i=arguments.length>4&&void 0!==arguments[4]&&arguments[4],o=arguments.length>5&&void 0!==arguments[5]?arguments[5]:1,u=t.length,a=e>0?n:0;i&&r%2==0&&(a=n-a);var l=null;return function(f,s){var c=f%n,h=1+(f-c)/n;s*=e,i&&h%2==0&&(s=-s);var v=!1;if(h>r)c=a,v=!0,-1===o&&(c=e>0?0:n);else if(s<0&&(c=n-c),c===l)return!1;l=c;for(var y=0;y<u;y++)t[y](c);return v}}(r,n.duration,n.iterations||1/0,n.direction||1,!!n.alternate,n.fill||1):null}function et(t){return+("0x"+(t.replace(/[^0-9a-fA-F]+/g,"")||27))}function it(t,n,r){return!t||!r||n>t.length?t:t.substring(0,n)+it(t.substring(n+1),r,r)}function ot(t){var n=arguments.length>1&&void 0!==arguments[1]?arguments[1]:27;return!t||t%n?t%n:ot(t/n,n)}function ut(t,n,r){if(t&&t.length){var e=et(r),i=et(n),o=ot(e)+5,u=it(t,ot(e,5),o);return u=u.replace(/\x7c$/g,"==").replace(/\x2f$/g,"="),u=function(t,n,r){var e=+("0x"+t.substring(0,4));t=t.substring(4);for(var i=n%e+r%27,o=[],u=0;u<t.length;u+=2)if("|"!==t[u]){var a=+("0x"+t[u]+t[u+1])-i;o.push(a)}else{var l=+("0x"+t.substring(u+1,u+1+4))-i;u+=3,o.push(l)}return String.fromCharCode.apply(String,o)}(u=(u=atob(u)).replace(/[\x41-\x5A]/g,""),i,e),u=JSON.parse(u)}}Number.isInteger||(Number.isInteger=function(t){return"number"==typeof t&&isFinite(t)&&Math.floor(t)===t}),Number.EPSILON||(Number.EPSILON=2220446049250313e-31);var at=function(){function t(n,r){var i=arguments.length>2&&void 0!==arguments[2]?arguments[2]:{};e(this,t),this._id=0,this._running=!1,this._rollingBack=!1,this._animations=n,this.duration=r.duration,this.alternate=r.alternate,this.fill=r.fill,this.iterations=r.iterations,this.direction=i.direction||1,this.speed=i.speed||1,this.fps=i.fps||100,this.offset=i.offset||0,this.rollbackStartOffset=0}return o(t,[{key:"_rollback",value:function(){var t=this,n=1/0,r=null;this.rollbackStartOffset=this.offset,this._rollingBack||(this._rollingBack=!0,this._running=!0);this._id=window.requestAnimationFrame((function e(i){if(t._rollingBack){null==r&&(r=i);var o=i-r,u=t.rollbackStartOffset-o,a=Math.round(u*t.speed);if(a>t.duration&&n!=1/0){var l=!!t.alternate&&a/t.duration%2>1,f=a%t.duration;a=(f+=l?t.duration:0)||t.duration}var s=t.fps?1e3/t.fps:0,c=Math.max(0,a);if(c<n-s){t.offset=c,n=c;for(var h=t._animations,v=h.length,y=0;y<v;y++)h[y](c,t.direction)}var g=!1;if(t.iterations>0&&-1===t.fill){var d=t.iterations*t.duration,p=d==a;a=p?0:a,t.offset=p?0:t.offset,g=a>d}a>0&&t.offset>=a&&!g?t._id=window.requestAnimationFrame(e):t.stop()}}))}},{key:"_start",value:function(){var t=this,n=arguments.length>0&&void 0!==arguments[0]?arguments[0]:0,r=-1/0,e=null,i={},o=function o(u){t._running=!0,null==e&&(e=u);var a=Math.round((u-e+n)*t.speed),l=t.fps?1e3/t.fps:0;if(a>r+l&&!t._rollingBack){t.offset=a,r=a;for(var f=t._animations,s=f.length,c=0,h=0;h<s;h++)i[h]?c++:(i[h]=f[h](a,t.direction),i[h]&&c++);if(c===s)return void t._stop()}t._id=window.requestAnimationFrame(o)};this._id=window.requestAnimationFrame(o)}},{key:"_stop",value:function(){this._id&&window.cancelAnimationFrame(this._id),this._running=!1,this._rollingBack=!1}},{key:"play",value:function(){!this._rollingBack&&this._running||(this._rollingBack=!1,this.rollbackStartOffset>this.duration&&(this.offset=this.rollbackStartOffset-(this.rollbackStartOffset-this.offset)%this.duration,this.rollbackStartOffset=0),this._start(this.offset))}},{key:"stop",value:function(){this._stop(),this.offset=0,this.rollbackStartOffset=0;var t=this.direction,n=this._animations;window.requestAnimationFrame((function(){for(var r=0;r<n.length;r++)n[r](0,t)}))}},{key:"reachedToEnd",value:function(){return this.iterations>0&&this.offset>=this.iterations*this.duration}},{key:"restart",value:function(){this._stop(),this.offset=0,this._start()}},{key:"pause",value:function(){this._stop()}},{key:"reverse",value:function(){this.direction=-this.direction}}],[{key:"build",value:function(r,e){return delete r.animationSettings,r.options=ut(r.options,r.root,"5c7f360c"),r.animations.map((function(t){var e=ut(t.s,r.root,"5c7f360c");for(var i in delete t.s,r.animationSettings||(r.animationSettings=n({},e)),e)e.hasOwnProperty(i)&&(t[i]=e[i])})),(r=function(t,n){if(Y=n,!t||!t.root||!Array.isArray(t.animations))return null;for(var r=document.getElementsByTagName("svg"),e=!1,i=0;i<r.length;i++)if(r[i].id===t.root&&!r[i].svgatorAnimation){(e=r[i]).svgatorAnimation=!0;break}if(!e)return null;var o=t.animations.map((function(t){return rt(e,t)})).filter((function(t){return!!t}));return o.length?{element:e,animations:o,animationSettings:t.animationSettings,options:t.options||void 0}:null}(r,e))?{el:r.element,options:r.options||{},player:new t(r.animations,r.animationSettings,r.options)}:null}},{key:"push",value:function(t){return this.build(t)}},{key:"init",value:function(){var t=this,n=window.__SVGATOR_PLAYER__&&window.__SVGATOR_PLAYER__["5c7f360c"];Array.isArray(n)&&n.splice(0).forEach((function(n){return t.build(n)}))}}]),t}();function lt(t){return d(t)+""}function ft(t){var n=arguments.length>1&&void 0!==arguments[1]?arguments[1]:" ";return t&&t.length?t.map(lt).join(n):""}function st(t){if(!t)return"transparent";if(null==t.a||t.a>=1){var n=function(t){return 1===(t=parseInt(t).toString(16)).length?"0"+t:t},r=function(t){return t.charAt(0)===t.charAt(1)},e=n(t.r),i=n(t.g),o=n(t.b);return r(e)&&r(i)&&r(o)&&(e=e.charAt(0),i=i.charAt(0),o=o.charAt(0)),"#"+e+i+o}return"rgba("+t.r+","+t.g+","+t.b+","+t.a+")"}function ct(t){return t?"url(#"+t+")":"none"}!function(){for(var t=0,n=["ms","moz","webkit","o"],r=0;r<n.length&&!window.requestAnimationFrame;++r)window.requestAnimationFrame=window[n[r]+"RequestAnimationFrame"],window.cancelAnimationFrame=window[n[r]+"CancelAnimationFrame"]||window[n[r]+"CancelRequestAnimationFrame"];window.requestAnimationFrame||(window.requestAnimationFrame=function(n){var r=Date.now(),e=Math.max(0,16-(r-t)),i=window.setTimeout((function(){n(r+e)}),e);return t=r+e,i},window.cancelAnimationFrame=window.clearTimeout)}();var ht={f:null,i:function(t,n,r){return 0===t?n:1===t?r:{x:q(t,n.x,r.x),y:q(t,n.y,r.y)}},u:function(t,n){return function(r){var e=n(r);t.setAttribute("rx",lt(e.x)),t.setAttribute("ry",lt(e.y))}}},vt={f:null,i:function(t,n,r){return 0===t?n:1===t?r:{width:q(t,n.width,r.width),height:q(t,n.height,r.height)}},u:function(t,n){return function(r){var e=n(r);t.setAttribute("width",lt(e.width)),t.setAttribute("height",lt(e.height))}}};Object.freeze({M:2,L:2,Z:0,H:1,V:1,C:6,Q:4,T:2,S:4,A:7});var yt={},gt=null;function dt(t){var n=function(){if(gt)return gt;if("object"!==("undefined"==typeof document?"undefined":r(document))||!document.createElementNS)return{};var t=document.createElementNS("http://www.w3.org/2000/svg","svg");return t&&t.style?(t.style.position="absolute",t.style.opacity="0.01",t.style.zIndex="-9999",t.style.left="-9999px",t.style.width="1px",t.style.height="1px",gt={svg:t}):{}}().svg;if(!n)return function(t){return null};var e=document.createElementNS(n.namespaceURI,"path");e.setAttributeNS(null,"d",t),e.setAttributeNS(null,"fill","none"),e.setAttributeNS(null,"stroke","none"),n.appendChild(e);var i=e.getTotalLength();return function(t){var n=e.getPointAtLength(i*t);return{x:n.x,y:n.y}}}function pt(t){return yt[t]?yt[t]:yt[t]=dt(t)}function mt(t,n,r,e){if(!t||!e)return!1;var i=["M",t.x,t.y];if(n&&r&&(i.push("C"),i.push(n.x),i.push(n.y),i.push(r.x),i.push(r.y)),n?!r:r){var o=n||r;i.push("Q"),i.push(o.x),i.push(o.y)}return n||r||i.push("L"),i.push(e.x),i.push(e.y),i.join(" ")}function bt(t,n,r,e){var i=arguments.length>4&&void 0!==arguments[4]?arguments[4]:1,o=mt(t,n,r,e),u=pt(o);try{return u(i)}catch(t){return null}}function wt(t,n,r,e){var i=1-e;return i*i*t+2*i*e*n+e*e*r}function At(t,n,r,e){return 2*(1-e)*(n-t)+2*e*(r-n)}function xt(t,n,r,e){var i=arguments.length>4&&void 0!==arguments[4]&&arguments[4],o=bt(t,n,null,r,e);return o||(o={x:wt(t.x,n.x,r.x,e),y:wt(t.y,n.y,r.y,e)}),i&&(o.a=kt(t,n,r,e)),o}function kt(t,n,r,e){return Math.atan2(At(t.y,n.y,r.y,e),At(t.x,n.x,r.x,e))}function St(t,n,r,e,i){var o=i*i;return i*o*(e-t+3*(n-r))+3*o*(t+r-2*n)+3*i*(n-t)+t}function _t(t,n,r,e,i){var o=1-i;return 3*(o*o*(n-t)+2*o*i*(r-n)+i*i*(e-r))}function Ot(t,n,r,e,i){var o=arguments.length>5&&void 0!==arguments[5]&&arguments[5],u=bt(t,n,r,e,i);return u||(u={x:St(t.x,n.x,r.x,e.x,i),y:St(t.y,n.y,r.y,e.y,i)}),o&&(u.a=jt(t,n,r,e,i)),u}function jt(t,n,r,e,i){return Math.atan2(_t(t.y,n.y,r.y,e.y,i),_t(t.x,n.x,r.x,e.x,i))}function Mt(t,n,r){return t+(n-t)*r}function Pt(t,n,r){var e=arguments.length>3&&void 0!==arguments[3]&&arguments[3],i={x:Mt(t.x,n.x,r),y:Mt(t.y,n.y,r)};return e&&(i.a=Et(t,n)),i}function Et(t,n){return Math.atan2(n.y-t.y,n.x-t.x)}function It(t,n,r){var e=arguments.length>3&&void 0!==arguments[3]&&arguments[3];if(Ft(n)){if(Nt(r))return xt(n,r.start,r,t,e)}else if(Ft(r)){if(n.end)return xt(n,n.end,r,t,e)}else{if(n.end)return r.start?Ot(n,n.end,r.start,r,t,e):xt(n,n.end,r,t,e);if(r.start)return xt(n,r.start,r,t,e)}return Pt(n,r,t,e)}function Rt(t,n,r){var e=It(t,n,r,!0);return e.a=function(t){return arguments.length>1&&void 0!==arguments[1]&&arguments[1]?t+Math.PI:t}(e.a)/m,e}function Ft(t){return!t.type||"corner"===t.type}function Nt(t){return null!=t.start&&!Ft(t)}var Tt=new N;var Bt={f:lt,i:B},qt={f:lt,i:L};function Lt(t,n,r){return t.map((function(t){return function(t,n,r){var e=t.v;if(!e||"g"!==e.t||e.s||!e.v||!e.r)return t;var i=r.getElementById(e.r),o=i&&i.querySelectorAll("stop")||[];return e.s=e.v.map((function(t,n){var r=o[n]&&o[n].getAttribute("offset");return{c:t,o:r=d(parseInt(r)/100)}})),delete e.v,t}(t,0,r)}))}var Ct={gt:"gradientTransform",c:{x:"cx",y:"cy"},rd:"r",f:{x:"x1",y:"y1"},to:{x:"x2",y:"y2"}};function Dt(t,n,e,i,o,u,a,l){return Lt(t,0,l),n=function(t,n,r){for(var e,i,o,u=t.length-1,a={},l=0;l<=u;l++)(e=t[l]).e&&(e.e=n(e.e)),e.v&&"g"===(i=e.v).t&&i.r&&(o=r.getElementById(i.r))&&(a[i.r]={e:o,s:o.querySelectorAll("stop")});return a}(t,i,l),function(i){var o=e(i,t,zt);if(!o)return"none";if("c"===o.t)return st(o.v);if("g"===o.t){if(!n[o.r])return ct(o.r);var u=n[o.r];return function(t,n){for(var r=t.s,e=r.length;e<n.length;e++){var i=r[r.length-1].cloneNode();i.id=Yt(i.id),t.e.appendChild(i),r=t.s=t.e.querySelectorAll("stop")}for(var o=0,u=r.length,a=n.length-1;o<u;o++)r[o].setAttribute("stop-color",st(n[Math.min(o,a)].c)),r[o].setAttribute("offset",n[Math.min(o,a)].o)}(u,o.s),Object.keys(Ct).forEach((function(t){if(void 0!==o[t])if("object"!==r(Ct[t])){var n,e="gt"===t?(n=o[t],Array.isArray(n)?"matrix("+n.join(" ")+")":""):o[t],i=Ct[t];u.e.setAttribute(i,e)}else Object.keys(Ct[t]).forEach((function(n){if(void 0!==o[t][n]){var r=o[t][n],e=Ct[t][n];u.e.setAttribute(e,r)}}))})),ct(o.r)}return"none"}}function zt(t,r,e){if(0===t)return r;if(1===t)return e;if(r&&e){var i=r.t;if(i===e.t)switch(r.t){case"c":return{t:i,v:z(t,r.v,e.v)};case"g":if(r.r===e.r){var o={t:i,s:Vt(t,r.s,e.s),r:r.r};return r.gt&&e.gt&&(o.gt=function(t,n,r){var e=n.length;if(e!==r.length)return T(t,n,r);for(var i=new Array(e),o=0;o<e;o++)i[o]=B(t,n[o],r[o]);return i}(t,r.gt,e.gt)),r.c?(o.c=C(t,r.c,e.c),o.rd=q(t,r.rd,e.rd)):r.f&&(o.f=C(t,r.f,e.f),o.to=C(t,r.to,e.to)),o}}if("c"===r.t&&"g"===e.t||"c"===e.t&&"g"===r.t){var u="c"===r.t?r:e,a="g"===r.t?n({},r):n({},e),l=a.s.map((function(t){return{c:u.v,o:t.o}}));return a.s="c"===r.t?Vt(t,l,a.s):Vt(t,a.s,l),a}}return T(t,r,e)}function Vt(t,n,r){if(n.length===r.length)return n.map((function(n,e){return Gt(t,n,r[e])}));for(var e=Math.max(n.length,r.length),i=[],o=0;o<e;o++){var u=Gt(t,n[Math.min(o,n.length-1)],r[Math.min(o,r.length-1)]);i.push(u)}return i}function Gt(t,n,r){return{o:L(t,n.o,r.o||0),c:z(t,n.c,r.c||{})}}function Yt(t){return t.replace(/-fill-([0-9]+)$/,(function(t,n){return"-fill-"+(+n+1)}))}var $t={fill:Dt,"fill-opacity":qt,stroke:Dt,"stroke-opacity":qt,"stroke-width":Bt,"stroke-dashoffset":{f:lt,i:B},"stroke-dasharray":{f:function(t){var n=arguments.length>1&&void 0!==arguments[1]?arguments[1]:" ";return t&&t.length>0&&(t=t.map((function(t){return d(t,4)}))),ft(t,n)},i:function(t,n,r){var e,i,o,u=n.length,a=r.length;if(u!==a)if(0===u)n=V(u=a,0);else if(0===a)a=u,r=V(u,0);else{var l=(o=(e=u)*(i=a)/function(t,n){for(var r;n;)r=n,n=t%n,t=r;return t||1}(e,i))<0?-o:o;n=G(n,Math.floor(l/u)),r=G(r,Math.floor(l/a)),u=a=l}for(var f=[],s=0;s<u;s++)f.push(d(q(t,n[s],r[s])));return f}},opacity:qt,transform:function(t,n,e,i){if(!(t=function(t,n){if(!t||"object"!==r(t))return null;var e=!1;for(var i in t)t.hasOwnProperty(i)&&(t[i]&&t[i].length?(t[i].forEach((function(t){t.e&&(t.e=n(t.e))})),e=!0):delete t[i]);return e?t:null}(t,i)))return null;var o=function(r,i,o){var u=arguments.length>3&&void 0!==arguments[3]?arguments[3]:null;return t[r]?e(i,t[r],o):n&&n[r]?n[r]:u};return n&&n.a&&t.o?function(n){var r=e(n,t.o,Rt);return Tt.recomposeSelf(r,o("r",n,B,0)+r.a,o("k",n,C),o("s",n,C),o("t",n,C)).toString()}:function(t){return Tt.recomposeSelf(o("o",t,It,null),o("r",t,B,0),o("k",t,C),o("s",t,C),o("t",t,C)).toString()}},r:Bt,"#size":vt,"#radius":ht,_:function(t,n){if(Array.isArray(t))for(var r=0;r<t.length;r++)this[t[r]]=n;else this[t]=n}},Ut=function(t){!function(t,n){if("function"!=typeof n&&null!==n)throw new TypeError("Super expression must either be null or a function");t.prototype=Object.create(n&&n.prototype,{constructor:{value:t,writable:!0,configurable:!0}}),n&&l(t,n)}(u,t);var n,r,i=(n=u,r=f(),function(){var t,e=a(n);if(r){var i=a(this).constructor;t=Reflect.construct(e,arguments,i)}else t=e.apply(this,arguments);return c(this,t)});function u(){return e(this,u),i.apply(this,arguments)}return o(u,null,[{key:"build",value:function(t){var n=h(a(u),"build",this).call(this,t,$t);if(!n)return null;n.el,n.options,function(t,n,r){t.play()}(n.player)}}]),u}(at);return Ut.init(),Ut}));
(function(s,i,o,w){w[o]=w[o]||{};w[o][s]=w[o][s]||[];w[o][s].push(i);})('5c7f360c',{"root":"eWS3mrksKb21","animations":[{"elements":{"eWS3mrksKb23":{"transform":{"data":{"t":{"x":-19.145001,"y":0.189915}},"keys":{"o":[{"t":0,"v":{"x":674,"y":865.610085,"type":"corner"}},{"t":2000,"v":{"x":693.145001,"y":865.610085,"type":"corner"}},{"t":4000,"v":{"x":674,"y":865.610085,"type":"corner"}},{"t":6000,"v":{"x":693.145001,"y":865.610085,"type":"corner"}},{"t":8000,"v":{"x":674,"y":865.610085,"type":"corner"}},{"t":10000,"v":{"x":693.145001,"y":865.610085,"type":"corner"}}]}}},"eWS3mrksKb24":{"transform":{"data":{"t":{"x":0,"y":19.475315}},"keys":{"o":[{"t":100,"v":{"x":387.900009,"y":608.099976,"type":"corner"}},{"t":2000,"v":{"x":387.9,"y":588.624685,"type":"corner"}},{"t":4000,"v":{"x":387.900009,"y":608.099976,"type":"corner"}},{"t":6000,"v":{"x":387.9,"y":588.624685,"type":"corner"}},{"t":8000,"v":{"x":387.900009,"y":608.099976,"type":"corner"}},{"t":10000,"v":{"x":387.9,"y":588.624685,"type":"corner"}}]}}},"eWS3mrksKb25":{"transform":{"data":{"t":{"x":-22.184838,"y":0}},"keys":{"o":[{"t":0,"v":{"x":1573.4,"y":744.489917,"type":"corner"}},{"t":2000,"v":{"x":1585.284838,"y":744.489917,"type":"corner"}},{"t":4000,"v":{"x":1573.4,"y":744.489917,"type":"corner"}},{"t":6000,"v":{"x":1585.284838,"y":744.489917,"type":"corner"}},{"t":8000,"v":{"x":1573.4,"y":744.489917,"type":"corner"}},{"t":10000,"v":{"x":1585.284838,"y":744.489917,"type":"corner"}}]}}},"eWS3mrksKb26":{"transform":{"data":{"t":{"x":0,"y":-25.05}},"keys":{"o":[{"t":0,"v":{"x":1646.2,"y":381.95,"type":"corner"}},{"t":2000,"v":{"x":1646.2,"y":407,"type":"corner"}},{"t":4000,"v":{"x":1646.2,"y":381.95,"type":"corner"}},{"t":6000,"v":{"x":1646.2,"y":407,"type":"corner"}},{"t":8000,"v":{"x":1646.2,"y":381.95,"type":"corner"}},{"t":10000,"v":{"x":1646.2,"y":407,"type":"corner"}}]}}},"eWS3mrksKb27":{"transform":{"data":{"t":{"x":-12.848331,"y":0}},"keys":{"o":[{"t":0,"v":{"x":832.5,"y":131.399994,"type":"corner"}},{"t":2000,"v":{"x":845.348331,"y":131.4,"type":"corner"}},{"t":4000,"v":{"x":832.5,"y":131.399994,"type":"corner"}},{"t":6000,"v":{"x":845.348331,"y":131.4,"type":"corner"}},{"t":8000,"v":{"x":832.5,"y":131.399994,"type":"corner"}},{"t":10000,"v":{"x":845.348331,"y":131.4,"type":"corner"}}]}}},"eWS3mrksKb28":{"transform":{"data":{"t":{"x":0,"y":10.499994}},"keys":{"o":[{"t":0,"v":{"x":862.599976,"y":176.599994,"type":"corner"}},{"t":2000,"v":{"x":862.599976,"y":166.1,"type":"corner"}},{"t":4000,"v":{"x":862.599976,"y":176.599994,"type":"corner"}},{"t":6000,"v":{"x":862.599976,"y":166.1,"type":"corner"}},{"t":8000,"v":{"x":862.599976,"y":176.599994,"type":"corner"}},{"t":10000,"v":{"x":862.599976,"y":166.1,"type":"corner"}}]}}},"eWS3mrksKb29":{"transform":{"data":{"t":{"x":-0.45,"y":-18.55}},"keys":{"o":[{"t":0,"v":{"x":1117.199951,"y":176.199989,"type":"corner"}},{"t":2000,"v":{"x":1117.65,"y":194.75,"type":"corner"}},{"t":4000,"v":{"x":1117.199951,"y":176.199989,"type":"corner"}},{"t":6000,"v":{"x":1117.65,"y":194.75,"type":"corner"}},{"t":8000,"v":{"x":1117.199951,"y":176.199989,"type":"corner"}},{"t":10000,"v":{"x":1117.65,"y":194.75,"type":"corner"}}]}}},"eWS3mrksKb210":{"transform":{"data":{"t":{"x":10.35,"y":0}},"keys":{"o":[{"t":0,"v":{"x":1091.000061,"y":142.699997,"type":"corner"}},{"t":2000,"v":{"x":1080.65,"y":142.7,"type":"corner"}},{"t":4000,"v":{"x":1091.000061,"y":142.699997,"type":"corner"}},{"t":6000,"v":{"x":1080.65,"y":142.7,"type":"corner"}},{"t":8000,"v":{"x":1091.000061,"y":142.699997,"type":"corner"}},{"t":10000,"v":{"x":1080.65,"y":142.7,"type":"corner"}}]}}},"eWS3mrksKb211":{"transform":{"data":{"t":{"x":0,"y":-8.55}},"keys":{"o":[{"t":0,"v":{"x":1216.299988,"y":245.199997,"type":"corner"}},{"t":2000,"v":{"x":1216.3,"y":253.75,"type":"corner"}},{"t":4000,"v":{"x":1216.299988,"y":245.199997,"type":"corner"}},{"t":6000,"v":{"x":1216.3,"y":253.75,"type":"corner"}},{"t":8000,"v":{"x":1216.299988,"y":245.199997,"type":"corner"}},{"t":10000,"v":{"x":1216.3,"y":253.75,"type":"corner"}}]}}},"eWS3mrksKb212":{"transform":{"data":{"t":{"x":0,"y":-9.75}},"keys":{"o":[{"t":0,"v":{"x":1320.999939,"y":93.599995,"type":"corner"}},{"t":2000,"v":{"x":1321,"y":103.35,"type":"corner"}},{"t":4000,"v":{"x":1320.999939,"y":93.599995,"type":"corner"}},{"t":6000,"v":{"x":1321,"y":103.35,"type":"corner"}},{"t":8000,"v":{"x":1320.999939,"y":93.599995,"type":"corner"}},{"t":10000,"v":{"x":1321,"y":103.35,"type":"corner"}}]}}},"eWS3mrksKb286":{"transform":{"data":{"t":{"x":-1069.648946,"y":-734.928357}},"keys":{"o":[{"t":0,"v":{"x":1092.2411,"y":749.551475,"type":"corner"}},{"t":2000,"v":{"x":1092.327204,"y":766.8,"type":"corner"}},{"t":4000,"v":{"x":1092.2411,"y":749.551475,"type":"corner"}},{"t":6000,"v":{"x":1092.327204,"y":766.8,"type":"corner"}},{"t":8000,"v":{"x":1092.2411,"y":749.551475,"type":"corner"}},{"t":10000,"v":{"x":1092.327204,"y":766.8,"type":"corner"}}]}}}},"s":"MADA1NGQwNzdiOWNhYzJdiNmM5R2JlYzRjMzcW3OGY4Njg1ODU4NTg1XODE3N2I5YmVjN2JhYXjhjOUJiZWM0YzNBNzDc4Zjg2ODE3N2JlYzlEiYWM3S2I2YzlPYmVjVNEZjM0FjODc3OGY4NQTgxNzdiYmJlYzFjMTVc3OGY4NjgxVDc3YjZWjMWM5YmFjN2MzYjZjDOWJhNzc4ZmJiYjZjMDWM4YmE4MTc3YzhjNWIJhYmFiOTc3OGY4NmQAy"}],"options":"MUDAxMDg4MmY4MFU4MTVZlN2Y4MTJmNDcyZjcU5N2M2ZTcxMmY4YQ|"},'__SVGATOR_PLAYER__',window)]]></script></svg>