<?xml version="1.0" encoding="utf-8"?>
<!-- Generator: Adobe Illustrator 19.0.0, SVG Export Plug-In . SVG Version: 6.00 Build 0)  -->
<svg version="1.1" id="Layer_1" xmlns="http://www.w3.org/2000/svg" xmlns:xlink="http://www.w3.org/1999/xlink" x="0px" y="0px"
	 viewBox="0 0 1000 1000" style="enable-background:new 0 0 1000 1000;" xml:space="preserve">
<style type="text/css">
	.st0{fill:#8CD2D7;}
	.st1{fill:#FFFFFF;}
	.st2{fill:#AF6AAC;}
	.st3{fill:#724772;}
	.st4{fill:#DFBCD6;}
	.st5{fill:#6C416D;}
	.st6{fill:#FAA74A;}
	.st7{fill:#07080C;}
	.st8{fill:#364FA0;}
	.st9{fill:#F7DEB8;}
	.st10{fill:#3E73B6;}
	.st11{fill:#192850;}
	.st12{fill:#518BC8;}
	.st13{fill:#1D2B58;}
	.st14{fill:none;}
	.st15{fill:#DDC6A6;}
	.st16{opacity:0.25;fill:url(#XMLID_4_);}
	.st17{fill:#4C6AB2;}
</style>
<path id="XMLID_6_" class="st0" d="M605.9,238.1c-10.3-12.8-36.4-9.8-36.4-9.8c-31.5-39.9-79.8-29.4-79.8-29.4
	c-19-41.6-65.1-39.2-65.1-39.2c-61.6,0.8-69.7,44.5-69.7,44.5c-2.4-5.2-12.8-11.1-12.8-11.1c-44.8-20.6-65.9,19.8-65.9,19.8
	c-39.1-13-65.9,14.7-65.9,14.7c-45.8-12.2-55.6,10.6-55.6,10.6H605.9z"/>
<g id="XMLID_2_">
	<path id="XMLID_33_" class="st1" d="M578.4,625.6l15-7.2l-0.4-1l0.1-4l-0.1-2.6l-0.3-5.4l-1.4-15.6l-0.9-8.3l-2.2-17.6
		c0,0-3.3-24.2-17.9-42.5l-2,8.5l-13.7,4.9c0,0,12.3,5.2,20.6,21.7c0,0,6,17,6.2,32.6l-0.7,16.4L578.4,625.6z"/>
	<polygon id="XMLID_7_" class="st2" points="719.5,614.2 664.5,702.5 343.3,780.6 354.9,783.9 703.9,724.2 756.7,628.7 	"/>
	<path id="XMLID_5_" class="st3" d="M430.1,763.7l-22,7.1l175-31.4l72.6-13l1.4-11.5c0,0-8.1,2.6-48.2,4.5c0,0-10.3-1-20.2,6.8
		c0,0-17.8,9.9-54.5,14.6c0,0-52,8.6-84.2,17.7L430.1,763.7z"/>
	<polygon id="XMLID_9_" class="st2" points="354.9,783.9 705.6,726.7 703.9,724.2 	"/>
	<polygon id="XMLID_8_" class="st2" points="969.4,630.5 876.3,552 806.8,700.3 759.1,634.3 705.6,726.7 703.9,724.2 756.7,628.7 
		759.1,628.7 783.5,662.5 839.8,538.6 873.9,545.5 938.9,600.3 927.8,301.7 906.9,301.7 950.3,239.8 994,301.3 970.5,301.7 
		971.8,630.5 	"/>
	<polygon id="XMLID_11_" class="st4" points="812.3,677 849,601.7 858.9,579.1 863.6,568.3 871.6,548 860.6,568.6 853,583.8 
		843.4,604.6 834,624.7 	"/>
	<polygon id="XMLID_12_" class="st4" points="950.7,242.6 950.7,251.9 987.5,297.7 	"/>
	<polygon id="XMLID_10_" class="st5" points="806.8,700.3 766.5,688.3 745.9,657.1 759.1,634.3 	"/>
	<polygon id="XMLID_13_" class="st5" points="870.1,565.2 938.1,624 969.4,630.5 876.3,552 	"/>
	<polygon id="XMLID_14_" class="st5" points="971.8,630.5 974.2,630.5 975.8,301.6 970.5,301.7 	"/>
	<polygon id="XMLID_15_" class="st5" points="994,301.3 1000,301.6 956,239.8 950.3,239.8 	"/>
	<path id="XMLID_17_" class="st6" d="M939.8,348.9l-1.4-2.2c-3.9-5.3-8.1-4-8.1-4c-2.6,1.2-0.7,5.4-0.7,5.4
		c-1.4-0.7-2.5,0.6-2.5,0.6c-0.8,2.1,1.6,2.9,1.6,2.9l4.5,0.5l-1.8,1.4h-3.1c-2.6,0.1-1.5,2.9-1.5,2.9L680.3,547.5l2.5,2.7
		L932,357.3l2.9-0.1l-0.5,27.7c0,0,0.7,2.1,2.1,2c0,0,1.8,0,1.5-2.4l-0.1-7.2c0,0,3.2,1.3,3.3-1.2v-5.8l-0.7-3.1
		c0,0,0.1-1.4,0.1-1.6c0-0.2-0.2-1.3-0.2-1.3l-0.3-1.3c0,0,4.9,2.6,6.3-0.7c0,0,1.4-2,0-5.8l29.5-0.2c0,0,1.6-0.9,0.8-2.5
		c0,0,2.6-2.2,0-3.4l-13.1-0.3l12-1.4c0,0,2.6-0.8,1.3-2.8l-35.8,2.8L939.8,348.9z"/>
	<path id="XMLID_18_" class="st2" d="M939.7,356.7c0,0,1.8,4.2,3.5,3.7c0,0,0.4-1.8-0.7-3.7H939.7z"/>
	<path id="XMLID_20_" class="st2" d="M931.5,345.7c0,0,1.1,2.7,2.2,2.3c0,0,0.3-1.1-0.5-2.3H931.5z"/>
	<polygon id="XMLID_16_" class="st2" points="944.3,353.5 964.8,353.1 944.3,352.3 	"/>
	<path id="XMLID_22_" class="st7" d="M414.9,768.8l17.3-5.7v-5.9l7.4-4.9l-3.9-1.6c0,0-7.1,6.5-11.9-0.9c0,0,0.9-2.4,2-2.6l-6.5,4.3
		l-14,9l-14,10.4c0,0,0.7,5.9,22.9-2"/>
	<path id="XMLID_19_" class="st7" d="M658.5,709.1l-1.4,5.8l-1.4,11.5c14.7-0.1,31.7-6.1,31.7-6.1s-7.8-5.2-18.2-5.1l0.9-2.8
		l-2.3-0.9c0,0-1.1,4-6.4,3.8C661.5,715.4,658.6,716,658.5,709.1z"/>
	<path id="XMLID_21_" class="st8" d="M620.7,613.3c29.8-8.3,71.7-8,71.7-8v6.1l-0.5,6.2l-1.2,10.6l-1.6,11l-3.3,15.6l-5.3,22
		l-1.3,6.3l-2.1,7.8l-5.5,21.8l-15.4-4c3.7-8.9,6.5-71.7,6.5-71.7h-0.9c-23.4,2.9-94.4,36.4-94.4,36.4l-4.3,2l-7.9,3.9l-7.5,3.6
		c0,0-7.1,4.5-7.5,4.4c-0.4-0.1-27.3,14.7-27.3,14.7l-1.4,3.1l-3.7,3c0,0-4.1,3.2-4.3,3.3s-8,5.6-8,5.6l-8.2,4.9l-10.7,6.1
		l-12.3,8.3l-10.1,8l-11.9,8.7l-19.5-7l41.3-35.7l23.6-20.3l9.1-7.6l8.9-7.2l4.5-3.7l4.8-4.1l2.9-2.7l60.4-39l15-7.2L620.7,613.3z"
		/>
	<path id="XMLID_24_" class="st9" d="M658.5,709.1c0,0,0.6,12.1,9.4,2.4L658.5,709.1z"/>
	<path id="XMLID_25_" class="st9" d="M435.7,750.7c0,0-6.8,6.2-11.9-0.9c0,0-0.1-1.5,2-2.6L435.7,750.7z"/>
	<path id="XMLID_26_" class="st10" d="M526.5,563.7l0.4,10.2l1.3,9.8l3.2,11.5l10.2,32.1L518,664.6c31.7,0.7,49.4,8.8,49.4,8.8
		l3.7-11.5l2.4-16.4l0.5-7.3v-14.4v-10.7v-8.5v-6l-1.4-4.1l-0.5-3.7l-0.5-3.6l-1.9-9.6l-2-11l-1.5-4.3l-1.2-5.1l-5.2-4.3
		c0,0-1.1-1.1-1.5-1.4c-0.5-0.4-1.7-1.9-1.7-1.9s-1-1.6-1.4-2.1s-0.9-1.3-1.4-1.6c-0.5-0.4-2.4-1.8-2.4-1.8l-2.1-1.4l-2.1-1.2
		l-2.8-1.4l-3.3-1.3l-5-1.2c0,0-10.4,11.7-10.5,23.2L526.5,563.7z"/>
	<path id="XMLID_27_" class="st11" d="M575.4,540.1l0.1,9.8c0.9,21.9-12.4,37.5-12.4,37.5c-10.5,15.7-41.7,29.6-41.7,29.6v11.8
		l15.2-1.1c0,0,28.3-14.7,37.3-39.2c0,0,7.4-15.7,6.3-38.7l-2.8-12.2l-0.9-6.9l-4.3-3.3l-4.7,4.4l0.2,6.1L575.4,540.1z"/>
	<path id="XMLID_28_" class="st12" d="M571.1,661.9c0,0,7.6-27,7.3-36.3l2.5-20.3l0.7-16.4c0,0-1.2-26.8-8.7-37
		c0,0-13.1-23.7-35.1-19.3l-1.6,5.2c0,0,10.1,1.5,17.5,8.1c0,0,4.7,6.8,11.3,11.4l1.2,5.1l1.5,4.3l2,11c0,0,2.6,12.5,2.8,16.9
		l1.4,4.1v39.5C574,638.2,572.1,658.7,571.1,661.9z"/>
	<path id="XMLID_29_" class="st10" d="M593.4,618.4c3.1,6.5-3.3,41.8-3.3,41.8s29.3-21.7,30.6-46.8l-17.7-6.7l2.4-18.9
		c0,0,3.9-23.5,1.2-35.8c0,0-2.2-21.3-18-34.5l-16.5,0.8c0,0-4.2-3.9-6.8-3.3c0,0,18.2,17.9,23.1,48.7c0,0,5.7,41.8,4.7,53.6
		L593.4,618.4z"/>
	
		<ellipse id="XMLID_23_" transform="matrix(0.9194 -0.3933 0.3933 0.9194 -198.846 280.8669)" class="st11" cx="586" cy="625.7" rx="5.1" ry="2.6"/>
	<path id="XMLID_31_" class="st13" d="M597.8,588.8c1.5,6-2,29.1-2,29.1s1.2-25.7,0.3-29.1l-0.3-34.5l2.4,0.8L597.8,588.8z"/>
	<polyline id="XMLID_30_" class="st14" points="595.8,554.2 595.8,550.2 589.5,547.7 592.1,537.7 572,518.3 	"/>
	<polygon id="XMLID_32_" class="st13" points="583.2,529.1 592.1,537.7 589.5,547.7 593,549.1 594.3,537.7 	"/>
	<path id="XMLID_35_" class="st15" d="M558.2,504.7c0.1,0.2,7.1,10.4,7.1,10.4l5.2,6.2l-2,8.5l-13.7,4.9c0,0-7.8-3.7-13.7-2.5
		l0.5-3.2c0,0,12.8-4.9,13.7-21.2l0.9-3H558.2z"/>
	<path id="XMLID_34_" class="st9" d="M541.6,528.9c0,0-5.3,3.2-6.7,2.4l-10.8-22.5c0,0,12.4-1.9,15.4-7.5c0,0,2.5,2.4,5.2,1.8
		l5.3,8.1l1.5-3l-2.4-4.8c0,0-0.9-7,3.2-5.8c0,0,4,0.2,3.8,7.1l-0.9,3C555.2,507.7,555.4,522,541.6,528.9z"/>
	<path id="XMLID_36_" class="st7" d="M524.1,508.7c0,0-12.9,1.3-16-9.5c0,0,6,1.1,10-1.3c0,0-4.3-1.5-4.4-4.3c0,0,3.1,2.1,8.8,1.5
		l12.6-10.3c0,0,5-3.4,10.6,1.4c0,0,1.9,1.3,6.9,0.9c0,0,4.4,5.2,5.7,17.5h-2.1c0,0,0.3-6.9-3.8-7.1c0,0-3.9-1.6-3.2,5.8l2.4,4.8
		l-1.5,3l-5.3-8.1c0,0-2.9,0.3-5.2-1.8C539.5,501.2,536.1,507.1,524.1,508.7z"/>
	<linearGradient id="XMLID_4_" gradientUnits="userSpaceOnUse" x1="354.8562" y1="767.0053" x2="943.233" y2="767.0053">
		<stop  offset="0" style="stop-color:#000000"/>
		<stop  offset="1" style="stop-color:#FFFFFF"/>
	</linearGradient>
	<polygon id="XMLID_37_" class="st16" points="354.9,783.9 943.2,779.2 943.2,750.2 555.7,751.1 	"/>
	<path id="XMLID_39_" class="st13" d="M664.7,569.7c-29.2,19.8-76.9,19.9-76.9,19.9c-49.9,2-58.7-18.4-58.7-18.4
		s23.3,25.6,84.8,14.1c0,0,37.7-10.2,49.8-17.1L664.7,569.7z"/>
	<path id="XMLID_38_" class="st8" d="M529,571.2c0,0-5.8-8.7-1.2-19.9c0,0,10.1-12.1,29.1,1l11.4-0.4l-2.4,4.5
		c0,0,16.3,11.8,63.1,7.9c0,0,25.4-5,30.7-10l3.9,14C663.6,568.2,577.7,611.5,529,571.2z"/>
	<polygon id="XMLID_40_" class="st17" points="663.6,568.2 670.3,564.9 665.8,552.6 659.9,555.1 	"/>
	<path id="XMLID_41_" class="st9" d="M669.5,562.8l2.6-1.6c0,0,11.1,0.2,11.6-7c0,0,1.3-5.8-6-5.6l-3.5-0.9l-7.6,7L669.5,562.8z"/>
	<path id="XMLID_43_" class="st13" d="M605.9,547.7l-1.7-6.2c0,0,31.5,11.2,58.7,8.7C662.8,550.2,622.9,554,605.9,547.7"/>
	<path id="XMLID_42_" class="st14" d="M605.9,547.7"/>
	<path id="XMLID_44_" class="st8" d="M588.6,517.5l3.2,2.9c0,0,42.1,18.3,89.5,13.6v15.2l-18.4,1c0,0-24.2,2.7-58.7-8.7
		C604.2,541.5,600.9,528,588.6,517.5z"/>
	<polygon id="XMLID_45_" class="st17" points="681.2,534.8 688.6,534.8 688.6,541.1 681.2,546.4 	"/>
	<path id="XMLID_46_" class="st9" d="M688.6,535.4h3.1c0,0,8-7.6,10.6-5c0,0,6.3,1.6,4.7,7.2c0,0-2.5,10.7-11.1,5.6l-7.2-2.7"/>
</g>
<path id="XMLID_1_" class="st0" d="M459.4,367.1c-10.3-12.8-36.4-9.8-36.4-9.8c-31.5-39.9-79.8-29.4-79.8-29.4
	c-19-41.6-65.1-39.2-65.1-39.2c-61.6,0.8-69.7,44.5-69.7,44.5c-2.4-5.2-12.8-11.1-12.8-11.1c-44.8-20.6-65.9,19.8-65.9,19.8
	c-39.1-13-65.9,14.7-65.9,14.7C18,344.3,8.2,367.1,8.2,367.1H459.4z"/>
</svg>
