<?xml version="1.0" encoding="utf-8"?>
<!-- Generator: Adobe Illustrator 19.0.0, SVG Export Plug-In . SVG Version: 6.00 Build 0)  -->
<svg version="1.1" id="Layer_1" xmlns="http://www.w3.org/2000/svg" xmlns:xlink="http://www.w3.org/1999/xlink" x="0px" y="0px"
	 viewBox="0 0 1000 1000" style="enable-background:new 0 0 1000 1000;" xml:space="preserve">
<style type="text/css">
	.st0{fill:#4F69B1;}
	.st1{fill:#DADBDC;}
	.st2{fill:#58595B;}
	.st3{fill:#787878;}
	.st4{fill:#898989;}
	.st5{fill:#425B94;}
	.st6{fill:#8E558E;}
	.st7{fill:#AF6AAC;}
	.st8{fill:#9F5F9E;}
	.st9{fill:#DD9041;}
	.st10{fill:#FAA749;}
	.st11{fill:#7B9ACF;}
	.st12{fill:#5B7EBF;}
	.st13{fill:#F7F9F8;}
	.st14{fill:#698AC6;}
	.st15{fill:#E2F3F7;}
	.st16{fill:#F9FCFC;}
	.st17{fill:#F0F9FA;}
	.st18{fill:#6C89C5;}
	.st19{fill:#F0F8F6;}
	.st20{fill:#6685C3;}
	.st21{fill:#FFFFFD;}
	.st22{fill:#6185C3;}
	.st23{fill:#FBFCFE;}
	.st24{fill:#6684C2;}
	.st25{fill:#FCFDFB;}
	.st26{fill:#6A87C4;}
	.st27{fill:#FDFBFD;}
	.st28{fill:#6B8CC7;}
	.st29{fill:#FFFFFF;}
	.st30{fill:#6280C0;}
	.st31{fill:#061C2D;}
	.st32{fill:#081F2E;}
	.st33{fill:#ED186A;}
	.st34{fill:#FAB28F;}
	.st35{fill:#713C21;}
	.st36{fill:#9F60A0;}
	.st37{fill:#ED9649;}
	.st38{fill:none;}
	.st39{fill:#4866A0;}
	.st40{fill:#FADA0A;}
	.st41{fill:#F3D111;}
	.st42{fill:#F4D50E;}
	.st43{fill:#FCEF3E;}
	.st44{fill:#F8F29A;}
	.st45{fill:#F6CDC0;}
	.st46{fill:#69367B;}
	.st47{fill:#4D51A2;}
	.st48{fill:#082033;}
</style>
<path id="XMLID_23_" class="st0" d="M230,260.8l49.9,164.3L136.6,671.5c0,0-52.5-30.7-54.7-105.9c0,0-12.2-108.9,87.6-242.5
	C169.5,323.1,215.7,272.6,230,260.8z"/>
<ellipse id="XMLID_30_" class="st1" cx="693.6" cy="816.5" rx="57.8" ry="33.8"/>
<polygon id="XMLID_26_" class="st1" points="784.6,629.1 941.3,720.3 997.3,688.4 834,601.4 "/>
<polygon id="XMLID_28_" class="st1" points="311.3,863 492.7,964.9 537.4,937.1 362,836.2 "/>
<polygon id="XMLID_27_" class="st1" points="94.4,778.4 178.5,825.5 465.4,661.8 382.8,612.6 "/>
<path id="XMLID_3_" class="st2" d="M204.8,706.9l146.5-235.7L547,370.8c0,0,2.5,122.7-106.5,252.5
	C440.6,623.2,322.9,774.3,204.8,706.9z"/>
<polygon id="XMLID_1_" class="st3" points="204.8,706.9 154.6,671.9 283.9,433.1 351.3,471.2 "/>
<polyline id="XMLID_4_" class="st4" points="351.3,471.2 283.9,433.1 276.8,406.8 451.2,318.6 547,370.8 "/>
<path id="XMLID_6_" class="st0" d="M236.3,264.8l47.7,168.3L147,685.6c0,0-50.2-31.4-52.2-108.5c0,0-11.7-111.5,83.6-248.4
	C178.5,328.7,222.6,277,236.3,264.8z"/>
<path id="XMLID_7_" class="st5" d="M147,685.6l-89.7-50.7c0,0-56.3-27.4-56.8-121.7c0,0-6.6-30.9,15.7-98.9
	c0,0,31.4-126.2,127.2-202.8l92.8,53.2c0,0-101,89.4-131.9,223.7C104.4,488.5,61.9,621.2,147,685.6z"/>
<polygon id="XMLID_5_" class="st6" points="344.7,409.8 264.3,363.8 236.3,264.8 223.3,257.4 197.2,171 291,224.3 "/>
<path id="XMLID_8_" class="st7" d="M344.7,409.8l164.8-218c0,0-74.5-98.4-218.5,32.4L344.7,409.8z"/>
<path id="XMLID_9_" class="st8" d="M291,224.3L197.2,171c0,0,89.7-87.7,175.4-62.9l112,62.9C484.6,171,409.1,114.8,291,224.3z"/>
<path id="XMLID_10_" class="st9" d="M441.1,336.3l-29.2-15.4l97.6-129.1c0,0-18.5-20.5-34.1-26l-29.2-16.4L509.5,63l93.3,53.2
	L441.1,336.3z"/>
<path id="XMLID_13_" class="st10" d="M441.1,336.3l196.2-100.4c0,0,6.1-78.6-34.5-119.6L441.1,336.3z"/>
<polygon id="XMLID_11_" class="st11" points="403,407.8 414.8,409.8 529.7,868.2 518.6,866 "/>
<polygon id="XMLID_15_" class="st12" points="403,407.8 412.4,403.8 422.8,407.2 414.8,409.8 "/>
<polygon id="XMLID_16_" class="st13" points="422.8,407.2 537.4,864.1 529.7,868.2 414.8,409.8 "/>
<polygon id="XMLID_18_" class="st14" points="599.2,828.3 587.1,824.1 504.2,486.9 508.3,462.3 "/>
<polygon id="XMLID_17_" class="st15" points="532.1,843.1 529.1,831.1 591.4,795.2 594.1,807 "/>
<polyline id="XMLID_19_" class="st14" points="529.1,831.1 526.9,822.1 579.7,791.4 591.4,795.2 "/>
<polygon id="XMLID_20_" class="st16" points="599.2,828.3 608,824.9 509.5,431 505.8,445.7 505.2,449.4 506.2,452.9 507.1,457.8 
	508.3,462.3 "/>
<polygon id="XMLID_32_" class="st17" points="579.5,749.1 517.4,784.4 514.6,773 576.6,737.1 "/>
<polygon id="XMLID_21_" class="st18" points="514.6,773 512.2,763.6 574.3,727.8 576.6,737.1 "/>
<polygon id="XMLID_41_" class="st19" points="564.8,689.6 502.9,726.6 499.7,713.8 561.8,677.7 "/>
<polygon id="XMLID_37_" class="st20" points="499.7,713.8 497.6,705.4 559.3,667.7 561.8,677.7 "/>
<polygon id="XMLID_46_" class="st21" points="550.5,632.4 488.1,667.7 485.1,655.6 547.5,620.2 "/>
<polygon id="XMLID_44_" class="st22" points="485.1,655.6 482.5,645.3 545.3,611.3 547.5,620.2 "/>
<polygon id="XMLID_50_" class="st23" points="473.4,609 535.9,573.4 533,561.7 470.5,597.5 "/>
<polygon id="XMLID_52_" class="st24" points="470.5,597.5 468,587.5 530.4,551.4 533,561.7 "/>
<polygon id="XMLID_54_" class="st25" points="521.2,514.4 458,547.5 455.8,538.6 518.4,503.2 "/>
<polygon id="XMLID_57_" class="st26" points="455.8,538.6 453.2,528.5 516.1,493.7 518.4,503.2 "/>
<path id="XMLID_68_" class="st27" d="M462.2,401.9c-1.7,3.2-2.7,15.8-2.7,15.8l-30.4,14.7l-2.6-10.5L462.2,401.9z"/>
<path id="XMLID_72_" class="st28" d="M426.5,421.9l-2.7-10.7l41.6-23.1c0,0-3.4,10.1-3.2,13.9L426.5,421.9z"/>
<path id="XMLID_63_" class="st29" d="M441.4,481.2l29-17.4c0,0,1.3,4.6,0.7,11.1l-27.8,14.1L441.4,481.2z"/>
<path id="XMLID_66_" class="st30" d="M441.4,481.2l-2.7-10.8l28.5-16.8c0,0,3.1,5.5,3.2,10.3L441.4,481.2z"/>
<path id="XMLID_74_" class="st31" d="M458,523.5V517h10.3v-4.3h4.9v-44.9c0,0-10.5-21.8-12.6-41.4l0.4-18l17.3,7
	c0,0,11.2,8.2,9.7,36.7l0.6,72.2h-9.4c-1.7-2.2-6.9-1.7-6.9-1.7c-2.1,3.5-14.2,0.4-14.2,0.4"/>
<path id="XMLID_78_" class="st32" d="M488.4,518.9l10,0.9c0,0,11.6-55.5,5.7-66.9l6.8-32.5c0,0,1.5-15.2-0.6-15.4l-1-1.2
	c-18,16-31.3,11.6-31.3,11.6s10.8,6.7,9.7,36.7L488.4,518.9z"/>
<path id="XMLID_80_" class="st33" d="M504.1,327.8c3.4-1.1,15.1,6.3,15.1,6.3l2.1,16l-9.1,29.9l-2.7,23.8
	c-13.7,13.7-31.3,11.6-31.3,11.6l-17.3-7c0,0,4.6-33.9,9.4-38.9c0,0,1-4.3-4-3.3l-40.8-3.8l-20.6-33.8l6.1-5l18.7,21.2l43.1-0.6
	c0,0,5.2-2.4,0.1-4l-21.2-2.7l-26.1-29.4l7.2-6.2l24.3,20l21.2,2.1L504.1,327.8z"/>
<path id="XMLID_84_" class="st34" d="M479.2,321.7c-0.2,6.5,4.8,4.8,4.8,4.8l-0.7,7.3c0,0,0.6,4,10.2,2c0,0,14.4-3.3,9.9-12.2
	l2.2-17.7c0,0,1.6-2.6-13.2-8.7c0,0-12.8,1-14.7,6.6c0,0-0.9,4.9,0,5.9c0,0,1,0.8,1.1,2.9L479.2,321.7z"/>
<path id="XMLID_86_" class="st35" d="M503.3,323.7l-10.4,4.8c0,0-3.6,2.8-5.6-1.7c0,0-1.7-1.4-2-6.5c0,0,1.8-1.4,0.4-3.5
	c0,0-3,1.1-3.7,4.3c0,0-1.5-0.7-1.4-7.7c0,0,2.1-3.1,0-4.2l-3.3-1.3c0,0-3.4-9.1,15.1-10.6c0,0,12.4,4.7,13.2,8.7L503.3,323.7z"/>
<path id="XMLID_60_" class="st34" d="M425.6,308.1c0,0-1.2-1-1.2-3.8l5.4-6.9c0,0,1.5,1.6,1.4,6L425.6,308.1z"/>
<polygon id="XMLID_87_" class="st5" points="336.4,849.4 377.2,873.2 377.2,744.4 336.4,720.3 "/>
<polygon id="XMLID_92_" class="st6" points="399,861 399,885.1 438.3,907.9 438.3,807.5 399,784.4 "/>
<polygon id="XMLID_88_" class="st36" points="399,784.4 438.3,761.9 478.1,785 438.3,807.5 "/>
<polygon id="XMLID_97_" class="st7" points="438.3,807.5 438.3,907.9 453.7,900.6 453.7,859 479.6,843.1 478.1,785 "/>
<polygon id="XMLID_99_" class="st9" points="453.7,900.6 453.7,917.5 493,940.1 493,882.3 453.7,859 "/>
<polygon id="XMLID_98_" class="st37" points="453.7,859 493,836.2 534.9,859 493,882.3 "/>
<path id="XMLID_100_" class="st38" d="M534.9,859"/>
<polygon id="XMLID_101_" class="st10" points="492.7,940.1 534.2,917.8 535.2,859 492.7,882.3 "/>
<polygon id="XMLID_102_" class="st36" points="885.9,672.4 925.7,694.2 925.7,650.4 887.2,629.1 "/>
<polygon id="XMLID_104_" class="st7" points="887.2,629.1 960.5,586.2 998.5,607.7 925.7,650.4 "/>
<polygon id="XMLID_103_" class="st6" points="925.7,694.2 1000,651.6 998.5,607.7 925.7,650.4 "/>
<polygon id="XMLID_105_" class="st37" points="836.2,642.8 874.3,665.1 874.3,623.5 836.2,601.4 "/>
<polygon id="XMLID_106_" class="st9" points="874.3,665.1 886.3,658.5 887.2,629.1 924.8,607.1 924.8,593.6 874.3,623.5 "/>
<polygon id="XMLID_107_" class="st10" points="836.2,601.4 885.9,571.3 924.8,593.6 874.3,623.5 "/>
<polygon id="XMLID_108_" class="st39" points="786.6,612.8 825,635.8 825,593.1 786.6,571.7 "/>
<polygon id="XMLID_109_" class="st5" points="825,635.8 836.2,629.1 836.2,601.4 885.9,571.3 911.2,585.8 926.7,577.6 925.7,536.3 
	825,593.1 "/>
<polygon id="XMLID_110_" class="st0" points="786.6,571.7 887.2,514.1 925.7,536.3 825,593.1 "/>
<path id="XMLID_112_" class="st40" d="M765.7,794l-0.5,17c0,0,16.1,34.7,76.8,21c0,0,28.8-9.5,29.5-24.8v-12.4
	C871.5,794.7,817.1,844.8,765.7,794z"/>
<path id="XMLID_113_" class="st41" d="M765.7,794v-19.6c0,0,14.2,30.2,68.7,22.4c0,0,31.6-7.1,36.5-21.7l0.6,19.6
	C871.5,794.7,816.1,844.8,765.7,794z"/>
<path id="XMLID_111_" class="st42" d="M765.7,774.3c0,0,13.9,27.1,59.4,23.4c0,0,30.3-0.7,45.8-22.7v-17.9c0,0-16.1,25.9-56.7,22.2
	c0,0-41.8-1.5-49-24.8L765.7,774.3z"/>
<path id="XMLID_115_" class="st43" d="M765.1,754.5c0,0-6.6-26.5,37-35.7c0,0,49.8-9.1,68.7,24.1c0,0,1,10,0,14.3
	c0,0-15.6,25.7-56.7,22.2C814.2,779.4,772.4,777.9,765.1,754.5z"/>
<path id="XMLID_116_" class="st44" d="M851.2,748.7c4,6-9.9,14.5-9.9,14.5c-15,8.5-30.3,2.2-30.3,2.2l4.1-7.1c0,0,6.3,5.6,21,0.8
	c0,0,10.4-9.5,0.4-9.5c0,0-1.9-2.5-30,5.7c0,0-12.7,2.7-20.5-8.4c0,0-4.1-10.1,16.5-15.6c0,0,16.5-1.8,19.9,1l-2.8,5.2
	c0,0-14.7-4.9-20.9,4.7c0,0-0.9,11,24.2,1.6C822.8,743.8,842.8,736.1,851.2,748.7z"/>
<polygon id="XMLID_117_" class="st44" points="850.3,762.8 845.4,766.3 788.3,733.4 793.7,729.8 "/>
<path id="XMLID_119_" class="st45" d="M647.3,659.2c0,0,1.3-6.7-5.1-7.6c0,0-6.8-2.8-1.4,2.7c0,0-1,3.6-8-2.2c0,0-3.5,2.9-1.2,7.7
	c0,0,4.3,6.7,11.4,8.1L647.3,659.2z"/>
<polygon id="XMLID_121_" class="st46" points="676.5,652.8 658,665 621.4,645.3 675.9,612.6 704.6,632.1 "/>
<polygon id="XMLID_122_" class="st47" points="621.4,644.8 621.4,603.7 675.4,572.7 675.9,612.6 "/>
<polygon id="XMLID_123_" class="st16" points="623.4,605.6 623.4,640.1 672.8,610.6 672.8,577.1 "/>
<path id="XMLID_118_" class="st48" d="M680.1,767.4l1.8,46.5H676l-0.2,3.8l-9,0.6v5.6c0,0,8.9,4.2,15.6-0.8c0,0,4.8,0.1,6,2.4
	l8.7-0.4v-5.9l10.2,1l9.6-45.9c0,0-1-22-2.5-25.2l6.8-33.1c0,0,1-11.9-1.3-12.7c0,0,0-12,0.3-12.6c0.3-0.6,1.2-8.7,1.2-8.7l2.8-11.2
	l4.8-15.3l2.5-8.5l-1.5-7.6l-1-6l-0.3-4.3l-5.1-3.3l-5.3-2.3l-5.1-2c0,0,3.2,7.9-9.6,10.4c0,0-5.9,2.4-10.3-2.2
	c0,0-5.4,2.9-12.9,11.3c0,0-2.7-0.7-6.1,26l-2.4,5.7l-24.6-13.4l-4.4,8.7l26,21.9c0,0,5.1-1.2,6.3-5.4l-0.8,9.2c0,0-6.3,4.7-6,15.3
	l-0.9,18.2L680.1,767.4z"/>
<path id="XMLID_120_" class="st34" d="M689.4,617.4c-0.2,6.5,4.8,4.8,4.8,4.8l-0.7,7.3c0,0,0.6,4,10.2,2c0,0,14.4-3.3,9.9-12.2
	l2.2-17.7c0,0,1.6-2.6-13.2-8.7c0,0-12.8,1-14.7,6.6c0,0-0.9,4.9,0,5.9c0,0,1,0.8,1.1,2.9L689.4,617.4z"/>
<path id="XMLID_114_" class="st35" d="M713.6,619.4l-10.4,4.8c0,0-3.6,2.8-5.6-1.7c0,0-1.7-1.4-2-6.5c0,0,1.8-1.4,0.4-3.5
	c0,0-3,1.1-3.7,4.3c0,0-1.5-0.7-1.4-7.7c0,0,2.1-3.1,0-4.2l-3.3-1.3c0,0-3.4-9.1,15.1-10.6c0,0,12.4,4.7,13.2,8.7L713.6,619.4z"/>
<polygon id="XMLID_22_" class="st39" points="336.4,720.3 377.2,697.3 417.3,720.3 377.2,744.4 "/>
<polygon id="XMLID_24_" class="st0" points="377.2,873.2 399,861 399,784.4 417.3,773.9 417.3,720.3 377.2,744.4 "/>
</svg>
