<?xml version="1.0" encoding="utf-8"?>
<!-- Generator: Adobe Illustrator 19.0.0, SVG Export Plug-In . SVG Version: 6.00 Build 0)  -->
<svg version="1.1" id="Layer_1" xmlns="http://www.w3.org/2000/svg" xmlns:xlink="http://www.w3.org/1999/xlink" x="0px" y="0px"
	 viewBox="0 0 1000 1000" style="enable-background:new 0 0 1000 1000;" xml:space="preserve">
<style type="text/css">
	.st0{fill:#DDE3EA;}
	.st1{fill:#3D5385;}
	.st2{fill:#825285;}
	.st3{fill:#FFFFFF;stroke:#A0A2A4;stroke-miterlimit:10;}
	.st4{fill:#4F69B1;}
	.st5{fill:#AF6AAC;}
	.st6{fill:#FFFFFF;}
	.st7{fill:#5CC5DE;}
	.st8{fill:#5CBED3;}
	.st9{fill:#61C9DA;}
	.st10{fill:#EAB649;}
	.st11{fill:#EB4A92;}
	.st12{fill:none;stroke:#000000;stroke-miterlimit:10;}
	.st13{fill:#DEE2EC;}
	.st14{fill:url(#XMLID_21_);}
	.st15{fill:#806EB1;}
	.st16{fill:#AC99C9;}
	.st17{fill:#FAA749;}
	.st18{fill:#DD8A43;}
	.st19{fill:#C7C8CA;}
	.st20{fill:#395388;}
	.st21{fill:url(#XMLID_22_);}
	.st22{fill:#231536;}
	.st23{fill:#1F1643;}
	.st24{fill:#EDCE96;}
	.st25{fill:#F4C89B;}
	.st26{fill:#EB5B98;}
	.st27{fill:#E63B7A;}
	.st28{fill:#E3407F;}
	.st29{fill:#5E4FA1;}
	.st30{fill:#201D4E;}
	.st31{fill:#F7DDB5;}
	.st32{fill:#F8DFB8;}
	.st33{fill:#F4E1BB;}
</style>
<path id="XMLID_3_" class="st0" d="M162.1,779.7c0.5,11.9,5.6,19.5,5.6,19.5s-14.9-4.2-19.1-16.4l-1.1-349l14.1,7.7L162.1,779.7z"/>
<polygon id="XMLID_1_" class="st1" points="147.5,433.8 147.5,352.9 162.5,360.9 161.6,441.5 "/>
<path id="XMLID_7_" class="st2" d="M692.6,3.9C684.2-3,674,1.3,674,1.3l-503.5,291c-22.7,9.3-23,40.3-23,40.3v20.3l15,8V334
	c0,0,5.1-26,21.8-31.6l503-289.6l9.8-5.1L692.6,3.9z"/>
<path id="XMLID_6_" class="st3" d="M706.9,472.8c1.8,23.1-19.5,33.8-19.5,33.8L186.5,795.3c-14.3,8.8-18.8,3.9-18.8,3.9
	s-5.6-9.3-5.6-19.5s-0.5-338.2-0.5-338.2l545.6-313.8L706.9,472.8z"/>
<polygon id="XMLID_4_" class="st4" points="161.6,441.5 162.5,360.9 707.2,47.1 707.2,127.7 "/>
<path id="XMLID_8_" class="st5" d="M162.5,360.9V334c0,0,4.4-24.9,21.8-31.6L697.1,7.7c0,0,10.3,4.9,10.1,14.3v25.1L162.5,360.9z"/>
<path id="XMLID_9_" class="st1" d="M300.3,335.2c4.8-10.2,2.1-15.6,2.1-15.6c-5.1-10.8-14.7-4.5-14.7-4.5l-86.8,51.3
	c-7,3.2-12.2,16.4-12.2,16.4c-5.8,22.9,12.2,16.1,12.2,16.1l87.7-51.3c0,0,6.2-2.8,11.2-11.6L300.3,335.2z"/>
<path id="XMLID_5_" class="st6" d="M627.6,130.5c-3-11.2-16.6-2.8-16.6-2.8l-13.8,8.6L337.6,286c-18.8,11-13.8,27.9-13.8,27.9
	s1.4,13.7,14.9,6l107.9-63.1l161.3-92.2l9.6-7c0,0,11.6-12,11.8-21.1L627.6,130.5z"/>
<path id="XMLID_11_" class="st7" d="M606.8,165.2c0,0-14.5,8.5-16.6-6.2c0,0-2-17.6,13.8-26.9c0,0,17.1-13.4,22.6-4
	c0,0,2.9,7.4,2.8,8.5c0,0,0.1,8.4-11.8,21.1L606.8,165.2z"/>
<path id="XMLID_12_" class="st6" d="M619.4,145.5c-2.9,8.7-12.4,8.7-12.4,8.7l-5.8,9.2l-2.5-1.4l6-9.8c0,0-3.1-6.1,1.2-13.5
	c0,0,5.5-11.2,12.2-7.9c0,0,6.5,2.9,1.8,13.5L619.4,145.5z"/>
<ellipse id="XMLID_10_" transform="matrix(-0.8532 -0.5216 0.5216 -0.8532 1061.3894 583.5197)" class="st8" cx="612.8" cy="142.4" rx="4.6" ry="9.3"/>
<ellipse id="XMLID_13_" transform="matrix(-0.9467 -0.3222 0.3222 -0.9467 264.445 695.5394)" class="st9" cx="189.8" cy="325.9" rx="9.1" ry="13.9"/>
<ellipse id="XMLID_14_" transform="matrix(-0.9467 -0.3222 0.3222 -0.9467 336.9365 664.7606)" class="st10" cx="223.5" cy="304.5" rx="9.1" ry="13.9"/>
<ellipse id="XMLID_15_" transform="matrix(-0.9467 -0.3222 0.3222 -0.9467 416.1341 637.2474)" class="st11" cx="260.8" cy="284.2" rx="9.1" ry="13.9"/>
<path id="XMLID_16_" class="st1" d="M687.1,107.5L657,124.6c-0.7,0.4-0.9,1.2-0.5,1.9l0.3,0.5c0.4,0.7,1.2,0.9,1.9,0.5l30.1-17.1
	c0.7-0.4,0.9-1.2,0.5-1.9L689,108C688.6,107.3,687.8,107.1,687.1,107.5z"/>
<path id="XMLID_17_" class="st1" d="M686.9,97.2l-29.1,16.6c-0.7,0.4-0.9,1.2-0.5,1.9l0.3,0.5c0.4,0.7,1.2,0.9,1.9,0.5l29.1-16.6
	c0.7-0.4,0.9-1.2,0.5-1.9l-0.3-0.5C688.4,97.1,687.5,96.9,686.9,97.2z"/>
<path id="XMLID_18_" class="st1" d="M686.9,86.1l-29.1,16.6c-0.7,0.4-0.9,1.2-0.5,1.9l0.3,0.5c0.4,0.7,1.2,0.9,1.9,0.5l29-16.6
	c0.7-0.4,0.9-1.2,0.5-1.9l-0.3-0.5C688.4,85.9,687.5,85.7,686.9,86.1z"/>
<polygon id="XMLID_20_" class="st12" points="447.8,38.4 462,9.7 422.8,23.2 "/>
<line id="XMLID_28_" class="st12" x1="431.4" y1="28.5" x2="462" y2="9.7"/>
<polygon id="XMLID_30_" class="st12" points="439.8,33.5 433.6,38.4 430.2,27.7 "/>
<g id="XMLID_31_">
	<path id="XMLID_50_" d="M414.5,136.2c0,0,0.1,0,0.3,0.1c0.1,0,0.2,0.1,0.3,0.1c0.1,0,0.1,0.1,0.2,0.1s0.1,0.1,0.1,0.2
		c0.3,0.4,0.6,1,1,1.6s0.7,1.1,1,1.6c0,0.1,0.1,0.1,0.1,0.2c0,0.1,0,0.1,0,0.2c0,0.1,0,0.2,0,0.3c0,0.2,0,0.3,0,0.3s-0.1,0-0.3-0.1
		c-0.1,0-0.2-0.1-0.3-0.1c-0.1,0-0.1-0.1-0.2-0.1s-0.1-0.1-0.1-0.1c-0.3-0.4-0.6-1-1-1.6s-0.7-1.1-1-1.6c0-0.1-0.1-0.1-0.1-0.2
		c0-0.1,0-0.1,0-0.2c0-0.1,0-0.2,0-0.3C414.5,136.4,414.5,136.2,414.5,136.2z"/>
</g>
<g id="XMLID_32_">
	<path id="XMLID_48_" d="M409.9,126.2c0,0,0.1,0.1,0.3,0.2c0.1,0.1,0.2,0.1,0.3,0.2c0.1,0,0.1,0.1,0.2,0.1s0,0.1,0.1,0.2
		c0.2,0.5,0.5,1.2,0.8,1.9s0.6,1.4,0.8,1.9c0,0.1,0.1,0.1,0.1,0.2c0,0.1,0,0.1,0,0.2c0,0.1,0,0.2-0.1,0.3c0,0.2-0.1,0.3-0.1,0.3
		s-0.1-0.1-0.3-0.2c-0.1-0.1-0.2-0.1-0.3-0.2c-0.1,0-0.1-0.1-0.2-0.1s0-0.1-0.1-0.2c-0.2-0.5-0.5-1.2-0.8-1.9s-0.6-1.4-0.8-1.9
		c0-0.1-0.1-0.1-0.1-0.2s0-0.1,0-0.2s0-0.2,0.1-0.3C409.8,126.3,409.9,126.2,409.9,126.2z"/>
</g>
<g id="XMLID_33_">
	<path id="XMLID_46_" d="M407,116.2c0,0,0.1,0.1,0.2,0.2s0.2,0.2,0.2,0.3c0,0.1,0.1,0.1,0.1,0.2s0,0.1,0,0.2
		c0.1,0.6,0.2,1.3,0.3,2.1c0.1,0.8,0.2,1.5,0.3,2.1c0,0.1,0.1,0.1,0,0.2c0,0.1-0.1,0.1-0.1,0.2s-0.1,0.2-0.1,0.3
		c-0.1,0.2-0.1,0.3-0.1,0.3s-0.1-0.1-0.2-0.2s-0.2-0.2-0.2-0.3c0-0.1-0.1-0.1-0.1-0.2c-0.1-0.1,0-0.1,0-0.2
		c-0.1-0.6-0.2-1.3-0.3-2.1s-0.2-1.5-0.3-2.1c0-0.1-0.1-0.1,0-0.2c0-0.1,0.1-0.1,0.1-0.2s0.1-0.2,0.1-0.3
		C406.9,116.3,407,116.2,407,116.2z"/>
</g>
<g id="XMLID_34_">
	<path id="XMLID_53_" d="M405.1,104.2c0,0,0.1,0.1,0.2,0.3c0.1,0.1,0.1,0.2,0.2,0.3c0,0.1,0.1,0.1,0.1,0.2s0,0.1,0,0.2
		c0,0.6,0,1.3,0,2.1s0,1.5,0,2.1c0,0.1,0,0.1,0,0.2s-0.1,0.1-0.1,0.2c-0.1,0.1-0.1,0.2-0.2,0.3c-0.1,0.2-0.2,0.3-0.2,0.3
		s-0.1-0.1-0.2-0.3c-0.1-0.1-0.1-0.2-0.2-0.3c0-0.1-0.1-0.1-0.1-0.2s0-0.1,0-0.2c0-0.6,0-1.3,0-2.1s0-1.5,0-2.1c0-0.1,0-0.1,0-0.2
		s0.1-0.1,0.1-0.2c0.1-0.1,0.1-0.2,0.2-0.3C405,104.3,405.1,104.2,405.1,104.2z"/>
</g>
<g id="XMLID_35_">
	<path id="XMLID_55_" d="M404.2,92c0,0,0.1,0.1,0.2,0.3c0.1,0.1,0.1,0.2,0.2,0.3c0,0.1,0.1,0.1,0.1,0.2s0,0.1,0,0.2
		c0,0.6,0,1.4,0,2.3s0,1.7,0,2.3c0,0.1,0,0.2,0,0.2c0,0.1-0.1,0.1-0.1,0.2c-0.1,0.1-0.1,0.2-0.2,0.3c-0.1,0.2-0.2,0.3-0.2,0.3
		s-0.1-0.1-0.2-0.3c-0.1-0.1-0.1-0.2-0.2-0.3c0-0.1-0.1-0.1-0.1-0.2s0-0.1,0-0.2c0-0.6,0-1.4,0-2.3s0-1.7,0-2.3c0-0.1,0-0.2,0-0.2
		c0-0.1,0.1-0.1,0.1-0.2c0.1-0.1,0.1-0.2,0.2-0.3C404.1,92.1,404.2,92,404.2,92z"/>
</g>
<g id="XMLID_36_">
	<path id="XMLID_57_" d="M406.2,82.5c0,0,0.1,0.1,0.1,0.3c0,0.1,0.1,0.2,0.1,0.4c0,0.1,0,0.1,0.1,0.2c0,0.1,0,0.1,0,0.2
		c-0.1,0.6-0.3,1.4-0.4,2.2c-0.2,0.8-0.3,1.6-0.4,2.2c0,0.1,0,0.2-0.1,0.2c-0.1,0.1-0.1,0.1-0.1,0.2c-0.1,0.1-0.2,0.2-0.3,0.3
		c-0.1,0.2-0.2,0.2-0.2,0.2s-0.1-0.1-0.1-0.3c0-0.1-0.1-0.2-0.1-0.4c0-0.1,0-0.1-0.1-0.2c0-0.1,0-0.1,0-0.2c0.1-0.6,0.3-1.4,0.4-2.2
		s0.3-1.6,0.4-2.2c0-0.1,0-0.2,0-0.2c0.1-0.1,0.1-0.1,0.1-0.2c0.1-0.1,0.2-0.2,0.3-0.3C406.1,82.6,406.2,82.5,406.2,82.5z"/>
</g>
<g id="XMLID_19_">
	<path id="XMLID_62_" d="M409.4,71.6c0,0,0,0.1,0.1,0.3c0,0.1,0,0.2,0.1,0.4c0,0.1,0,0.1,0,0.2s-0.1,0.1-0.1,0.2
		c-0.2,0.6-0.5,1.4-0.8,2.1c-0.3,0.8-0.6,1.6-0.8,2.1c0,0.1,0,0.2-0.1,0.2c-0.1,0.1-0.1,0.1-0.2,0.1c-0.1,0.1-0.2,0.2-0.3,0.2
		c-0.2,0.1-0.3,0.2-0.3,0.2s0-0.1-0.1-0.3c0-0.1,0-0.2-0.1-0.4c0-0.1,0-0.1,0-0.2s0.1-0.1,0.1-0.2c0.2-0.6,0.5-1.4,0.8-2.1
		c0.3-0.8,0.6-1.6,0.8-2.1c0-0.1,0-0.2,0.1-0.2c0.1-0.1,0.1-0.1,0.2-0.1c0.1-0.1,0.2-0.2,0.3-0.2C409.3,71.6,409.4,71.6,409.4,71.6z
		"/>
</g>
<g id="XMLID_37_">
	<path id="XMLID_115_" d="M412.9,60.5c0,0,0,0.1,0.1,0.3c0,0.1,0,0.2,0.1,0.4c0,0.1,0,0.1,0,0.2c0,0.1-0.1,0.1-0.1,0.2
		c-0.2,0.6-0.5,1.4-0.8,2.1c-0.3,0.8-0.6,1.6-0.8,2.1c0,0.1,0,0.2-0.1,0.2c-0.1,0.1-0.1,0.1-0.2,0.1c-0.1,0.1-0.2,0.2-0.3,0.2
		c-0.2,0.1-0.3,0.2-0.3,0.2s0-0.1-0.1-0.3c0-0.1,0-0.2-0.1-0.4c0-0.1,0-0.1,0-0.2s0.1-0.1,0.1-0.2c0.2-0.6,0.5-1.4,0.8-2.1
		s0.6-1.6,0.8-2.1c0-0.1,0-0.2,0.1-0.2c0.1-0.1,0.1-0.1,0.2-0.1c0.1-0.1,0.2-0.2,0.3-0.2C412.8,60.6,412.9,60.5,412.9,60.5z"/>
</g>
<g id="XMLID_40_">
	<path id="XMLID_130_" d="M419.1,50.8c0,0,0,0.1,0,0.3c0,0.1,0,0.2,0,0.4c0,0.1,0,0.1,0,0.2c0,0.1-0.1,0.1-0.1,0.2
		c-0.4,0.5-0.9,1.1-1.4,1.8s-1,1.3-1.4,1.8c-0.1,0.1-0.1,0.1-0.1,0.2c-0.1,0-0.1,0.1-0.2,0.1c-0.1,0.1-0.3,0.1-0.4,0.1
		C415.1,56,415,56,415,56s0-0.1,0-0.3c0-0.1,0-0.2,0-0.4c0-0.1,0-0.1,0-0.2c0-0.1,0.1-0.1,0.1-0.2c0.4-0.5,0.9-1.1,1.4-1.8
		s1-1.3,1.4-1.8c0.1-0.1,0.1-0.1,0.1-0.2c0.1,0,0.1-0.1,0.2-0.1c0.1-0.1,0.3-0.1,0.4-0.1C419,50.8,419.1,50.8,419.1,50.8z"/>
</g>
<g id="XMLID_51_">
	<path id="XMLID_133_" d="M425.7,42.3c0,0,0,0.1,0,0.3c0,0.1,0,0.2,0,0.4c0,0.1,0,0.1,0,0.2c0,0.1-0.1,0.1-0.1,0.2
		c-0.4,0.5-0.9,1.1-1.4,1.8s-1,1.3-1.4,1.8c-0.1,0.1-0.1,0.1-0.1,0.2c-0.1,0-0.1,0.1-0.2,0.1c-0.1,0.1-0.3,0.1-0.4,0.1
		c-0.2,0.1-0.3,0.1-0.3,0.1s0-0.1,0-0.3c0-0.1,0-0.2,0-0.4c0-0.1,0-0.1,0-0.2c0-0.1,0.1-0.1,0.1-0.2c0.4-0.5,0.9-1.1,1.4-1.8
		s1-1.3,1.4-1.8c0.1-0.1,0.1-0.1,0.1-0.2c0.1,0,0.1-0.1,0.2-0.1c0.1-0.1,0.3-0.1,0.4-0.1C425.6,42.4,425.7,42.3,425.7,42.3z"/>
</g>
<path id="XMLID_59_" class="st3" d="M681.3,212.7v219c0.6,12.5-11,18.6-11,18.6L560.8,514c0,0-8.3,6.3-9.6-5.7l0.2-220.6
	c0,0-0.6-11.5,13-17.8l105.1-61.1C669.5,208.8,679.9,200.1,681.3,212.7z"/>
<path id="XMLID_60_" class="st13" d="M507.3,306.9v256.6c0.8,14.6-12.8,21.8-12.8,21.8L367,659.9c0,0-9.6,7.4-11.1-6.6l0.2-258.5
	c0,0-0.8-13.5,15.1-20.9l122.3-71.5C493.5,302.3,505.6,292.1,507.3,306.9z"/>
<linearGradient id="XMLID_21_" gradientUnits="userSpaceOnUse" x1="562.1861" y1="415.2865" x2="663.5826" y2="415.2865">
	<stop  offset="0" style="stop-color:#AF6AAC"/>
	<stop  offset="1" style="stop-color:#4F69B1"/>
</linearGradient>
<path id="XMLID_64_" class="st14" d="M661.1,396.7c4.2-8.9,1.8-13.7,1.8-13.7c-4.5-9.5-12.9-3.9-12.9-3.9l-76.1,44.8
	c-6.1,2.8-10.7,14.3-10.7,14.3c-5.1,20,10.7,14.1,10.7,14.1l76.9-44.8c0,0,5.5-2.4,9.8-10.1L661.1,396.7z"/>
<ellipse id="XMLID_68_" transform="matrix(-0.9467 -0.3222 0.3222 -0.9467 1033.2251 1099.2592)" class="st13" cx="607.6" cy="464.1" rx="3.9" ry="6"/>
<ellipse id="XMLID_69_" transform="matrix(-0.9467 -0.3222 0.3222 -0.9467 1060.6639 1088.3763)" class="st13" cx="620.4" cy="456.4" rx="3.9" ry="6"/>
<ellipse id="XMLID_70_" transform="matrix(-0.9467 -0.3222 0.3222 -0.9467 1089.4956 1078.5234)" class="st4" cx="634" cy="449.1" rx="3.9" ry="6"/>
<path id="XMLID_71_" class="st12" d="M255.3,489.6c2.6,11.7-9.8,18.9-9.8,18.9l-40.2,22.3c0,0-9.9,6.5-9.5-6.5v-39.2
	c0,0,0.6-10.8,12.5-15.6l36.8-21.2c0,0,9.3-5.6,9.8,6.8L255.3,489.6z"/>
<path id="XMLID_73_" class="st12" d="M255.3,584.3c2.6,11.7-9.8,18.9-9.8,18.9l-40.2,22.3c0,0-9.9,6.5-9.5-6.5v-39.2
	c0,0,0.6-10.8,12.5-15.6l36.8-21.2c0,0,9.3-5.6,9.8,6.8L255.3,584.3z"/>
<path id="XMLID_74_" class="st12" d="M255.3,680.7c2.6,11.7-9.8,18.9-9.8,18.9l-40.2,22.3c0,0-9.9,6.5-9.5-6.5v-39.2
	c0,0,0.6-10.8,12.5-15.6l36.8-21.2c0,0,9.3-5.6,9.8,6.8L255.3,680.7z"/>
<path id="XMLID_72_" class="st15" d="M314.1,424.7l-33.9,20.7c-0.7,0.4-1.7,0.2-2.1-0.5l-0.3-0.5c-0.4-0.7-0.2-1.7,0.5-2.1
	l33.9-20.7c0.7-0.4,1.7-0.2,2.1,0.5l0.3,0.5C315,423.3,314.8,424.3,314.1,424.7z"/>
<path id="XMLID_75_" class="st16" d="M303,443.7l-24.5,15c-0.7,0.4-1.7,0.2-2.1-0.5l-0.3-0.5c-0.4-0.7-0.2-1.7,0.5-2.1l24.5-15
	c0.7-0.4,1.7-0.2,2.1,0.5l0.3,0.5C303.9,442.3,303.7,443.3,303,443.7z"/>
<path id="XMLID_76_" class="st15" d="M326.4,443.8l-46.5,28.4c-1,0.6-2.4,0.3-3-0.7l-0.5-0.8c-0.6-1-0.3-2.4,0.7-3l46.5-28.4
	c1-0.6,2.4-0.3,3,0.7l0.5,0.8C327.8,441.8,327.5,443.2,326.4,443.8z"/>
<path id="XMLID_78_" class="st16" d="M341,448.3l-60.5,36.9c-1,0.6-2.4,0.3-3-0.7l-0.5-0.8c-0.6-1-0.3-2.4,0.7-3l60.5-36.9
	c1-0.6,2.4-0.3,3,0.7l0.5,0.8C342.4,446.3,342.1,447.7,341,448.3z"/>
<path id="XMLID_79_" class="st16" d="M339.8,509.2l-60.5,36.9c-1,0.6-2.4,0.3-3-0.7l-0.5-0.8c-0.6-1-0.3-2.4,0.7-3l60.5-36.9
	c1-0.6,2.4-0.3,3,0.7l0.5,0.8C341.2,507.2,340.9,508.6,339.8,509.2z"/>
<path id="XMLID_80_" class="st15" d="M325.3,530.3l-45.2,27.6c-1,0.6-2.4,0.3-3-0.7l-0.5-0.8c-0.6-1-0.3-2.4,0.7-3l45.2-27.6
	c1-0.6,2.4-0.3,3,0.7l0.5,0.8C326.7,528.3,326.4,529.6,325.3,530.3z"/>
<path id="XMLID_81_" class="st16" d="M302.4,556.8l-23.5,14.4c-1,0.6-2.4,0.3-3-0.7l-0.5-0.8c-0.6-1-0.3-2.4,0.7-3l23.5-14.4
	c1-0.6,2.4-0.3,3,0.7l0.5,0.8C303.7,554.8,303.4,556.2,302.4,556.8z"/>
<path id="XMLID_82_" class="st15" d="M311.8,563.9l-32.4,19.8c-1,0.6-2.4,0.3-3-0.7l-0.5-0.8c-0.6-1-0.3-2.4,0.7-3l32.4-19.8
	c1-0.6,2.4-0.3,3,0.7l0.5,0.8C313.2,561.9,312.8,563.3,311.8,563.9z"/>
<path id="XMLID_86_" class="st15" d="M340.1,604l-60.5,36.9c-1,0.6-2.4,0.3-3-0.7l-0.5-0.8c-0.6-1-0.3-2.4,0.7-3l60.5-36.9
	c1-0.6,2.4-0.3,3,0.7l0.5,0.8C341.5,602,341.2,603.4,340.1,604z"/>
<path id="XMLID_85_" class="st16" d="M325.6,625l-45.2,27.6c-1,0.6-2.4,0.3-3-0.7l-0.5-0.8c-0.6-1-0.3-2.4,0.7-3l45.2-27.6
	c1-0.6,2.4-0.3,3,0.7l0.5,0.8C327,623,326.7,624.4,325.6,625z"/>
<path id="XMLID_84_" class="st15" d="M302.6,651.6L279.1,666c-1,0.6-2.4,0.3-3-0.7l-0.5-0.8c-0.6-1-0.3-2.4,0.7-3l23.5-14.4
	c1-0.6,2.4-0.3,3,0.7l0.5,0.8C304,649.6,303.7,651,302.6,651.6z"/>
<path id="XMLID_83_" class="st16" d="M312.1,658.7l-32.4,19.8c-1,0.6-2.4,0.3-3-0.7l-0.5-0.8c-0.6-1-0.3-2.4,0.7-3l32.4-19.8
	c1-0.6,2.4-0.3,3,0.7l0.5,0.8C313.5,656.7,313.1,658.1,312.1,658.7z"/>
<path id="XMLID_77_" class="st2" d="M73.6,543c-3-1.9-5.8-0.4-5.8-0.4l-41.1,22.9c-12.9,5.8-12,13.1-12,13.1l-0.2,51.2
	c-0.2,6.1,6.5,6.1,6.5,6.1s-9.6,0.9-9.7-5.8c-0.1-6.7-0.6-53.9-0.6-53.9s-1.3-8.7,11.1-14.8l38.8-22.1c0,0,7.4-2.1,11.6,2.7
	L73.6,543z"/>
<path id="XMLID_87_" class="st5" d="M21,635.9l47.6-26.4c0,0,7-4.8,6.3-12.7l0.1-52.9c0,0-3.4-3.4-7.1-1.3l-45.3,25.1
	c0,0-7.8,4.4-7.8,10.2V631C14.6,631,14.6,635.5,21,635.9z"/>
<path id="XMLID_91_" class="st17" d="M829.9,240c0.2,9-11.5,1.1-11.5,1.1l-43.7-26.4c0,0-5.5-2.8-4.5-10.2l-0.1-52
	c0,0-1.6-10.2,12.7-1.7l41.6,24.7c0,0,5.5,0.9,4.7,17.1L829.9,240z"/>
<path id="XMLID_92_" class="st18" d="M786.4,145.9l42.6,25.4c7.1,3.5,8.3,11.3,8.3,11.3v55.6c0.3,5.6-10.1,6-10.1,6s3.7,0.3,2.7-6.8
	l-0.8-51.3c0,0-0.4-8.1-4.6-10.6l-45.4-26.6c0,0-3.4-2.2-7.5-0.7l5.5-2.7C777,145.5,780.9,142.6,786.4,145.9z"/>
<path id="XMLID_89_" class="st4" d="M998.8,473.7c0.1,7.1-9,0.9-9,0.9L955.6,454c0,0-4.3-2.2-3.5-8l-0.1-40.6c0,0-1.2-8,9.9-1.3
	l32.5,19.3c0,0,4.3,0.7,3.7,13.4L998.8,473.7z"/>
<path id="XMLID_88_" class="st1" d="M964.8,400.2L998,420c5.5,2.7,6.5,8.8,6.5,8.8v43.5c0.2,4.4-7.9,4.7-7.9,4.7s2.9,0.2,2.1-5.3
	l-0.6-40.1c0,0-0.3-6.3-3.6-8.3L959,402.5c0,0-2.7-1.7-5.9-0.6l4.3-2.1C957.4,399.8,960.5,397.6,964.8,400.2z"/>
<g id="XMLID_112_">
	<path id="XMLID_136_" d="M144.8,501.2c0,0,0.1,0,0.3,0.1c0.1,0,0.2,0.1,0.3,0.1s0.1,0.1,0.2,0.1c0.1,0,0.1,0.1,0.1,0.2
		c0.3,0.4,0.6,1,1,1.6s0.7,1.1,1,1.6c0,0.1,0.1,0.1,0.1,0.2s0,0.1,0,0.2s0,0.2,0,0.3c0,0.2,0,0.3,0,0.3s-0.1,0-0.3-0.1
		c-0.1,0-0.2-0.1-0.3-0.1s-0.1-0.1-0.2-0.1c-0.1,0-0.1-0.1-0.1-0.1c-0.3-0.4-0.6-1-1-1.6s-0.7-1.1-1-1.6c0-0.1-0.1-0.1-0.1-0.2
		s0-0.1,0-0.2s0-0.2,0-0.3C144.8,501.3,144.8,501.2,144.8,501.2z"/>
</g>
<g id="XMLID_116_">
	<path id="XMLID_199_" d="M136.8,487.7c0,0,0.1,0,0.3,0.1c0.1,0,0.2,0.1,0.3,0.2c0.1,0,0.1,0.1,0.2,0.1c0.1,0,0.1,0.1,0.1,0.2
		c0.3,0.5,0.8,1.2,1.3,1.8c0.5,0.7,0.9,1.3,1.3,1.8c0,0.1,0.1,0.1,0.1,0.2s0,0.2,0,0.2c0,0.1,0,0.3,0,0.4c0,0.2,0,0.3,0,0.3
		s-0.1,0-0.3-0.1c-0.1,0-0.2-0.1-0.3-0.2c-0.1,0-0.1-0.1-0.2-0.1c-0.1,0-0.1-0.1-0.1-0.2c-0.3-0.5-0.8-1.2-1.3-1.8s-0.9-1.3-1.3-1.8
		c0-0.1-0.1-0.1-0.1-0.2s0-0.2,0-0.2c0-0.1,0-0.3,0-0.4C136.8,487.8,136.8,487.7,136.8,487.7z"/>
</g>
<g id="XMLID_118_">
	<path id="XMLID_202_" d="M125.8,475.9c0,0,0.1,0,0.4,0.1c0.1,0,0.3,0.1,0.4,0.1s0.2,0.1,0.2,0.1c0.1,0,0.1,0.1,0.2,0.2
		c0.5,0.5,1.1,1.2,1.8,1.9c0.7,0.7,1.3,1.4,1.8,1.9c0,0.1,0.1,0.1,0.2,0.2c0,0.1,0.1,0.2,0.1,0.2c0.1,0.2,0.1,0.3,0.1,0.4
		c0.1,0.2,0.1,0.4,0.1,0.4s-0.1,0-0.4-0.1c-0.1,0-0.2-0.1-0.4-0.1c-0.1,0-0.2-0.1-0.2-0.1c-0.1,0-0.1-0.1-0.2-0.2
		c-0.5-0.5-1.1-1.2-1.8-1.9c-0.7-0.7-1.3-1.4-1.8-1.9c-0.1-0.1-0.1-0.1-0.2-0.2c0-0.1-0.1-0.2-0.1-0.2c-0.1-0.2-0.1-0.3-0.1-0.4
		C125.8,476.1,125.8,475.9,125.8,475.9z"/>
</g>
<g id="XMLID_119_">
	<path id="XMLID_205_" d="M112.7,468c0,0,0.1,0,0.4,0c0.1,0,0.3,0,0.4,0s0.2,0,0.3,0c0.1,0,0.1,0.1,0.2,0.1c0.6,0.4,1.5,0.8,2.3,1.3
		s1.7,0.9,2.3,1.3c0.1,0.1,0.2,0.1,0.2,0.1c0.1,0.1,0.1,0.1,0.1,0.2c0.1,0.1,0.2,0.3,0.2,0.4c0.1,0.2,0.2,0.3,0.2,0.3s-0.1,0-0.4,0
		c-0.1,0-0.3,0-0.4,0s-0.2,0-0.3,0c-0.1,0-0.1-0.1-0.2-0.1c-0.6-0.4-1.5-0.8-2.3-1.3s-1.7-0.9-2.3-1.3c-0.1-0.1-0.2-0.1-0.2-0.1
		c-0.1-0.1-0.1-0.1-0.1-0.2c-0.1-0.1-0.2-0.3-0.2-0.4C112.8,468.2,112.7,468,112.7,468z"/>
</g>
<g id="XMLID_121_">
	<path id="XMLID_208_" d="M95.8,465.5c0,0,0.1-0.1,0.3-0.2c0.1-0.1,0.2-0.1,0.4-0.2c0.1,0,0.1-0.1,0.2-0.1s0.2,0,0.3,0
		c0.7,0,1.7-0.1,2.6-0.1s1.9-0.1,2.6-0.1c0.1,0,0.2,0,0.3,0c0.1,0,0.2,0.1,0.2,0.1c0.1,0.1,0.3,0.1,0.4,0.2c0.2,0.1,0.3,0.2,0.3,0.2
		s-0.1,0.1-0.3,0.2c-0.1,0.1-0.2,0.1-0.4,0.2c-0.1,0-0.1,0.1-0.2,0.1s-0.2,0-0.3,0c-0.7,0-1.7,0.1-2.6,0.1c-1,0-1.9,0.1-2.6,0.1
		c-0.1,0-0.2,0-0.3,0c-0.1,0-0.2-0.1-0.2-0.1c-0.1-0.1-0.3-0.1-0.4-0.2C95.9,465.6,95.8,465.5,95.8,465.5z"/>
</g>
<g id="XMLID_122_">
	<path id="XMLID_211_" d="M86.6,478.8c0,0-0.1-0.1-0.1-0.4c0-0.1-0.1-0.3-0.1-0.4s0-0.2-0.1-0.2c0-0.1,0-0.2,0-0.3
		c0.1-0.7,0.3-1.7,0.5-2.6s0.4-1.9,0.5-2.6c0-0.1,0-0.2,0.1-0.3c0.1-0.1,0.1-0.1,0.2-0.2s0.2-0.2,0.3-0.3c0.2-0.2,0.2-0.3,0.2-0.3
		s0.1,0.1,0.1,0.4c0,0.1,0.1,0.3,0.1,0.4s0,0.2,0.1,0.2c0,0.1,0,0.2,0,0.3c-0.1,0.7-0.3,1.7-0.5,2.6s-0.4,1.9-0.5,2.6
		c0,0.1,0,0.2-0.1,0.3c-0.1,0.1-0.1,0.1-0.2,0.2s-0.2,0.2-0.3,0.3C86.7,478.7,86.6,478.8,86.6,478.8z"/>
</g>
<g id="XMLID_193_">
	<path id="XMLID_215_" d="M88.3,486.7c0,0,0.1,0,0.4,0c0.1,0,0.3,0,0.4,0.1c0.1,0,0.2,0,0.3,0c0.1,0,0.1,0.1,0.2,0.1
		c0.6,0.4,1.4,1,2.2,1.5c0.8,0.5,1.6,1.1,2.2,1.5c0.1,0.1,0.2,0.1,0.2,0.2s0.1,0.2,0.1,0.2c0.1,0.1,0.1,0.3,0.2,0.4
		c0.1,0.2,0.2,0.3,0.2,0.3s-0.1,0-0.4,0c-0.1,0-0.3,0-0.4-0.1c-0.1,0-0.2,0-0.3,0c-0.1,0-0.1-0.1-0.2-0.1c-0.6-0.4-1.4-1-2.2-1.5
		c-0.8-0.5-1.6-1.1-2.2-1.5c-0.1-0.1-0.2-0.1-0.2-0.1c0-0.1-0.1-0.2-0.1-0.2c-0.1-0.1-0.1-0.3-0.2-0.4
		C88.3,486.9,88.3,486.7,88.3,486.7z"/>
</g>
<g id="XMLID_197_">
	<path id="XMLID_218_" d="M104.5,489.4c0,0,0-0.1,0.1-0.4c0-0.1,0.1-0.3,0.1-0.4s0.1-0.2,0.1-0.2c0-0.1,0.1-0.1,0.2-0.2
		c0.5-0.5,1.2-1.1,1.9-1.8s1.4-1.3,1.9-1.8c0.1,0,0.1-0.1,0.2-0.2c0.1,0,0.2-0.1,0.2-0.1c0.2-0.1,0.3-0.1,0.4-0.1
		c0.2-0.1,0.4-0.1,0.4-0.1s0,0.1-0.1,0.4c0,0.1-0.1,0.2-0.1,0.4c0,0.1-0.1,0.2-0.1,0.2c0,0.1-0.1,0.1-0.2,0.2
		c-0.5,0.5-1.2,1.1-1.9,1.8c-0.7,0.7-1.4,1.3-1.9,1.8c-0.1,0.1-0.1,0.1-0.2,0.2c-0.1,0-0.2,0.1-0.2,0.1c-0.2,0.1-0.3,0.1-0.4,0.1
		C104.6,489.3,104.5,489.4,104.5,489.4z"/>
</g>
<g id="XMLID_200_">
	<path id="XMLID_225_" d="M116.2,478.4c0,0,0-0.1,0-0.4c0-0.1,0-0.3,0-0.4s0-0.2,0-0.3c0-0.1,0.1-0.1,0.1-0.2
		c0.3-0.6,0.8-1.5,1.2-2.3c0.4-0.8,0.9-1.7,1.2-2.3c0.1-0.1,0-0.2,0.1-0.2c0.1-0.1,0.1-0.1,0.2-0.2s0.2-0.2,0.3-0.2
		c0.2-0.1,0.3-0.2,0.3-0.2s0,0.1,0,0.4c0,0.1,0,0.3,0,0.4s0,0.2,0,0.3c0,0.1-0.1,0.1-0.1,0.2c-0.3,0.6-0.8,1.5-1.2,2.3
		c-0.4,0.8-0.9,1.7-1.2,2.3c-0.1,0.1-0.1,0.2-0.1,0.2c-0.1,0.1-0.1,0.1-0.2,0.2s-0.2,0.2-0.3,0.2
		C116.3,478.3,116.2,478.4,116.2,478.4z"/>
</g>
<g id="XMLID_203_">
	<path id="XMLID_228_" d="M123.4,464c0,0-0.1-0.1-0.2-0.3c0-0.1-0.1-0.2-0.1-0.4c0-0.1-0.1-0.2-0.1-0.2c0-0.1,0-0.2,0-0.3
		c0.1-0.7,0.2-1.7,0.3-2.6c0.1-1,0.2-1.9,0.3-2.6c0-0.1,0-0.2,0-0.3c0-0.1,0.1-0.2,0.1-0.2c0.1-0.1,0.2-0.3,0.2-0.4
		c0.1-0.2,0.2-0.3,0.2-0.3s0.1,0.1,0.2,0.3c0,0.1,0.1,0.2,0.1,0.4c0,0.1,0.1,0.2,0.1,0.2c0,0.1,0,0.2,0,0.3
		c-0.1,0.7-0.2,1.7-0.3,2.6c-0.1,1-0.2,1.9-0.3,2.6c0,0.1,0,0.2,0,0.3c0,0.1-0.1,0.2-0.1,0.2c-0.1,0.1-0.2,0.3-0.2,0.4
		C123.5,463.9,123.4,464,123.4,464z"/>
</g>
<g id="XMLID_206_">
	<path id="XMLID_231_" d="M123,449.1c0,0-0.1-0.1-0.3-0.3c-0.1-0.1-0.2-0.2-0.3-0.3c0-0.1-0.1-0.1-0.2-0.2s0-0.2,0-0.3
		c-0.1-0.7-0.3-1.7-0.5-2.6s-0.3-1.9-0.5-2.6c0-0.1-0.1-0.2,0-0.3c0-0.1,0-0.2,0.1-0.2c0-0.2,0.1-0.3,0.1-0.4
		c0.1-0.2,0.1-0.4,0.1-0.4s0.1,0.1,0.2,0.3c0.1,0.1,0.2,0.2,0.3,0.3c0,0.1,0.1,0.1,0.2,0.2s0,0.2,0.1,0.3c0.1,0.7,0.3,1.7,0.5,2.6
		s0.3,1.9,0.5,2.6c0,0.1,0.1,0.2,0,0.3c0,0.1,0,0.2-0.1,0.2c0,0.2-0.1,0.3-0.1,0.4C123.1,448.9,123,449.1,123,449.1z"/>
</g>
<g id="XMLID_209_">
	<path id="XMLID_234_" d="M116.3,434.4c0,0-0.1-0.1-0.3-0.2c-0.1-0.1-0.2-0.1-0.4-0.2c-0.1,0-0.1-0.1-0.2-0.1
		c-0.1-0.1-0.1-0.2-0.1-0.2c-0.4-0.6-0.9-1.4-1.3-2.3c-0.5-0.8-1-1.7-1.3-2.3c0-0.1-0.1-0.1-0.1-0.2s0-0.2,0-0.3c0-0.2,0-0.3,0-0.4
		c0-0.2,0-0.4,0-0.4s0.1,0.1,0.3,0.2c0.1,0.1,0.2,0.1,0.4,0.2c0.1,0,0.1,0.1,0.2,0.1s0.1,0.1,0.1,0.2c0.4,0.6,0.9,1.4,1.3,2.3
		c0.5,0.8,1,1.7,1.3,2.3c0,0.1,0.1,0.1,0.1,0.2s0,0.2,0,0.3c0,0.2,0,0.3,0,0.4C116.3,434.3,116.3,434.4,116.3,434.4z"/>
</g>
<g id="XMLID_212_">
	<path id="XMLID_237_" d="M105.9,423.2c0,0-0.1,0-0.4-0.1c-0.1,0-0.3-0.1-0.4-0.1s-0.2-0.1-0.2-0.1c-0.1,0-0.1-0.1-0.2-0.2
		c-0.5-0.5-1.1-1.2-1.8-2s-1.3-1.4-1.8-2c0-0.1-0.1-0.1-0.2-0.2c0-0.1-0.1-0.2-0.1-0.2c0-0.2-0.1-0.3-0.1-0.4
		c-0.1-0.2-0.1-0.4-0.1-0.4s0.1,0,0.4,0.1c0.1,0,0.2,0.1,0.4,0.2c0.1,0,0.2,0.1,0.2,0.1c0.1,0,0.1,0.1,0.2,0.2
		c0.5,0.5,1.1,1.2,1.8,2s1.3,1.4,1.8,2c0.1,0.1,0.1,0.1,0.2,0.2c0,0.1,0.1,0.2,0.1,0.2c0,0.2,0.1,0.3,0.1,0.4
		C105.9,423,105.9,423.2,105.9,423.2z"/>
</g>
<g id="XMLID_216_">
	<path id="XMLID_240_" d="M91.4,414.1c0,0-0.1,0-0.4-0.1c-0.1,0-0.3,0-0.4-0.1c-0.1,0-0.2,0-0.3-0.1c-0.1,0-0.1-0.1-0.2-0.2
		c-0.6-0.4-1.3-1-2.1-1.6c-0.8-0.6-1.5-1.2-2.1-1.6c-0.1-0.1-0.2-0.1-0.2-0.2s-0.1-0.2-0.1-0.2c-0.1-0.1-0.1-0.3-0.2-0.4
		c-0.1-0.2-0.1-0.4-0.1-0.4s0.1,0,0.4,0.1c0.1,0,0.3,0,0.4,0.1c0.1,0,0.2,0,0.3,0.1c0.1,0,0.1,0.1,0.2,0.2c0.6,0.4,1.3,1,2.1,1.6
		c0.8,0.6,1.5,1.2,2.1,1.6c0.1,0.1,0.2,0.1,0.2,0.2s0.1,0.2,0.1,0.2c0.1,0.1,0.1,0.3,0.2,0.4C91.4,413.9,91.4,414.1,91.4,414.1z"/>
</g>
<g id="XMLID_223_">
	<path id="XMLID_243_" d="M77.4,406.6c0,0-0.1,0-0.4,0.1c-0.1,0-0.3,0-0.4,0s-0.2,0-0.3,0c-0.1,0-0.2-0.1-0.2-0.1
		c-0.7-0.3-1.6-0.6-2.4-1s-1.8-0.7-2.4-1c-0.1,0-0.2,0-0.2-0.1c-0.1-0.1-0.1-0.1-0.2-0.2s-0.2-0.2-0.3-0.3c-0.2-0.2-0.2-0.3-0.2-0.3
		s0.1,0,0.4-0.1c0.1,0,0.3,0,0.4,0s0.2,0,0.3,0c0.1,0,0.2,0.1,0.2,0.1c0.7,0.3,1.6,0.6,2.4,1s1.8,0.7,2.4,1c0.1,0,0.2,0,0.2,0.1
		c0.1,0.1,0.1,0.1,0.2,0.2s0.2,0.2,0.3,0.3C77.3,406.4,77.4,406.6,77.4,406.6z"/>
</g>
<g id="XMLID_226_">
	<path id="XMLID_245_" d="M62.2,401.6c0,0-0.1,0.1-0.4,0.1c-0.1,0-0.3,0.1-0.4,0.1c-0.1,0-0.2,0-0.3,0.1c-0.1,0-0.2,0-0.3-0.1
		c-0.7-0.2-1.6-0.4-2.6-0.6s-1.9-0.4-2.6-0.6c-0.1,0-0.2,0-0.3-0.1s-0.1-0.1-0.2-0.2c-0.1-0.1-0.2-0.2-0.3-0.3
		c-0.2-0.2-0.3-0.3-0.3-0.3s0.1,0,0.4-0.1c0.1,0,0.3-0.1,0.4-0.1c0.1,0,0.2,0,0.3-0.1c0.1,0,0.2,0,0.3,0c0.7,0.2,1.6,0.4,2.6,0.6
		c0.9,0.2,1.9,0.4,2.6,0.6c0.1,0,0.2,0,0.3,0.1s0.1,0.1,0.2,0.2c0.1,0.1,0.2,0.2,0.3,0.3C62.1,401.5,62.2,401.6,62.2,401.6z"/>
</g>
<g id="XMLID_229_">
	<path id="XMLID_139_" d="M46.3,398.8c0,0-0.1,0.1-0.3,0.2c-0.1,0.1-0.2,0.1-0.4,0.2c-0.1,0-0.1,0.1-0.2,0.1c-0.1,0-0.2,0-0.3,0
		c-0.7,0-1.7,0.1-2.6,0.1c-1,0-1.9,0.1-2.6,0.1c-0.1,0-0.2,0-0.3,0s-0.2-0.1-0.2-0.1c-0.1-0.1-0.3-0.1-0.4-0.2
		c-0.2-0.1-0.3-0.2-0.3-0.2s0.1-0.1,0.3-0.2c0.1-0.1,0.2-0.1,0.4-0.2c0.1,0,0.1-0.1,0.2-0.1c0.1,0,0.2,0,0.3,0
		c0.7,0,1.7-0.1,2.6-0.1c1,0,1.9-0.1,2.6-0.1c0.1,0,0.2,0,0.3,0s0.2,0.1,0.2,0.1c0.1,0.1,0.3,0.1,0.4,0.2
		C46.2,398.7,46.3,398.8,46.3,398.8z"/>
</g>
<polygon id="XMLID_235_" class="st12" points="28.9,400.8 28.9,412.8 0,411.7 28.9,387.2 "/>
<line id="XMLID_238_" class="st12" x1="0" y1="411.7" x2="28.9" y2="397.3"/>
<polygon id="XMLID_241_" class="st12" points="28.9,394.4 35.8,402.3 28.9,405.8 "/>
<path id="XMLID_251_" class="st19" d="M682.8,631c21.4-11.6,5.1-21.5,5.1-21.5c-16.8-15-41.5,0-41.5,0l-445.5,256
	c-23.5,11.8-15.2,22.7-15.2,22.7c12.8,15.2,40.1,6.8,40.1,6.8l443.9-256.9L682.8,631z"/>
<ellipse id="XMLID_250_" class="st19" cx="556.4" cy="788.3" rx="71.7" ry="38.3"/>
<path id="XMLID_264_" class="st4" d="M590.8,370.2c-0.2,9.9,12.6,1.2,12.6,1.2l47.7-28.8c0,0,6-3.1,4.9-11.1l0.1-56.8
	c0,0,1.7-11.1-13.9-1.9l-45.5,27c0,0-6,1-5.1,18.7L590.8,370.2z"/>
<path id="XMLID_263_" class="st20" d="M638.3,267.4l-46.5,27.7c-7.7,3.8-9,12.3-9,12.3v60.8c-0.3,6.1,11,6.6,11,6.6
	s-4.1,0.3-2.9-7.4l0.8-56.1c0,0,0.5-8.8,5.1-11.6l49.6-29.1c0,0,3.8-2.4,8.2-0.8l-6-3C648.5,266.9,644.3,263.8,638.3,267.4z"/>
<path id="XMLID_58_" class="st3" d="M527.8,271.6v271.1c0.8,15.4-13.6,23.1-13.6,23.1l-135.5,78.8c0,0-10.2,7.8-11.8-7l0.2-273.1
	c0,0-0.8-14.2,16-22.1l130.1-75.6C513.1,266.8,526,256,527.8,271.6z"/>
<ellipse id="XMLID_65_" transform="matrix(-0.9467 -0.3222 0.3222 -0.9467 663.8786 1274.3015)" class="st13" cx="437.4" cy="582.2" rx="3.9" ry="6"/>
<ellipse id="XMLID_66_" transform="matrix(-0.9467 -0.3222 0.3222 -0.9467 699.2569 1263.3561)" class="st4" cx="454.2" cy="573.8" rx="3.9" ry="6"/>
<ellipse id="XMLID_67_" transform="matrix(-0.9467 -0.3222 0.3222 -0.9467 733.7429 1251.8347)" class="st13" cx="470.5" cy="565.2" rx="3.9" ry="6"/>
<path id="XMLID_257_" class="st13" d="M491,497c4.3-9.2,1.9-14.1,1.9-14.1c-4.6-9.8-13.3-4.1-13.3-4.1l-78.1,46.3
	c-6.3,2.9-11,14.8-11,14.8c-5.2,20.6,11,14.5,11,14.5l78.9-46.3c0,0,5.6-2.5,10.1-10.5L491,497z"/>
<path id="XMLID_261_" class="st4" d="M416.8,470.7c-0.3,12.1,15.3,1.5,15.3,1.5l58.3-35.2c0,0,7.3-3.8,6-13.6l0.1-69.3
	c0,0,2.1-13.6-17-2.3L424,384.7c0,0-7.3,1.3-6.3,22.9L416.8,470.7z"/>
<path id="XMLID_260_" class="st20" d="M474.8,345.1L418,379c-9.4,4.6-11,15.1-11,15.1v74.3c-0.4,7.4,13.4,8.1,13.4,8.1
	s-4.9,0.4-3.6-9.1l1-68.5c0,0,0.6-10.8,6.2-14.1l60.5-35.6c0,0,4.6-2.9,10-1l-7.3-3.7C487.3,344.5,482.2,340.8,474.8,345.1z"/>
<linearGradient id="XMLID_22_" gradientUnits="userSpaceOnUse" x1="401.371" y1="517.1978" x2="505.4677" y2="517.1978">
	<stop  offset="0" style="stop-color:#AF6AAC"/>
	<stop  offset="1" style="stop-color:#4F69B1"/>
</linearGradient>
<path id="XMLID_63_" class="st21" d="M502.9,498c4.3-9.2,1.9-14.1,1.9-14.1c-4.6-9.8-13.3-4.1-13.3-4.1l-78.1,46.3
	c-6.3,2.9-11,14.8-11,14.8c-5.2,20.6,11,14.5,11,14.5l78.9-46.3c0,0,5.6-2.5,10.1-10.5L502.9,498z"/>
<g id="XMLID_124_">
	<path id="XMLID_253_" class="st22" d="M525.9,786.5c-13.4-6.8-15.8,0-15.8,0s0.2,19.8,23.1,22.9c0,0,12-1.4,15.2,6.8
		c0,0,11.2,3.6,13-2c0,0,2.2-10.1,1.4-13.8c0,0-8.4-5.1-18.4,3.3c0,0-21.9-0.2-22.3-10.8c0,0-0.4-4.2,2.6-5.3L525.9,786.5z"/>
	<path id="XMLID_254_" class="st23" d="M583.3,768.2c-7.1-1.6-9.8,3.6-9.8,3.6c0.6,4.4,7,10.1,7,10.1c3.7,4.7,8.6,4.4,8.6,4.4
		c5-5.1,14.1-2.8,14.1-2.8v13.1c0,0-8.4,6.6-15,0c0,0-1.3-5.5-8.1-9.7c0,0-11.9-8.1-12-12.7l-0.3-12.7c0,0,6.9-1.9,14.5,5.3
		L583.3,768.2z"/>
	<path id="XMLID_255_" class="st24" d="M543.1,788.3c-6.2,1.3-17.2-1.8-17.2-1.8l-1.2,1.2c0,0-5.2,2-1,9.5c0,0,3.6,6.1,20.7,6.6
		c0,0,9.2-8.4,18.4-3.3l0.5-5.3c0,0-19.8,5.1-19.9-3.2L543.1,788.3z"/>
	<path id="XMLID_256_" class="st25" d="M603.1,783.5c0,0-9.4-2.3-14.1,2.8c0,0-6-0.4-8.6-4.4c0,0-6.5-6.2-7-10.1
		c0,0,3.3-5.4,9.8-3.6c0,0-1,9,5.3,11.1c0,0,13.8,0.4,14.2-2.2L603.1,783.5z"/>
	<path id="XMLID_252_" class="st26" d="M543.1,788.3l-0.5-26.2l-5.6-37.9l-1.8-25.9v-23.1V656v-26.9c0,0-1-30.5,3.9-33.2
		c0,0,32.9,14.6,58.9-6.4c0,0,3.4,10.2,0,36.7l-4.4,40.9l-1.2,24.1c0,0,10.2,9.4,8,34.7c0,0,1.9,34.8,2.3,51.1c0,0-2.8,3.1-14.2,2.2
		c0,0-5-1.2-5.3-11.1l1.4-1l-4.2-29l-7.5-23.2l-3.9-12.6c0,0-3.1-11.7-2.7-18l-3,16.7c0,0,4.8,12.2,3.5,27.7l-1.1,18.9l-1.2,11.6
		l-1.2,4v31.9C563.3,795.1,540.5,801.6,543.1,788.3z"/>
	<path id="XMLID_258_" class="st27" d="M552.8,796.7v-15.3l-0.5-5.6l-0.5-4.8l-0.2-3.1v-8.3l-1.2-6.1c0,0-0.3-6.3-0.4-7.1
		c-0.1-0.8-0.9-3.1-0.9-3.1l-0.1-5.1v-0.8l-0.9-8.1l-1-10.8v-4.4l-1.2-9.7v-4.3l-0.5-3.7l-0.2-1.6v-14.2c0,0,0.6-4.1,0.9-5.1
		c0.3-1-1.1-10.3-0.9-10.6c0.2-0.3,0-6.1,0-6.1V656v-26.1c0,0,0.4-11,0.4-11.6s0-5.7,0-5.7l0.5-5l0.2-3.8l0.9-4.8l-8-2.6
		c0,0-3.9,2.9-3.9,21.4v81l1.8,25.9l5.6,37.9l0.5,26.2C543.1,788.3,540.3,796.8,552.8,796.7z"/>
	<path id="XMLID_259_" class="st28" d="M590.8,779.4v-12.2l-0.9-11.1v-7.5l-0.9-8.7l-2.1-9.2l-2.6-12.5l-2.3-5.7l-2.3-10.1
		l-2.6-10.8v-5.2l-1.3-12.5v-9.6v-7.8l0.8-7l1.2-8.1l0.9-9c0,0-5.9-2.1-6.2,11.4l-2.6,7.5v4.2c0,0,0.5,2.4,0,3.3
		c-0.5,0.9-2.1,7.1-2.1,7.1v3.9l-1.2,5.6v3.8l-0.5,5.1c0,0,0,3.8,0.3,6l0.9,5.7l1.5,6.4l11.4,35.8l4.2,29l-1.4,1
		C583.3,768.2,583.5,779.9,590.8,779.4z"/>
	<path id="XMLID_262_" class="st29" d="M539.2,596c0,0-4.5-9.6-1-16.4c0,0,6.7-14,7.1-18.9v-20.1c0,0-0.9-3.8-5.8-7.3
		c0,0-3,3.9-5,0.8L520.9,520c0,0-1.1-0.8,1.3-3.8c0,0,13.2-20.5,13.5-20.6c0.2-0.1,5-6.2,8-4c0,0-0.7,7.7,7.6,15.4l14,7.8
		c0,0,3.5,3.2-0.5,13.6c0,0-7.1,13.2,2.9,22.7c0,0,10,12.3,30.5,11c0,0,4.1,21.1-0.1,27.4C598.1,589.6,577.1,610,539.2,596z"/>
	<path id="XMLID_272_" class="st30" d="M554.4,474.7c-11.4,3.6-10.8,16.9-10.8,16.9s-1.1,7.1,7.6,15.4l14,7.8c0,0,3.4,3.8-0.5,13.6
		c0,0-7,13.5,2.9,22.7c0,0,11.2,12.9,30.5,11c0,0,23.8-5.1,32.5-22.9c0,0,3.9-8.3-1.5-12.2c0,0-7.7-3.2-9.4-8.8v-6.6
		c0,0,10.3-10.4,11.1-16.5c0,0,0.3-18.9-13.2-21.6c0,0-12.6,0.2-15.7-12.7c0,0-2.9-16.2-2.9-24.7c0,0-4.2-11.3-14.3-15.8
		c0,0-7.7-14.4-23.9-11.7c0,0-9.1,2.6-9.6,9.5l-7.6-0.9c0,0-11,3.6-10.6,16.1c0,0-2.3,9.6,15.9,15.7c0,0,6.2,2.9,8,18.4
		c0,0,0.3,3-1.8,6.3L554.4,474.7z"/>
	<path id="XMLID_276_" class="st31" d="M554.4,474.7l-11-1.1l-2-3.3c0,0-0.2-2.3,0-2.9s-0.2-2-0.4-2.9s-0.8-3.2-0.8-3.2l-0.5-1.1
		c0,0,0.2-0.4-0.1-2c-0.3-1.7-0.7-4.1-0.7-4.1l-0.5-2.9l-0.2-1.7c0,0,0-2,0-2.4c0-0.5,0.9-2.7,0.9-2.7s6.4,4,9.6,4.6
		c0,0,6.2,3.5,8,18.4C556.9,467.5,557.5,470.8,554.4,474.7z"/>
	<path id="XMLID_282_" class="st32" d="M607.6,559l-1.3,34.2c0.7,7.4-6.6,11-6.6,11c0.7,2-0.9,16.7-0.9,16.7s14.3,1.8,15.1-5.1
		l9-66.2C622.8,549.6,612.5,558.4,607.6,559z"/>
	<path id="XMLID_275_" class="st33" d="M521.3,520.4l-8.7,13.4l-2-0.7l-24.3-19.2l-1.4-5.2c-1.6-9.3-6.7-13.9-6.7-13.9l-8-9.3
		c-3-2-3.3,0.9-3.3,0.9l6.7,11.2c-9.1,1-7.9,10.2-7.9,10.2c2.1,7.1,10.1,10.1,10.1,10.1l33.7,32.7c3.8,3.9,9.3,0.8,9.3,0.8
		l16.6-16.3L521.3,520.4z"/>
</g>
<ellipse id="XMLID_340_" transform="matrix(0.9955 9.484217e-002 -9.484217e-002 0.9955 40.9431 -41.9616)" class="st18" cx="461.9" cy="409.7" rx="22.8" ry="26"/>
<ellipse id="XMLID_125_" transform="matrix(0.9955 9.484217e-002 -9.484217e-002 0.9955 41.0085 -42.354)" class="st17" cx="466.1" cy="410.2" rx="18.6" ry="23.5"/>
<ellipse id="XMLID_342_" transform="matrix(0.9955 9.484217e-002 -9.484217e-002 0.9955 33.1566 -58.1107)" class="st18" cx="627.9" cy="319.8" rx="18.3" ry="20.9"/>
<ellipse id="XMLID_341_" transform="matrix(0.9955 9.484217e-002 -9.484217e-002 0.9955 33.2102 -58.4209)" class="st17" cx="631.2" cy="320.2" rx="14.9" ry="18.9"/>
</svg>
